<svg width="10" height="6" viewBox="0 0 10 6" fill="none" xmlns="http://www.w3.org/2000/svg">
<path d="M0.811512 0.147804C0.765594 0.100591 0.711578 0.0636806 0.65255 0.0391812C0.593521 0.0146813 0.530636 0.00307176 0.467484 0.00501583C0.404332 0.00695942 0.34215 0.0224185 0.284489 0.0505099C0.226827 0.0786009 0.174816 0.118774 0.131424 0.168736C0.088032 0.218698 0.0541092 0.277471 0.0315925 0.341698C0.00907571 0.405925 -0.00159409 0.474348 0.000192388 0.543061C0.00197887 0.611774 0.0161866 0.679432 0.0420043 0.742171C0.067822 0.80491 0.104744 0.861501 0.150663 0.908715L4.47937 5.35695C4.56867 5.44882 4.6869 5.5 4.8098 5.5C4.93269 5.5 5.05092 5.44882 5.14022 5.35695L9.46941 0.908714C9.51634 0.861813 9.55423 0.805234 9.58089 0.742264C9.60754 0.679294 9.62243 0.611189 9.6247 0.541904C9.62696 0.472619 9.61655 0.403535 9.59406 0.338666C9.57158 0.273797 9.53748 0.214435 9.49373 0.164028C9.44998 0.113621 9.39747 0.0731745 9.33923 0.0450373C9.281 0.0169006 9.21821 0.00163372 9.1545 0.000124531C9.0908 -0.00138513 9.02746 0.0108925 8.96815 0.036244C8.90885 0.061596 8.85477 0.0995165 8.80904 0.147803L4.8098 4.25693L0.811512 0.147804Z" fill="#072F25"/>
</svg>
