<svg width="16" height="16" viewBox="0 0 16 16" fill="none" xmlns="http://www.w3.org/2000/svg">
<path d="M1.35341 12.22C1.35341 12.46 1.40675 12.7066 1.52008 12.9466C1.63341 13.1866 1.78008 13.4133 1.97341 13.6266C2.30008 13.9866 2.66008 14.2466 3.06675 14.4133C3.46675 14.58 3.90008 14.6666 4.36675 14.6666C5.04675 14.6666 5.77341 14.5066 6.54008 14.18C7.30675 13.8533 8.07341 13.4133 8.83341 12.86C9.60008 12.3 10.3267 11.68 11.0201 10.9933C11.7067 10.3 12.3267 9.57331 12.8801 8.81331C13.4267 8.05331 13.8667 7.29331 14.1867 6.53998C14.5067 5.77998 14.6667 5.05331 14.6667 4.35998C14.6667 3.90665 14.5867 3.47331 14.4267 3.07331C14.2667 2.66665 14.0134 2.29331 13.6601 1.95998C13.2334 1.53998 12.7667 1.33331 12.2734 1.33331C12.0867 1.33331 11.9001 1.37331 11.7334 1.45331C11.5601 1.53331 11.4067 1.65331 11.2867 1.82665L9.74008 4.00665C9.62008 4.17331 9.53341 4.32665 9.47341 4.47331C9.41341 4.61331 9.38008 4.75331 9.38008 4.87998C9.38008 5.03998 9.42675 5.19998 9.52008 5.35331C9.60675 5.50665 9.73341 5.66665 9.89341 5.82665L10.4001 6.35331C10.4734 6.42665 10.5067 6.51331 10.5067 6.61998C10.5067 6.67331 10.5001 6.71998 10.4867 6.77331C10.4667 6.82665 10.4467 6.86665 10.4334 6.90665C10.3134 7.12665 10.1067 7.41331 9.81341 7.75998C9.51341 8.10665 9.19341 8.45998 8.84675 8.81331C8.48675 9.16665 8.14008 9.49331 7.78675 9.79331C7.44008 10.0866 7.15341 10.2866 6.92675 10.4066C6.89341 10.42 6.85341 10.44 6.80675 10.46C6.75341 10.48 6.70008 10.4866 6.64008 10.4866C6.52675 10.4866 6.44008 10.4466 6.36675 10.3733L5.86008 9.87331C5.69341 9.70665 5.53341 9.57998 5.38008 9.49998C5.22675 9.40665 5.07341 9.35998 4.90675 9.35998C4.78008 9.35998 4.64675 9.38665 4.50008 9.44665C4.35341 9.50665 4.20008 9.59331 4.03341 9.70665L1.82675 11.2733C1.65341 11.3933 1.53341 11.5333 1.46008 11.7C1.39341 11.8666 1.35341 12.0333 1.35341 12.22Z" stroke="#FF9924" stroke-miterlimit="10"/>
<path d="M3.66667 6.00002C3.66667 5.60002 3.98 4.98669 4.44667 4.48669C4.87333 4.02669 5.44 3.66669 6 3.66669" stroke="#FF9924" stroke-linecap="round" stroke-linejoin="round"/>
<path d="M1.33333 5.99998C1.33333 3.41998 3.42 1.33331 6 1.33331" stroke="#FF9924" stroke-linecap="round" stroke-linejoin="round"/>
</svg>
