<svg width="18" height="18" viewBox="0 0 18 18" fill="none" xmlns="http://www.w3.org/2000/svg">
<path d="M12.1798 1.49902H5.81976C3.74976 1.49902 2.99976 2.24902 2.99976 4.35652V13.6415C2.99976 15.749 3.74976 16.499 5.81976 16.499H12.1723C14.2498 16.499 14.9998 15.749 14.9998 13.6415V4.35652C14.9998 2.24902 14.2498 1.49902 12.1798 1.49902ZM8.99976 14.474C8.27976 14.474 7.68726 13.8815 7.68726 13.1615C7.68726 12.4415 8.27976 11.849 8.99976 11.849C9.71976 11.849 10.3123 12.4415 10.3123 13.1615C10.3123 13.8815 9.71976 14.474 8.99976 14.474ZM10.4998 4.68652H7.49976C7.19226 4.68652 6.93726 4.43152 6.93726 4.12402C6.93726 3.81652 7.19226 3.56152 7.49976 3.56152H10.4998C10.8073 3.56152 11.0623 3.81652 11.0623 4.12402C11.0623 4.43152 10.8073 4.68652 10.4998 4.68652Z" fill="#FF9924"/>
</svg>
