<svg width="20" height="19" viewBox="0 0 20 19" fill="none" xmlns="http://www.w3.org/2000/svg">
<path d="M19.608 14.1879C16.9341 13.7421 15.7291 10.9668 15.6803 10.849L15.6691 10.8262C15.5328 10.545 15.5003 10.3132 15.5753 10.1371C15.7216 9.79007 16.2816 9.6102 16.6516 9.49113C16.7591 9.45693 16.8604 9.424 16.9441 9.39107C17.3092 9.2454 17.5692 9.08707 17.7417 8.90847C17.9467 8.6944 17.9867 8.4892 17.9842 8.3562C17.9779 8.03193 17.7329 7.74313 17.3417 7.60253C17.2033 7.54668 17.0556 7.5183 16.9066 7.51893C16.7673 7.51695 16.6291 7.54547 16.5016 7.60253C16.1891 7.75073 15.9091 7.8318 15.6678 7.8432C15.5728 7.8405 15.4791 7.81988 15.3916 7.7824L15.4153 7.391L15.4191 7.33273C15.5053 5.96093 15.6116 4.25473 15.164 3.2414C14.8761 2.5736 14.4601 1.9704 13.9402 1.4668C13.5114 1.05795 13.0162 0.727139 12.4764 0.488933C11.7558 0.170374 10.9787 0.00400848 10.1925 0L10.1425 0L9.79878 0.0038C9.35501 0.0038 8.46621 0.0671333 7.51242 0.492733C6.97418 0.73055 6.48062 1.06096 6.05359 1.46933C5.53628 1.97258 5.1221 2.57435 4.83478 3.24013C4.38726 4.2522 4.49352 5.9584 4.57852 7.32893V7.33147L4.60602 7.78113C4.50236 7.82488 4.39077 7.84603 4.27851 7.8432C4.02599 7.8432 3.72598 7.76213 3.38721 7.60127C3.28075 7.55287 3.16512 7.52866 3.04844 7.53033C2.83759 7.53251 2.63103 7.59106 2.44967 7.70007C2.21715 7.83813 2.06715 8.03193 2.02589 8.24853C1.99964 8.3904 2.00089 8.67287 2.31091 8.95913C2.48217 9.1162 2.73218 9.26187 3.05595 9.39107C3.14095 9.42527 3.2422 9.45693 3.34846 9.49113C3.71848 9.6102 4.27976 9.79007 4.42601 10.1371C4.49977 10.3132 4.46727 10.545 4.33101 10.8262L4.32101 10.849C4.05994 11.4204 3.72076 11.9517 3.31346 12.4273C2.96205 12.8468 2.55282 13.2128 2.0984 13.5141C1.58149 13.8551 1.00054 14.0841 0.392064 14.1867C0.27805 14.2053 0.174915 14.2661 0.102631 14.3574C0.030347 14.4487 -0.0059412 14.5638 0.000794239 14.6807C0.00454442 14.7503 0.0207952 14.82 0.0495467 14.8871V14.8884C0.145801 15.1151 0.367062 15.3064 0.72708 15.4749C1.1671 15.6813 1.82463 15.8549 2.68343 15.9904C2.72718 16.074 2.77218 16.283 2.80343 16.4261C2.83593 16.5781 2.86969 16.7352 2.91844 16.9011C2.97094 17.081 3.10595 17.2963 3.45472 17.2963C3.58722 17.2963 3.73848 17.2659 3.91474 17.2317C4.17225 17.1811 4.52477 17.1114 4.96354 17.1114C5.2073 17.1114 5.45981 17.1329 5.71358 17.176C6.2036 17.2583 6.62612 17.5598 7.1149 17.9094C7.82993 18.4211 8.63997 19 9.87753 19L9.97879 18.9962C10.0188 18.9987 10.07 19 10.1225 19C11.3601 19 12.1701 18.4211 12.8852 17.9107L12.8864 17.9094C13.3752 17.5611 13.7977 17.2596 14.2878 17.1773C14.5415 17.1342 14.794 17.1127 15.0378 17.1127C15.4578 17.1127 15.7903 17.1671 16.0866 17.2254C16.2804 17.2634 16.4304 17.2824 16.5466 17.2824H16.5691C16.6859 17.2876 16.8009 17.2518 16.8945 17.1809C16.9882 17.11 17.0547 17.0085 17.0829 16.8935C17.1268 16.7379 17.1652 16.5808 17.1979 16.4223C17.2266 16.2881 17.2741 16.0727 17.3167 15.9891C18.1754 15.8523 18.833 15.6801 19.273 15.4736C19.6318 15.3051 19.853 15.1139 19.9493 14.8884C19.9782 14.8223 19.9951 14.7515 19.9993 14.6794C20.0057 14.5629 19.9692 14.4482 19.8969 14.3574C19.8246 14.2666 19.7217 14.2063 19.608 14.1879Z" fill="white"/>
</svg>
