<svg width="21" height="17" viewBox="0 0 21 17" fill="none" xmlns="http://www.w3.org/2000/svg">
<path d="M21 2.03671C20.2108 2.37721 19.3761 2.60229 18.522 2.70497C19.4231 2.16966 20.0983 1.32751 20.4225 0.334754C19.5757 0.836011 18.6488 1.18918 17.682 1.3789C17.0358 0.682008 16.1752 0.218119 15.2353 0.0599881C14.2954 -0.0981428 13.3293 0.0584292 12.4885 0.505148C11.6477 0.951866 10.9798 1.66346 10.5895 2.52834C10.1992 3.39321 10.1087 4.36244 10.332 5.28401C8.6199 5.1979 6.94516 4.75458 5.41659 3.98286C3.88801 3.21114 2.53979 2.12828 1.4595 0.80462C1.08059 1.46261 0.881495 2.20777 0.882 2.96601C0.880656 3.67016 1.05443 4.36372 1.38784 4.98493C1.72126 5.60615 2.20397 6.13574 2.793 6.52655C2.10838 6.50802 1.43838 6.32534 0.84 5.99403V6.04624C0.845131 7.03285 1.19279 7.98741 1.82418 8.74846C2.45557 9.50951 3.33192 10.0303 4.305 10.2228C3.93042 10.3362 3.54152 10.396 3.15 10.4003C2.87898 10.3972 2.60864 10.3727 2.3415 10.3272C2.61861 11.1759 3.15485 11.9176 3.87563 12.4491C4.5964 12.9806 5.46585 13.2754 6.363 13.2926C4.84806 14.478 2.97768 15.125 1.05 15.1303C0.699022 15.1315 0.348322 15.1105 0 15.0677C1.96815 16.3314 4.26175 17.0022 6.6045 16.9993C8.22118 17.016 9.82499 16.7122 11.3223 16.1056C12.8195 15.4991 14.1803 14.6019 15.325 13.4665C16.4697 12.3311 17.3754 10.9802 17.9892 9.49287C18.603 8.0055 18.9126 6.41141 18.9 4.8037C18.9 4.6262 18.9 4.43825 18.9 4.25031C19.7239 3.63928 20.4345 2.89023 21 2.03671Z" fill="white"/>
</svg>
