<svg width="14" height="13" viewBox="0 0 14 13" fill="none" xmlns="http://www.w3.org/2000/svg">
<path d="M8.53847 9.30624C5.9564 9.30624 3.85569 7.20482 3.85498 4.62275C3.85569 3.96822 4.38864 3.43597 5.04176 3.43597C5.10891 3.43597 5.17534 3.44163 5.23896 3.45294C5.37891 3.47626 5.5118 3.52362 5.63409 3.59501C5.65176 3.60561 5.66377 3.62257 5.6666 3.64236L5.93944 5.3621C5.94297 5.3826 5.93661 5.40239 5.92318 5.41723C5.77262 5.58405 5.58036 5.7042 5.36619 5.76428L5.263 5.79326L5.30187 5.89293C5.65387 6.7892 6.37061 7.50523 7.26758 7.85864L7.36725 7.89821L7.39622 7.79502C7.4563 7.58085 7.57647 7.3886 7.74328 7.23804C7.7553 7.22673 7.77155 7.22108 7.78781 7.22108C7.79134 7.22108 7.79488 7.22108 7.79912 7.22179L9.51885 7.49461C9.53935 7.49815 9.55631 7.50946 9.56692 7.52713C9.6376 7.64941 9.68496 7.78301 9.70899 7.92296C9.7203 7.98516 9.72525 8.0509 9.72525 8.11946C9.72525 8.77328 9.193 9.30553 8.53847 9.30624Z" fill="white"/>
<path d="M13.1174 5.78899C12.9782 4.21557 12.2572 2.75595 11.0874 1.67944C9.91054 0.596569 8.38377 0 6.78703 0C3.28254 0 0.431176 2.85138 0.431176 6.35587C0.431176 7.53204 0.755607 8.67782 1.36985 9.67587L0 12.7082L4.38591 12.241C5.14859 12.5534 5.95579 12.7117 6.78632 12.7117C7.00473 12.7117 7.22881 12.7004 7.45358 12.6771C7.65149 12.6559 7.85153 12.6248 8.04803 12.5852C10.9828 11.9922 13.1252 9.38749 13.1422 6.3898V6.35587C13.1422 6.16503 13.1337 5.97418 13.1167 5.7897L13.1174 5.78899ZM4.55485 10.91L2.12829 11.1687L2.85279 9.56348L2.70789 9.3691C2.69729 9.35496 2.68669 9.34084 2.67467 9.32458C2.04559 8.45588 1.71337 7.42955 1.71337 6.35658C1.71337 3.55893 3.98938 1.28292 6.78703 1.28292C9.40797 1.28292 11.6296 3.32778 11.8437 5.93812C11.855 6.07807 11.8614 6.21875 11.8614 6.35729C11.8614 6.39687 11.8607 6.43574 11.86 6.47745C11.8063 8.81778 10.1714 10.8054 7.88404 11.3115C7.70945 11.3504 7.53062 11.38 7.3525 11.3991C7.16731 11.4203 6.97717 11.4309 6.78845 11.4309C6.11625 11.4309 5.46313 11.3009 4.84606 11.0436C4.7775 11.016 4.71035 10.9863 4.64744 10.9559L4.55556 10.9114L4.55485 10.91Z" fill="white"/>
</svg>
