<svg width="131" height="114" viewBox="0 0 131 114" fill="none" xmlns="http://www.w3.org/2000/svg">
<path d="M74.7667 95.2813C72.1302 99.5146 68.5356 102.254 63.4296 102.772C60.6797 103.052 57.9777 103.036 55.4197 101.852C54.4949 101.425 53.6274 100.874 52.7593 100.333C52.6869 100.288 52.6145 100.243 52.5424 100.2C52.2112 99.995 51.9222 99.8451 51.5211 99.9736C50.4496 100.322 49.3278 100.214 48.2277 100.303C45.3744 100.537 42.5276 100.832 39.8015 101.804C38.8312 102.148 37.9342 102.607 37.1082 103.21C35.5425 104.355 33.9833 105.508 32.4208 106.66C31.7489 107.155 31.028 107.548 30.2614 107.891C28.6302 108.62 27.5106 108.107 26.5876 106.775C26.4336 106.555 26.2879 106.311 26.1437 106.046C25.9232 105.642 25.8468 105.167 25.8546 104.701C25.9061 102.176 26.32 99.7717 27.7506 97.5869C29.7471 94.5358 32.2393 91.974 35.1038 89.7591C37.0191 88.2796 39.3322 87.6883 41.6337 87.1987C43.0503 86.8974 44.51 86.7206 45.9659 86.9342C46.2173 86.9709 46.4686 87.0199 46.7197 87.0814C47.1024 87.1768 47.4061 87.1269 47.7216 86.8253C48.0549 86.5071 48.3998 86.2449 48.7517 86.0321C50.2731 85.1124 51.9794 85.1093 53.7837 85.6662C54.3138 85.8289 54.8324 86.0284 55.6456 86.31C56.2933 86.5981 57.2275 86.9996 58.1493 87.4272C58.4602 87.572 58.7732 87.6993 59.0853 87.8098C60.8957 88.4518 62.7423 88.5054 64.5912 87.7358C66.8412 86.7976 69.1627 86.6883 71.465 87.0489C71.7171 87.0885 71.9677 87.1346 72.2189 87.1837C75.2707 87.7914 76.5982 89.7641 75.8187 92.8811C75.6074 93.7303 75.2377 94.524 74.7664 95.2799L74.7667 95.2813Z" fill="#FEDA57"/>
<path d="M52.7576 100.333C52.6852 100.288 52.6128 100.244 52.5408 100.2C52.2095 99.9953 51.9206 99.8453 51.5195 99.9738C50.448 100.322 49.3261 100.214 48.2261 100.303C45.3727 100.537 42.5259 100.832 39.7999 101.804C38.8296 102.148 37.9325 102.607 37.1066 103.21C35.5409 104.355 33.9816 105.508 32.4191 106.66C31.7472 107.155 31.0263 107.548 30.2598 107.891C28.6285 108.62 27.5089 108.107 26.5859 106.775C27.2275 106.736 27.8526 106.593 28.4702 106.418C29.7767 106.05 31.0132 105.562 31.826 104.372C31.9538 104.186 32.131 104.013 32.321 103.894C34.6685 102.438 36.9326 100.811 39.6226 100.021C41.0935 99.5895 42.5232 99.1011 43.8638 98.3461C44.3814 98.0557 44.9711 97.8874 45.536 97.6924C46.398 97.3935 46.6094 97.1226 46.2636 96.2716C45.6931 94.8674 45.2703 93.3945 44.3569 92.1361C43.4897 90.9425 43.5202 90.3632 44.3738 89.1292C44.8869 88.3867 45.4761 87.6974 45.9629 86.9348C46.2143 86.9715 46.4655 87.0205 46.7166 87.082C47.0993 87.1774 47.403 87.1275 47.7185 86.8259C48.0518 86.5077 48.3967 86.2455 48.7486 86.0327C48.7464 86.0363 48.7438 86.0385 48.7415 86.0421C47.9685 87.0206 47.2743 88.0515 46.7115 89.1676C46.1116 90.3557 46.3518 91.5393 46.9155 92.6327C48.2561 95.2317 49.9863 97.5548 52.0801 99.6036C52.2445 99.7628 52.4206 99.9131 52.5793 100.081C52.6581 100.166 52.7164 100.25 52.7544 100.332L52.7576 100.333Z" fill="#FCC348"/>
<path d="M65.8324 97.0148C65.3114 97.3108 64.7643 97.568 64.2075 97.7904C63.1496 98.2097 62.4558 98.0345 61.7848 97.0963C60.8688 95.8137 60.6096 94.313 60.5272 92.7753C60.518 92.5919 60.5447 92.4032 60.5847 92.2252C61.0198 90.2455 60.3512 88.8645 59.0859 87.8126C60.8963 88.4546 62.7429 88.5082 64.5919 87.7386C66.8418 86.8004 69.1634 86.6911 71.4657 87.0517C69.8423 86.9672 68.8555 87.931 68.1245 89.2521C67.7989 89.8391 67.3617 90.2545 66.8124 90.6267C65.6432 91.4201 65.5229 92.019 66.1652 93.3274C66.3062 93.6174 66.4817 93.8899 66.637 94.1749C67.3826 95.5348 67.1941 96.2379 65.8313 97.0167L65.8324 97.0148Z" fill="#FCC348"/>
<path d="M31.7902 95.9686C31.5381 95.7914 31.4942 95.5327 31.5579 95.2517C31.7163 94.5588 32.3903 94.3413 32.8424 93.9301C33.1122 93.6841 33.2883 94.1034 33.4766 94.2662C33.7213 94.4777 33.7682 94.7821 33.5261 94.9752C33.0666 95.3416 32.5572 95.6472 32.06 95.9653C31.9981 96.0047 31.8895 95.97 31.7902 95.9686Z" fill="#FEB02A"/>
<path d="M67.7532 92.0207C67.6949 92.2262 66.503 93.0745 66.3393 93.0032C66.024 92.8657 65.8441 92.5091 65.8128 92.2644C65.7241 91.5663 66.4855 91.6282 66.8546 91.3572C67.1721 91.1231 67.5598 91.338 67.7118 91.7599C67.7417 91.841 67.7419 91.9337 67.755 92.0218L67.7532 92.0207Z" fill="#FEB02A"/>
<path d="M69.144 98.0562C68.7729 97.8792 68.6948 97.5543 68.7663 97.1617C68.8503 96.6981 69.5272 96.2634 69.9941 96.3746C70.3216 96.452 70.4277 96.7317 70.4201 96.9948C70.408 97.4028 69.4959 98.1387 69.144 98.0562Z" fill="#FEB02A"/>
<path d="M32.7809 99.6428C32.5601 100.123 31.7098 100.636 31.4312 100.451C31.0571 100.202 31.0878 99.8267 31.2399 99.4615C31.4694 98.9065 31.9849 98.666 32.4273 98.8834C32.7718 99.0527 32.8587 99.323 32.7824 99.6425L32.7809 99.6428Z" fill="#FEB02A"/>
<path d="M32.4745 104.171C32.4006 104.048 32.3042 103.947 32.2733 103.829C32.1155 103.244 32.4927 102.62 33.0744 102.477C33.4293 102.389 33.678 102.519 33.8533 102.837C34.0276 103.15 33.8722 103.324 33.6364 103.511C33.2895 103.784 32.9734 104.103 32.4745 104.171Z" fill="#FEB02A"/>
<path d="M28.9913 100.195C29.2676 100.443 29.511 100.721 29.2936 101.131C29.055 101.581 28.3461 101.894 28.0171 101.685C27.7153 101.493 27.613 101.197 27.7725 100.857C27.9557 100.459 28.7045 100.054 28.9928 100.195L28.9913 100.195Z" fill="#FEB02A"/>
<path d="M61.1061 92.4563C60.8006 92.853 60.5347 93.4042 59.9764 93.2791C59.5975 93.1936 59.3975 92.7057 59.5523 92.2997C59.7337 91.8224 60.2387 91.7081 60.6761 91.7334C61.0303 91.7536 61.1437 92.1103 61.1061 92.4563Z" fill="#FEB02A"/>
<path d="M68.9864 92.9038C69.0847 92.7307 69.1606 92.3108 69.5933 92.2506C69.9064 92.2077 70.0603 92.507 70.2235 92.7005C70.4893 93.0152 70.348 93.2882 70.0341 93.4982C69.7121 93.7132 69.4686 94.1896 68.9829 93.8803C68.6387 93.6599 68.7165 93.3401 68.9864 92.9038Z" fill="#FEB02A"/>
<path d="M43.1891 97.871C42.9291 97.6663 42.7359 97.3779 42.9074 97.056C43.1342 96.6269 43.5456 96.3846 44.0423 96.4779C44.4727 96.5589 44.6411 96.8996 44.5264 97.3117C44.4366 97.6328 43.5384 97.9882 43.1906 97.8707L43.1891 97.871Z" fill="#FEB02A"/>
<path d="M65.9438 97.199C65.7345 97.1246 65.6281 96.8435 65.7145 96.5015C65.8083 96.1253 66.5943 95.7793 66.9741 95.9342C67.2649 96.0528 67.381 96.3161 67.3279 96.5961C67.2544 96.9861 66.5001 97.3617 65.9438 97.199Z" fill="#FEB02A"/>
<path d="M30.1534 103.973C29.947 104.331 29.6852 104.651 29.1836 104.438C28.6976 104.232 28.8916 103.848 28.9687 103.493C29.0784 102.994 29.4072 103.136 29.716 103.226C30.0742 103.328 30.2661 103.546 30.1534 103.973Z" fill="#FEB02A"/>
<path d="M38.9347 97.0226C38.7895 97.4697 38.2385 97.7495 37.8317 97.5453C37.6123 97.4346 37.2864 97.3444 37.3639 96.9643C37.4387 96.5926 38.2138 96.2136 38.6141 96.3575C38.9465 96.4755 38.9486 96.7534 38.9347 97.0226Z" fill="#FEB02A"/>
<path d="M60.221 99.0962C59.957 98.8352 59.5657 98.6182 59.8435 98.1893C60.0885 97.8115 60.5077 97.7205 60.9157 97.844C61.2236 97.9369 61.2794 98.233 61.1503 98.5185C60.9715 98.9148 60.7056 99.197 60.221 99.0962Z" fill="#FEB02A"/>
<path d="M64.6375 98.9988C64.9628 99.2701 65.5174 99.373 65.3126 99.9872C65.1143 100.583 64.5992 100.392 64.1848 100.477C64.0574 99.8576 64.2841 99.4285 64.636 98.9992L64.6375 98.9988Z" fill="#FEB02A"/>
<path d="M124.012 60.6776C124.819 62.8502 124.297 65.1734 123.307 67.5004C122.624 69.1054 122.19 70.7913 121.151 72.2622C118.497 76.0203 114.832 77.9816 110.362 78.515C108.537 78.733 106.674 78.8379 104.844 78.7356C101.146 78.529 97.9548 77.1979 95.6889 74.0778C94.1992 72.0274 94.4218 69.8674 95.3902 67.7821C96.2899 65.8445 97.9481 64.7379 100.146 64.7846C103.097 64.8471 106.036 64.7298 108.979 64.5577C110.222 64.4845 111.285 63.9634 112.352 63.4212C113.159 63.0116 113.477 62.2146 113.787 61.4518C114.308 60.1695 114.812 58.8771 115.225 57.5582C115.664 56.1528 116.64 55.3352 117.921 54.797C118.461 54.5707 119.012 54.7162 119.539 54.8997C122.146 55.8103 123.626 57.6372 124.012 60.6791L124.012 60.6776Z" fill="#FEDA57"/>
<path d="M116.791 59.314C117.109 59.3023 117.338 59.301 117.563 59.2851C117.931 59.2587 118.212 59.4013 118.268 59.7685C118.318 60.1014 117.725 60.6278 117.403 60.5738C117.181 60.5365 116.955 60.4845 116.748 60.3955C116.466 60.2734 116.332 60.0313 116.399 59.7248C116.453 59.4817 116.648 59.357 116.789 59.3143L116.791 59.314Z" fill="#FEB02A"/>
<path d="M118.743 69.222C118.337 69.2774 118.083 69.1918 118.051 68.853C118.005 68.369 117.938 67.8482 118.54 67.6184C118.859 67.4968 119.085 67.6276 119.104 67.9663C119.132 68.4453 119.172 68.9493 118.743 69.222Z" fill="#FEB02A"/>
<path d="M106.749 73.7654C106.73 74.2646 106.407 74.4427 105.955 74.5044C105.615 74.5506 105.335 74.5606 105.242 74.1173C105.099 73.4458 105.641 73.5254 105.988 73.4141C106.319 73.3069 106.624 73.3402 106.749 73.7654Z" fill="#FEB02A"/>
<path d="M107.408 69.4118C107.376 69.7534 107.193 70.0254 106.839 70.0268C106.381 70.0279 105.973 69.8055 105.801 69.3698C105.624 68.9213 106.028 68.8479 106.325 68.7917C106.722 68.7154 107.351 69.0959 107.409 69.4132L107.408 69.4118Z" fill="#FEB02A"/>
<path d="M117.415 62.7122C117.474 63.0942 117.313 63.3377 116.944 63.4031C116.599 63.4641 116.215 63.5918 116.075 63.062C115.992 62.7506 116.021 62.5505 116.369 62.4454C116.783 62.3185 117.166 62.2313 117.416 62.7119L117.415 62.7122Z" fill="#FEB02A"/>
<path d="M117.674 65.552C117.7 66.0084 117.515 66.3673 117.04 66.4575C116.759 66.5114 116.415 66.3234 116.449 66.0355C116.492 65.6714 116.529 65.1955 117.072 65.1156C117.411 65.0666 117.59 65.2223 117.674 65.552Z" fill="#FEB02A"/>
<path d="M120.978 62.6789C120.974 62.9333 120.933 63.2197 120.655 63.3502C120.354 63.4907 119.711 62.9942 119.644 62.5972C119.595 62.3026 119.778 62.1883 120.019 62.1284C120.5 62.009 120.9 62.2302 120.978 62.6789Z" fill="#FEB02A"/>
<path d="M100.157 66.9776C100.562 66.9718 100.912 66.9992 101.083 67.418C101.252 67.8343 101.067 68.1764 100.736 68.3037C100.404 68.4332 100.155 68.1345 100.061 67.8057C99.9794 67.5187 99.8366 67.2014 100.157 66.9776Z" fill="#FEB02A"/>
<path d="M120.764 59.2314C120.848 59.4775 120.743 59.7543 120.462 59.853C120.068 59.989 119.693 59.7557 119.594 59.4188C119.534 59.215 119.563 58.7642 120.033 58.6968C120.437 58.6388 120.643 58.8037 120.764 59.2314Z" fill="#FEB02A"/>
<path d="M114.943 67.7307C114.858 68.1312 114.952 68.6457 114.396 68.7163C114.1 68.7535 113.901 68.5051 113.872 68.1966C113.829 67.7645 114.036 67.496 114.466 67.4303C114.706 67.3938 114.921 67.4406 114.943 67.7307Z" fill="#FEB02A"/>
<path d="M98.0321 69.8997C98.2384 69.8697 98.4884 70.1432 98.5812 70.511C98.6703 70.8627 98.4705 71.1108 98.098 71.2032C97.528 71.3437 97.5423 70.8532 97.4387 70.5576C97.3445 70.289 97.4253 70.0087 98.0306 69.9001L98.0321 69.8997Z" fill="#FEB02A"/>
<path d="M113.022 73.5357C113.092 73.9181 112.981 74.2288 112.552 74.3266C112.181 74.4124 112.112 74.1026 112.037 73.8527C111.928 73.481 112.137 73.2323 112.448 73.1172C112.77 72.9996 112.935 73.2253 113.022 73.5357Z" fill="#FEB02A"/>
<path d="M32.7732 28.4924C32.8363 28.7605 32.8866 29.0331 32.9215 29.3125C33.9957 33.0319 33.5158 36.6334 31.9246 40.0854C31.0872 41.9 29.7727 43.422 28.2931 44.7555C26.9234 45.9906 25.4933 47.147 24.2235 48.4976C23.0551 49.7408 21.7009 50.799 20.2229 51.6667C19.6632 51.995 19.1036 52.2582 18.5401 52.459C16.0858 53.3372 13.5886 53.0487 11.0949 51.9152C10.2151 51.5147 9.82306 50.6515 9.52669 49.7348C8.60015 46.8651 9.23267 44.1678 10.4183 41.5536C11.0721 40.1084 11.7814 38.6888 12.7909 37.4475C12.9536 37.2452 13.1268 37.0483 13.3072 36.8558C14.0695 36.0484 14.3448 35.0248 14.3138 33.9219C14.3083 33.7407 14.3045 33.5607 14.2989 33.3796C14.2654 32.0886 14.2271 30.7972 14.1921 29.5065C14.0866 25.5667 17.7603 21.1216 22.5195 20.6282C25.2921 20.3399 27.4495 21.3981 29.6224 22.7448C30.0188 22.9901 30.3293 23.3499 30.5574 23.7539C31.4194 25.2796 32.3705 26.7703 32.7757 28.4902L32.7764 28.4931L32.7732 28.4924Z" fill="#FEDA57"/>
<path d="M32.7732 28.4923C32.4294 30.3346 32.0507 32.1664 31.3191 33.9052C30.6112 35.5935 29.5875 37.0439 27.9375 37.9753C27.1925 38.3967 26.3739 38.5122 25.2989 38.7732C24.0617 39.442 22.7298 38.8295 21.3276 38.2661C18.7486 37.2299 16.5954 35.6188 14.6104 33.7236C14.4929 33.6122 14.3886 33.4976 14.2971 33.3784C14.3027 33.5596 14.3079 33.7392 14.312 33.9207C14.3415 35.024 14.0662 36.0476 13.3054 36.8546C13.1246 37.0456 12.9532 37.2437 12.7891 37.4463C12.9537 38.0663 13.1359 38.6821 13.3504 39.2841C14.3417 42.0612 15.5412 44.7567 17.0596 47.2968C18.029 48.9178 18.7457 50.555 18.5383 52.4579C19.1018 52.2571 19.6632 51.9949 20.2211 51.6656C21.7005 50.7975 23.0544 49.7379 24.2217 48.4965C25.4915 47.1458 26.9216 45.9894 28.2913 44.7544C29.7709 43.4209 31.0854 41.8989 31.9228 40.0842C33.5155 36.6319 33.9953 33.0304 32.9197 29.3114C32.8848 29.032 32.8345 28.7593 32.7714 28.4912L32.7732 28.4923Z" fill="#FCC348"/>
<path d="M15.3204 45.2309C15.7416 45.1286 16.3361 44.8169 16.4758 45.3902C16.5996 45.9022 16.0153 46.179 15.5061 46.282C15.2861 46.3261 15.0606 46.3467 14.8373 46.3576C14.4965 46.3745 14.3698 46.1321 14.3038 45.8585C14.2322 45.5677 14.4571 45.4653 14.6687 45.3922C14.8803 45.3191 15.1042 45.285 15.3225 45.2335L15.3204 45.2309Z" fill="#FEB02A"/>
<path d="M12.9813 51.2449C12.7856 51.2416 12.5562 51.2585 12.3339 51.2274C12.1149 51.197 12.0819 50.9914 12.0387 50.8145C11.9924 50.6182 12.0342 50.4475 12.2343 50.3648C12.4032 50.2941 12.5773 50.2191 12.7561 50.197C13.1266 50.1484 13.6357 49.8089 13.7857 50.4261C13.9195 50.9744 13.3609 51.0318 12.9798 51.2453L12.9813 51.2449Z" fill="#FEB02A"/>
<path d="M26.6958 27.8148C27.4177 27.702 27.4537 28.295 27.6381 28.6444C27.7911 28.933 27.6753 29.2881 27.2642 29.3479C26.781 29.4169 26.5046 29.1758 26.4412 28.6897C26.3952 28.3372 26.2889 27.9648 26.6958 27.8148Z" fill="#FEB02A"/>
<path d="M23.2273 38.6242C23.8924 38.4087 24.0603 38.9243 24.2616 39.2866C24.4334 39.5956 24.3083 39.9901 23.9562 40.0513C23.3418 40.1605 23.2088 39.5239 22.9317 39.1747C22.72 38.9061 22.9578 38.6815 23.2258 38.6245L23.2273 38.6242Z" fill="#FEB02A"/>
<path d="M17.2463 40.2916C17.2244 39.8375 17.6656 39.7413 18.0143 39.5741C18.3799 39.3998 18.7143 39.4603 18.9642 39.7926C19.0051 39.8479 18.9914 39.9671 18.9666 40.0456C18.8495 40.4149 17.9935 40.864 17.6153 40.749C17.4387 40.6947 17.316 40.5613 17.2459 40.2902L17.2463 40.2916Z" fill="#FEB02A"/>
<path d="M23.2961 34.801C23.1842 34.4439 23.4885 33.7336 23.7888 33.6628C24.114 33.5862 24.3236 33.7734 24.4476 34.0241C24.6274 34.3868 24.371 35.1431 24.0728 35.2226C23.8445 35.2841 23.3657 35.0242 23.2961 34.801Z" fill="#FEB02A"/>
<path d="M27.3369 39.5208C27.6404 39.2993 27.9429 39.0672 28.3273 39.2813C28.628 39.4486 28.747 39.7499 28.7844 40.0797C28.82 40.3945 28.6585 40.615 28.3817 40.7003C28.1581 40.7685 27.8491 40.6712 27.8236 40.4514C27.7793 40.0598 27.3933 39.8848 27.3354 39.5211L27.3369 39.5208Z" fill="#FEB02A"/>
<path d="M21.9395 47.6115C21.676 47.6287 21.6126 47.2478 21.477 47.02C21.3371 46.787 21.0344 46.4408 21.4347 46.2104C21.9017 45.9412 22.1925 46.27 22.3612 46.671C22.5112 47.0253 22.533 47.3805 21.9395 47.6115Z" fill="#FEB02A"/>
<path d="M12.8246 44.8371C12.804 45.2548 12.7194 45.6242 12.2579 45.6478C11.9646 45.6628 11.5506 45.6846 11.5212 45.2446C11.4939 44.8135 11.8952 44.6463 12.2065 44.5173C12.4631 44.412 12.7327 44.5387 12.8246 44.8371Z" fill="#FEB02A"/>
<path d="M17.3581 29.8182C17.2659 29.5972 17.4113 29.5382 17.4969 29.4422C17.8112 29.096 18.1362 28.7953 18.6278 29.1495C18.7804 29.2589 18.9 29.4055 18.7685 29.5957C18.4896 30.0001 18.1399 30.2417 17.6294 30.0048C17.5166 29.9525 17.4214 29.8636 17.3563 29.8171L17.3581 29.8182Z" fill="#FEB02A"/>
<path d="M30.3948 27.7167C30.4136 28.0262 30.2102 28.1344 29.9865 28.1562C29.5614 28.196 29.1741 28.1141 29.0803 27.6043C29.0255 27.3126 29.2418 27.2137 29.4673 27.1729C29.9317 27.0898 30.2269 27.3125 30.3948 27.7167Z" fill="#FEB02A"/>
<path d="M22.3523 23.994C22.6523 23.9156 22.981 23.8273 23.0943 24.164C23.2656 24.6679 22.782 24.7679 22.4803 24.9117C22.1981 25.0462 21.9396 24.9138 21.8403 24.5908C21.6893 24.1007 22.0968 24.0975 22.3505 23.9929L22.3523 23.994Z" fill="#FEB02A"/>
<path d="M28.1469 34.3092C28.4618 34.2412 28.8042 34.1589 28.9104 34.5901C29.0163 35.0197 28.6918 35.1457 28.3658 35.173C28.0807 35.1968 27.7058 35.3316 27.593 34.8788C27.4749 34.4041 27.8627 34.4024 28.1469 34.3092Z" fill="#FEB02A"/>
<path d="M33.8841 81.675C30.9993 82.1566 28.123 82.2018 25.2928 81.2218C21.5164 79.9141 17.9472 78.1927 14.8607 75.6325C12.4409 73.6248 10.5656 71.1843 9.9343 67.9993C9.43152 65.4581 10.4346 63.3229 12.3793 61.9092C16.1159 59.195 18.9345 59.1217 23.1383 61.0755C24.6924 61.7979 25.7864 63.0479 26.8306 64.3497C27.2639 64.8893 27.6872 65.4391 28.1371 65.964C29.2335 67.2442 30.6141 68.0045 32.2959 68.2253C33.4384 68.3752 34.5747 68.5714 35.7156 68.7278C38.1615 69.0608 39.7245 70.4971 40.5805 72.7262C40.9913 73.7938 40.9223 74.9713 40.4566 75.981C39.1392 78.8365 37.0668 80.8958 33.8826 81.6753L33.8841 81.675Z" fill="#FEDA57"/>
<path d="M22.3274 65.9037C22.2817 65.6438 21.9255 65.2546 22.4415 65.0294C23.0401 64.7678 23.2622 65.2969 23.4553 65.6766C23.7052 66.1667 23.4324 66.8464 23.0218 66.9477C22.75 67.0149 22.6204 66.8258 22.3274 65.9037Z" fill="#FEB02A"/>
<path d="M15.2776 64.2215C15.3275 64.6566 15.0278 64.953 14.7389 65.2298C14.4855 65.4735 14.2536 65.8281 13.8374 65.7484C13.5832 65.7 13.5564 65.4156 13.5357 65.1963C13.5138 64.9788 14.4303 63.7887 14.6005 63.8089C14.8677 63.8403 15.1493 63.8806 15.2776 64.2215Z" fill="#FEB02A"/>
<path d="M15.8146 69.0354C16.2444 68.9435 16.6664 68.9229 16.9514 69.3057C17.0962 69.5005 17.0052 69.7245 16.8599 69.935C16.5784 70.3415 16.2785 70.3812 15.8165 70.2055C15.458 70.0689 15.066 70.039 15.1059 69.5519C15.1388 69.1467 15.5525 69.1637 15.8142 69.034L15.8146 69.0354Z" fill="#FEB02A"/>
<path d="M20.1893 74.5703C20.1642 75.0741 19.8629 75.5085 19.3512 75.7914C19.0584 75.9532 18.6175 75.5715 18.7215 75.2053C18.83 74.8194 19.0278 74.4512 19.2409 74.1087C19.3204 73.9802 19.5426 73.9124 19.7418 74.0031C19.9551 74.1013 20.157 74.2037 20.1908 74.57L20.1893 74.5703Z" fill="#FEB02A"/>
<path d="M30.3877 76.3506C30.2199 75.6912 30.3923 75.3661 30.98 75.2353C31.218 75.1824 31.4282 75.1885 31.5297 75.4615C31.6867 75.8853 31.3701 76.7206 30.9838 76.8596C30.5091 77.0302 30.4867 76.6396 30.388 76.3521L30.3877 76.3506Z" fill="#FEB02A"/>
<path d="M23.3624 72.2006C23.8657 72.0727 24.5752 72.4653 24.6542 72.8596C24.7197 73.1905 24.6264 73.5032 24.2765 73.6197C24.0227 73.7042 22.9875 72.9986 23.0021 72.7586C23.0183 72.4796 23.1711 72.2549 23.3624 72.2006Z" fill="#FEB02A"/>
<path d="M36.6902 72.0051C36.629 72.3689 36.6854 72.8644 36.2141 73.1084C35.9372 73.2525 35.6799 73.1183 35.5609 72.8232C35.3927 72.4113 35.7454 71.6571 36.1406 71.615C36.3607 71.591 36.5889 71.6671 36.6916 72.0047L36.6902 72.0051Z" fill="#FEB02A"/>
<path d="M29.4308 69.9066C29.8971 69.7921 30.1956 69.9893 30.3055 70.3902C30.418 70.7951 30.4405 71.2258 29.9538 71.4503C29.6246 71.6021 29.3719 71.4219 29.3287 71.1336C29.2671 70.7276 28.895 70.2509 29.4323 69.9062L29.4308 69.9066Z" fill="#FEB02A"/>
<path d="M25.7213 79.4831C25.3064 79.3892 24.876 79.3081 24.7821 78.9684C24.669 78.5605 25.0335 78.3556 25.4119 78.2618C25.7042 78.1898 25.9682 78.2205 26.0491 78.5508C26.1424 78.934 25.9686 79.2332 25.7213 79.4831Z" fill="#FEB02A"/>
<path d="M36.4099 76.5911C36.5089 76.9389 36.3335 77.1595 36.056 77.2218C35.733 77.2948 35.3195 77.4433 35.1594 76.9475C35.0652 76.6527 35.1733 76.3566 35.4747 76.3166C35.7972 76.2746 36.2006 76.195 36.4085 76.5914L36.4099 76.5911Z" fill="#FEB02A"/>
<path d="M18.5348 64.5796C18.2174 64.1117 18.1027 63.6841 18.2159 63.2059C18.6509 63.0508 19.0011 63.2374 19.1197 63.5899C19.2681 64.0296 19.0114 64.3777 18.5348 64.5796Z" fill="#FEB02A"/>
<path d="M76.8082 44.5924C76.127 49.984 73.2178 53.7294 68.3346 56.0659C66.2337 57.0726 64.0075 57.6326 61.816 58.3329C59.4437 59.0603 57.0821 58.9471 54.7288 58.2521C53.0148 57.7436 51.7124 56.685 50.7805 55.1774C50.7201 55.0787 50.6638 54.9775 50.6167 54.8758C50.2859 54.1805 50.2595 53.4384 50.4411 52.6472C51.3387 48.7447 53.669 46.1067 57.3812 44.6539C58.3765 44.2647 59.4003 44.1272 60.4721 44.0494C62.8653 43.8768 64.7191 42.6159 66.1667 40.7595C67.1844 39.4544 68.4079 38.4843 69.973 37.8882C70.5337 37.6757 71.0703 37.571 71.5841 37.5659C72.7887 37.5465 73.8656 38.0614 74.8215 38.9356C76.4578 40.4335 77.083 42.4046 76.8068 44.5927L76.8082 44.5924Z" fill="#FEDA57"/>
<path d="M71.5852 37.5637C71.5836 37.7342 71.5352 37.9095 71.4642 38.087C71.156 38.84 70.6015 39.4005 69.9532 39.8517C69.257 40.3358 69.0727 40.9714 69.1677 41.7748C69.3386 43.2158 69.7611 44.5497 70.4834 45.8238C71.4748 47.571 70.7808 49.6133 68.9868 50.4982C68.7817 50.5991 68.549 50.6416 68.2629 50.7337C67.0215 50.9055 65.8339 50.6689 64.883 49.6976C63.6444 48.4307 62.2022 47.4484 60.7027 46.5244C58.9428 45.4407 57.2173 45.5333 55.4637 46.5108C53.8988 47.3835 52.8972 48.7374 52.1725 50.3215C51.6352 51.4995 51.1817 52.712 50.8823 53.9747C50.8285 54.1992 50.8085 54.4359 50.7267 54.6469C50.6957 54.7253 50.6618 54.8044 50.6181 54.875C50.2873 54.1798 50.2609 53.4376 50.4426 52.6464C51.3401 48.744 53.6705 46.106 57.3826 44.6531C58.378 44.264 59.4017 44.1264 60.4735 44.0487C62.8667 43.8761 64.7206 42.6152 66.1682 40.7588C67.1859 39.4537 68.4093 38.4835 69.9744 37.8875C70.5352 37.675 71.0718 37.5702 71.5855 37.5652L71.5852 37.5637Z" fill="#FCC348"/>
<path d="M53.0581 51.8756C53.1335 52.4779 52.5053 53.4671 52.0234 53.4894C51.6636 53.5045 51.4225 53.3016 51.3819 52.9323C51.3377 52.5345 52.0776 51.5731 52.4652 51.505C52.7857 51.448 52.9906 51.576 53.0585 51.8771L53.0581 51.8756Z" fill="#FEB02A"/>
<path d="M56.5905 53.9721C56.668 54.3141 55.9993 55.5123 55.6774 55.5309C55.3343 55.5515 55.0733 55.3624 54.9832 55.0064C54.922 54.7595 55.576 53.6498 55.8105 53.5822C56.1089 53.4964 56.5295 53.7066 56.589 53.9725L56.5905 53.9721Z" fill="#FEB02A"/>
<path d="M64.282 48.3797C64.1001 48.3885 63.9189 48.3941 63.7807 48.2473C63.5363 47.991 63.6292 47.1511 63.9949 46.8918C64.3237 46.6597 64.7125 46.4985 65.1079 46.8445C65.3283 47.0384 65.2712 47.2359 65.188 47.4534C65.01 47.919 64.6079 48.3323 64.2849 48.379L64.282 48.3797Z" fill="#FEB02A"/>
<path d="M72.4746 47.0558C72.227 47.1141 71.9918 47.0412 71.8148 46.9067C71.534 46.6929 71.8205 46.4321 71.8441 46.1977C71.8642 45.9873 72.0203 45.7774 72.1539 45.5959C72.3882 45.2778 72.6977 45.3116 73.0049 45.4867C73.2856 45.6478 73.3899 45.9001 73.2371 46.1835C73.0506 46.5274 73.0139 47.0215 72.4757 47.054L72.4746 47.0558Z" fill="#FEB02A"/>
<path d="M60.5216 54.5182C60.8878 54.5433 61.3432 54.6385 61.3947 55.0145C61.4684 55.5507 61.0419 55.9651 60.6261 56.2285C60.3138 56.4258 60.0336 56.0697 59.8958 55.813C59.7498 55.5412 60.2445 54.602 60.5216 54.5182Z" fill="#FEB02A"/>
<path d="M69.1427 42.1612C69.1362 41.8318 68.9704 41.3575 69.5669 41.251C69.9823 41.1764 70.2833 41.3776 70.359 41.7974C70.4335 42.219 70.3931 42.6444 69.8928 42.7855C69.4402 42.9122 69.2282 42.6359 69.1427 42.1612Z" fill="#FEB02A"/>
<path d="M67.3461 47.6036C67.8678 47.3044 67.8613 46.522 68.5841 46.794C68.9746 46.9417 69.1068 47.6342 68.8637 47.9806C68.6518 48.2826 68.5346 48.2576 67.3461 47.6036Z" fill="#FEB02A"/>
<path d="M66.9061 53.4547C66.5646 53.5538 66.408 53.3092 66.3005 53.0763C66.1356 52.724 66.4504 52.0715 66.8213 51.9918C67.1054 51.9311 67.3324 52.0415 67.4454 52.3504C67.6491 52.9132 67.2315 53.1554 66.9076 53.4544L66.9061 53.4547Z" fill="#FEB02A"/>
<path d="M58.8306 48.5087C58.8105 48.883 58.6614 49.1687 58.3092 49.2099C57.9856 49.2475 57.66 49.1123 57.599 48.7417C57.5463 48.4263 57.5972 48.071 58.001 48.013C58.3898 47.957 58.6938 48.1312 58.8292 48.5091L58.8306 48.5087Z" fill="#FEB02A"/>
<path d="M70.4792 51.1288C70.4322 50.9032 70.5485 50.7862 70.7509 50.7462C70.9518 50.7066 71.125 50.805 71.1928 50.9746C71.2648 51.1555 71.1923 51.3597 70.9928 51.4252C70.7361 51.5105 70.5537 51.3926 70.4788 51.1273L70.4792 51.1288Z" fill="#FEB02A"/>
</svg>
