<svg width="64" height="64" viewBox="0 0 64 64" fill="none" xmlns="http://www.w3.org/2000/svg">
<g clip-path="url(#clip0_381_427)">
<path d="M14.4345 5.17104C16.3082 4.82867 18.2332 4.88759 20.0824 5.3439C21.9316 5.80021 23.6631 6.64355 25.1624 7.81824C26.8672 9.09665 28.2499 10.7555 29.2004 12.6627C30.1508 14.5699 30.6428 16.6727 30.637 18.8035C30.6312 20.9344 30.1279 23.0345 29.1672 24.9365C28.2064 26.8385 26.8147 28.4899 25.103 29.759C23.3432 31.1307 21.2703 32.044 19.0704 32.4169C16.8706 32.7898 14.6125 32.6107 12.4989 31.8956C12.3964 31.8585 12.2863 31.8476 12.1785 31.8637C12.0707 31.8797 11.9686 31.9224 11.8815 31.9878C11.792 32.0549 11.7207 32.1432 11.6739 32.2447C11.6271 32.3462 11.6062 32.4578 11.6133 32.5694C12.2303 46.2263 24.4788 51.5656 26.928 52.4976C27.3119 52.6433 27.6347 52.9153 27.8434 53.2689C28.052 53.6225 28.134 54.0366 28.0759 54.4431C28.0759 54.4431 27.7634 56.7363 27.7631 56.739C27.7211 57.0091 27.6194 57.2665 27.4655 57.4925C27.3117 57.7184 27.1094 57.9073 26.8733 58.0453C26.6373 58.1833 26.3736 58.267 26.1012 58.2903C25.8288 58.3136 25.5546 58.276 25.2986 58.1801C-2.65169 46.833 -0.654823 26.1977 0.622921 20.1431C1.92694 13.965 6.80546 6.64449 14.4345 5.17104ZM12.216 14.1079C12.42 14.2726 12.6811 14.3496 12.9419 14.322C13.2027 14.2943 13.4418 14.1641 13.6067 13.9602C15.725 11.34 19.3671 12.7015 19.404 12.716C19.5252 12.763 19.6545 12.7856 19.7844 12.7826C19.9144 12.7796 20.0425 12.7509 20.1614 12.6983C20.2802 12.6457 20.3876 12.5702 20.4772 12.476C20.5669 12.3819 20.637 12.271 20.6837 12.1497C20.7304 12.0284 20.7528 11.899 20.7494 11.7691C20.7461 11.6391 20.7171 11.5111 20.6642 11.3924C20.6113 11.2736 20.5355 11.1665 20.4411 11.0771C20.3467 10.9877 20.2356 10.9178 20.1142 10.8714C19.91 10.7927 15.0819 8.99104 12.0685 12.7179C11.9869 12.8188 11.926 12.9349 11.8892 13.0594C11.8525 13.1839 11.8406 13.3144 11.8543 13.4434C11.868 13.5725 11.907 13.6976 11.9691 13.8116C12.0311 13.9256 12.115 14.0263 12.216 14.1079Z" fill="black"/>
<path d="M47.0455 5.17129C48.9192 4.82891 50.8442 4.88783 52.6935 5.34414C54.5427 5.80046 56.2742 6.64379 57.7735 7.81849C59.4783 9.09689 60.861 10.7558 61.8115 12.6629C62.7619 14.5701 63.2539 16.6729 63.2481 18.8038C63.2423 20.9347 62.739 23.0348 61.7782 24.9368C60.8175 26.8388 59.4258 28.4901 57.7141 29.7593C55.9543 31.1309 53.8814 32.0442 51.6815 32.4171C49.4816 32.79 47.2236 32.6109 45.11 31.8959C45.0075 31.8588 44.8974 31.8478 44.7896 31.8639C44.6818 31.88 44.5797 31.9227 44.4925 31.9881C44.4031 32.0552 44.3318 32.1434 44.285 32.245C44.2381 32.3465 44.2173 32.4581 44.2243 32.5696C44.8413 46.2266 57.0899 51.5659 59.5391 52.4978C59.923 52.6435 60.2458 52.9155 60.4544 53.2692C60.6631 53.6228 60.7451 54.0369 60.687 54.4433C60.687 54.4433 60.3745 56.7365 60.3741 56.7392C60.3322 57.0094 60.2305 57.2668 60.0766 57.4927C59.9227 57.7187 59.7204 57.9075 59.4844 58.0455C59.2484 58.1835 58.9846 58.2672 58.7123 58.2905C58.4399 58.3139 58.1657 58.2762 57.9097 58.1803C29.9594 46.8332 31.9562 26.198 33.234 20.1434C34.538 13.9653 39.4165 6.64473 47.0455 5.17129ZM44.8271 14.1081C45.0336 14.2665 45.2931 14.3394 45.552 14.3119C45.8108 14.2844 46.0491 14.1586 46.2178 13.9604C48.3361 11.3402 51.9781 12.7017 52.0151 12.7162C52.1363 12.7632 52.2656 12.7859 52.3955 12.7828C52.5255 12.7798 52.6536 12.7512 52.7725 12.6986C52.8913 12.646 52.9987 12.5704 53.0883 12.4763C53.1779 12.3821 53.2481 12.2712 53.2948 12.1499C53.3415 12.0286 53.3638 11.8992 53.3605 11.7693C53.3571 11.6393 53.3282 11.5113 53.2753 11.3926C53.2224 11.2738 53.1466 11.1667 53.0522 11.0773C52.9578 10.9879 52.8467 10.918 52.7253 10.8716C52.5211 10.7929 47.693 8.99126 44.6796 12.7181C44.598 12.8191 44.5371 12.9351 44.5003 13.0596C44.4635 13.1841 44.4517 13.3146 44.4654 13.4437C44.4791 13.5728 44.5181 13.6979 44.5801 13.8119C44.6422 13.9259 44.7261 14.0265 44.8271 14.1081Z" fill="black"/>
</g>
<defs>
<clipPath id="clip0_381_427">
<rect width="63.2464" height="63.2464" fill="white" transform="matrix(-1 0 0 1 63.2464 0)"/>
</clipPath>
</defs>
</svg>
