<svg width="69" height="61" viewBox="0 0 69 61" fill="none" xmlns="http://www.w3.org/2000/svg">
<path d="M28.4375 35.733C21.7575 35.614 14.5695 35.859 9.20246 39.838C5.10046 42.88 2.68146 47.71 1.23046 52.607C0.993458 53.407 0.810455 54.369 1.36046 54.996C1.61646 55.287 1.98646 55.445 2.34346 55.595C7.20146 57.622 12.2845 59.688 17.5345 59.303C20.9875 59.05 24.2835 57.739 27.3325 56.098C30.6545 54.31 33.8105 52.06 36.0405 49.016C37.8545 46.54 40.0784 41.644 38.8545 38.477C37.6754 35.428 31.0975 35.78 28.4375 35.733Z" fill="#F7F2E2" stroke="#3F9065" stroke-opacity="0.5" stroke-width="2" stroke-miterlimit="10" stroke-linecap="round" stroke-linejoin="round"/>
<path d="M45.3933 14.978C50.1423 8.21803 57.2973 3.185 65.2653 1C67.1673 9.148 66.3873 18.045 62.3303 25.363C59.0453 31.288 53.5183 36.053 47.0383 38.127C44.8203 38.837 40.2633 40.394 39.0543 37.511C37.8803 34.712 39.2683 29.682 39.9663 26.896C41.0343 22.64 42.8693 18.571 45.3933 14.978Z" fill="#F7F2E2" stroke="#3F9065" stroke-opacity="0.5" stroke-width="2" stroke-miterlimit="10" stroke-linecap="round" stroke-linejoin="round"/>
<path d="M25.7096 34.109C21.7816 32.632 18.1586 30.094 15.9286 26.539C12.3816 20.882 12.8176 13.651 13.9176 7.06501C19.2246 6.09401 25.0706 6.82303 29.3156 10.153C31.2176 11.645 32.7216 13.588 34.0156 15.629C37.0196 20.368 39.0186 26.079 38.5476 31.749C38.3256 34.422 38.0756 36.109 35.1686 36.034C32.0036 35.951 28.6646 35.219 25.7096 34.109Z" fill="#F7F2E2" stroke="#3F9065" stroke-opacity="0.5" stroke-width="2" stroke-miterlimit="10" stroke-linecap="round" stroke-linejoin="round"/>
<path d="M40.3274 53.5651C41.7074 55.8991 44.1114 57.4991 46.6824 58.3611C49.2524 59.2241 51.9984 59.4151 54.7094 59.4491C58.8364 59.5011 62.9674 59.2051 67.0454 58.5661C66.6984 52.2811 63.2714 46.2391 58.0564 42.7151C53.4994 39.6361 47.6474 38.5261 42.2724 39.6681C39.2554 40.3091 39.3844 42.3651 39.0604 45.2081C38.7354 48.0461 38.8354 51.0421 40.3274 53.5651Z" fill="#F7F2E2" stroke="#3F9065" stroke-opacity="0.5" stroke-width="2" stroke-miterlimit="10" stroke-linecap="round" stroke-linejoin="round"/>
<path d="M39.7515 38.552C50.4095 27.784 59.0545 15.031 65.1115 1.14404L39.7515 38.552Z" fill="#F7F2E2"/>
<path d="M39.7515 38.552C50.4095 27.784 59.0545 15.031 65.1115 1.14404" stroke="#3F9065" stroke-opacity="0.5" stroke-miterlimit="10" stroke-linecap="round" stroke-linejoin="round"/>
<path d="M40.1294 41.116C41.0684 43.559 42.9104 45.542 44.8654 47.282C50.9694 52.717 58.6174 56.397 66.6734 57.774" fill="#F7F2E2"/>
<path d="M40.1294 41.116C41.0684 43.559 42.9104 45.542 44.8654 47.282C50.9694 52.717 58.6174 56.397 66.6734 57.774" stroke="#3F9065" stroke-opacity="0.5" stroke-miterlimit="10" stroke-linecap="round" stroke-linejoin="round"/>
<path d="M37.5934 35.875C31.6464 26.964 24.8184 18.64 17.2434 11.065C16.1814 10.003 15.0534 8.86397 14.7544 7.39197" fill="#F7F2E2"/>
<path d="M37.5934 35.875C31.6464 26.964 24.8184 18.64 17.2434 11.065C16.1814 10.003 15.0534 8.86397 14.7544 7.39197" stroke="#3F9065" stroke-opacity="0.5" stroke-miterlimit="10" stroke-linecap="round" stroke-linejoin="round"/>
<path d="M2.13843 54.127C14.0344 48.222 26.4074 43.347 38.7644 38.479L2.13843 54.127Z" fill="#F7F2E2"/>
<path d="M2.13843 54.127C14.0344 48.222 26.4074 43.347 38.7644 38.479" stroke="#3F9065" stroke-opacity="0.5" stroke-miterlimit="10" stroke-linecap="round" stroke-linejoin="round"/>
<path d="M47.0845 12.881C47.0765 18.828 46.8435 24.774 46.3835 30.703C50.4735 29.902 54.6705 29.647 58.8275 29.947" fill="#F7F2E2"/>
<path d="M47.0845 12.881C47.0765 18.828 46.8435 24.774 46.3835 30.703C50.4735 29.902 54.6705 29.647 58.8275 29.947" stroke="#3F9065" stroke-opacity="0.5" stroke-miterlimit="10" stroke-linecap="round" stroke-linejoin="round"/>
<path d="M52.3495 7.62305C53.0595 12.697 53.0575 17.871 52.3425 22.945C56.4265 21.854 60.6135 21.1511 64.8295 20.8481" fill="#F7F2E2"/>
<path d="M52.3495 7.62305C53.0595 12.697 53.0575 17.871 52.3425 22.945C56.4265 21.854 60.6135 21.1511 64.8295 20.8481" stroke="#3F9065" stroke-opacity="0.5" stroke-miterlimit="10" stroke-linecap="round" stroke-linejoin="round"/>
<path d="M58.8364 3.13501C59.4614 5.92501 59.8234 8.77402 59.9154 11.632C61.9734 10.804 64.0324 9.97702 66.0904 9.14902" fill="#F7F2E2"/>
<path d="M58.8364 3.13501C59.4614 5.92501 59.8234 8.77402 59.9154 11.632C61.9734 10.804 64.0324 9.97702 66.0904 9.14902" stroke="#3F9065" stroke-opacity="0.5" stroke-miterlimit="10" stroke-linecap="round" stroke-linejoin="round"/>
<path d="M46.1556 57.6851C45.0886 54.2581 44.4906 50.685 44.3826 47.097C49.4976 47.92 54.9666 46.092 58.5586 42.358" fill="#F7F2E2"/>
<path d="M46.1556 57.6851C45.0886 54.2581 44.4906 50.685 44.3826 47.097C49.4976 47.92 54.9666 46.092 58.5586 42.358" stroke="#3F9065" stroke-opacity="0.5" stroke-miterlimit="10" stroke-linecap="round" stroke-linejoin="round"/>
<path d="M52.4286 58.933C51.7386 56.462 51.1116 53.973 50.5496 51.469C52.2246 52.295 54.2416 51.836 55.9716 51.133C58.4646 50.121 60.7636 48.632 62.7086 46.772" fill="#F7F2E2"/>
<path d="M52.4286 58.933C51.7386 56.462 51.1116 53.973 50.5496 51.469C52.2246 52.295 54.2416 51.836 55.9716 51.133C58.4646 50.121 60.7636 48.632 62.7086 46.772" stroke="#3F9065" stroke-opacity="0.5" stroke-miterlimit="10" stroke-linecap="round" stroke-linejoin="round"/>
<path d="M59.2365 59.33C58.8535 58.086 58.4694 56.842 58.0854 55.598C60.8944 55.488 63.6315 54.125 65.4135 51.95" fill="#F7F2E2"/>
<path d="M59.2365 59.33C58.8535 58.086 58.4694 56.842 58.0854 55.598C60.8944 55.488 63.6315 54.125 65.4135 51.95" stroke="#3F9065" stroke-opacity="0.5" stroke-miterlimit="10" stroke-linecap="round" stroke-linejoin="round"/>
<path d="M21.3364 31.347C25.0664 31.756 29.0054 32.052 32.4194 30.495C32.7264 30.355 33.0354 30.194 33.2494 29.934C33.4574 29.681 33.5564 29.359 33.6484 29.045C34.6504 25.638 35.4314 22.166 35.9854 18.657" fill="#F7F2E2"/>
<path d="M21.3364 31.347C25.0664 31.756 29.0054 32.052 32.4194 30.495C32.7264 30.355 33.0354 30.194 33.2494 29.934C33.4574 29.681 33.5564 29.359 33.6484 29.045C34.6504 25.638 35.4314 22.166 35.9854 18.657" stroke="#3F9065" stroke-opacity="0.5" stroke-miterlimit="10" stroke-linecap="round" stroke-linejoin="round"/>
<path d="M15.5754 24.89C19.9964 26.475 24.8674 25.814 29.5144 25.133C30.1774 20.406 30.6434 15.651 30.9094 10.885" fill="#F7F2E2"/>
<path d="M15.5754 24.89C19.9964 26.475 24.8674 25.814 29.5144 25.133C30.1774 20.406 30.6434 15.651 30.9094 10.885" stroke="#3F9065" stroke-opacity="0.5" stroke-miterlimit="10" stroke-linecap="round" stroke-linejoin="round"/>
<path d="M13.5684 16.627C16.6264 16.681 19.6824 16.8351 22.7294 17.0901C23.0654 13.8641 23.1614 10.613 23.0184 7.37305" fill="#F7F2E2"/>
<path d="M13.5684 16.627C16.6264 16.681 19.6824 16.8351 22.7294 17.0901C23.0654 13.8641 23.1614 10.613 23.0184 7.37305" stroke="#3F9065" stroke-opacity="0.5" stroke-miterlimit="10" stroke-linecap="round" stroke-linejoin="round"/>
<path d="M5.35449 45.1021C8.17049 46.3961 11.0825 47.4811 14.0595 48.3441C13.1375 51.6861 12.2155 55.027 11.2935 58.369" fill="#F7F2E2"/>
<path d="M5.35449 45.1021C8.17049 46.3961 11.0825 47.4811 14.0595 48.3441C13.1375 51.6861 12.2155 55.027 11.2935 58.369" stroke="#3F9065" stroke-opacity="0.5" stroke-miterlimit="10" stroke-linecap="round" stroke-linejoin="round"/>
<path d="M12.1216 37.819C15.8386 40.195 19.7276 42.304 23.7476 44.123C21.9406 49.088 20.0036 54.006 17.9396 58.869C18.0026 58.543 18.0666 58.218 18.1296 57.892" fill="#F7F2E2"/>
<path d="M12.1216 37.819C15.8386 40.195 19.7276 42.304 23.7476 44.123C21.9406 49.088 20.0036 54.006 17.9396 58.869C18.0026 58.543 18.0666 58.218 18.1296 57.892" stroke="#3F9065" stroke-opacity="0.5" stroke-miterlimit="10" stroke-linecap="round" stroke-linejoin="round"/>
<path d="M22.3406 36.7261C22.9406 36.8261 23.4976 37.0951 24.0456 37.3611C25.8836 38.2531 27.7486 39.1041 29.5646 40.0401C32.1196 41.3571 31.8556 41.3681 30.8976 44.0431C29.4846 47.9921 28.2516 51.9811 27.3386 56.0771" fill="#F7F2E2"/>
<path d="M22.3406 36.7261C22.9406 36.8261 23.4976 37.0951 24.0456 37.3611C25.8836 38.2531 27.7486 39.1041 29.5646 40.0401C32.1196 41.3571 31.8556 41.3681 30.8976 44.0431C29.4846 47.9921 28.2516 51.9811 27.3386 56.0771" stroke="#3F9065" stroke-opacity="0.5" stroke-miterlimit="10" stroke-linecap="round" stroke-linejoin="round"/>
</svg>
