<svg width="143" height="184" viewBox="0 0 143 184" fill="none" xmlns="http://www.w3.org/2000/svg">
<path d="M59.2244 25.2821C59.3055 25.1983 59.3843 25.1131 59.4654 25.0292C60.4324 24.0206 61.4474 23.0858 62.9135 22.8154C63.3728 22.73 63.3622 22.3882 63.2483 22.0477C62.9464 21.1456 62.5515 20.2834 62.022 19.495C61.7373 19.0723 61.547 18.6148 61.3416 18.1576C60.6873 16.6927 60.8467 15.4108 61.9317 14.154C62.8379 13.1014 63.5945 11.9119 64.3634 10.7474C64.4034 10.6858 64.4448 10.6295 64.4846 10.5812C64.8631 10.1032 65.2066 10.1693 65.6758 10.6273C66.5112 11.4468 67.4718 12.1291 68.1832 13.0834C68.7583 13.8521 69.5022 14.4494 70.3409 14.9158C71.2325 15.4113 71.7393 16.1569 71.9592 17.1393C72.5138 19.6027 73.8169 21.7883 74.6013 24.1675C74.7488 24.6195 74.9609 24.7999 75.2437 24.7448C75.3823 24.7209 75.5372 24.638 75.711 24.5067C77.0981 23.4495 78.6748 22.7483 80.277 22.1006C80.4856 22.0145 80.6986 21.9311 80.9118 21.8552C81.2241 21.7414 81.5415 21.6469 81.8626 21.5872C82.8101 21.4124 83.1821 21.6479 83.4651 22.606C84.5594 26.3032 85.3382 30.0813 85.8884 33.8847C86.5031 38.1399 87.528 42.302 88.3753 46.5043C88.4822 47.0368 88.6318 47.539 88.9202 47.9476C89.1774 48.31 89.5432 48.5999 90.0844 48.7713C91.9027 49.3443 92.8744 50.5321 92.6055 52.5438C92.5648 52.8485 92.6017 53.2114 92.8785 53.5064C93.4014 53.1384 93.3519 52.5321 93.4726 52.0196C94.0259 49.6849 94.5765 47.3472 95.0753 44.999C95.2205 44.3179 95.4737 43.9488 96.2061 43.7864C97.7939 43.4363 99.3818 43.1916 101.005 43.1859C101.763 43.1824 102.22 43.4518 102.429 44.2734C102.924 46.2198 103.355 48.1888 104.11 50.062C104.301 50.5362 104.192 51.0512 104.144 51.5554C103.693 56.4991 103.491 61.4665 102.816 66.3893C102.756 66.8253 102.674 67.2636 102.999 68.0333C103.328 66.7323 103.6 65.7425 103.829 64.7449C104.905 60.0669 105.945 55.3798 107.638 50.8679C108.214 49.335 108.348 49.2146 109.952 49.6999C110.645 49.9097 111.341 50.1376 112.003 50.4234C113.266 50.9643 114.242 51.6124 114.359 53.2854C114.465 54.8182 115.076 56.3209 115.52 57.8199C115.615 58.1426 115.679 58.4552 115.698 58.7664C115.725 59.2129 115.662 59.6534 115.475 60.1049C115.414 60.2511 115.362 60.4007 115.314 60.5546C115.193 60.9374 115.093 61.3313 114.908 61.6804C114.795 61.8972 114.682 62.1139 114.575 62.3346C113.286 64.9247 112.385 67.6707 111.531 70.4194C110.965 72.2394 110.488 74.0905 110.058 75.9513C109.873 76.7562 109.697 77.5622 109.525 78.369C108.691 82.3118 108.297 86.3024 108.761 90.3341C109.305 95.0471 110.089 99.7106 111.904 104.136C112.378 105.295 112.281 106.554 112.598 107.737C113.003 109.248 113.395 110.762 113.849 112.258C114.118 113.152 114.082 113.979 113.828 114.878C113.611 115.646 113.27 116.165 112.534 116.482C109.712 117.7 107.207 119.499 104.467 120.881C101.113 122.571 97.6653 123.969 94.0612 124.941C90.773 125.825 87.5376 126.886 84.2948 127.898C81.2578 128.85 78.1942 129.68 75.1302 130.516C71.735 131.445 68.2448 131.787 64.7471 132.072C63.5477 132.171 62.7105 131.612 61.9242 130.878C59.1839 128.318 56.8434 125.396 54.4012 122.564C51.2339 118.889 48.3438 114.984 45.1169 111.354C43.9363 110.026 42.876 108.585 41.6814 107.261C35.2887 100.18 28.6236 93.3461 22.3629 86.1388C19.9886 83.406 17.2834 80.9708 14.4451 78.6994C13.4137 77.8723 13.53 77.9127 14.0886 76.6519C14.5022 75.7219 15.0393 74.9923 15.7109 74.4414C16.4942 73.7946 17.4595 73.391 18.6166 73.1902C19.7609 72.9909 20.8718 72.5896 21.9549 72.113C23.1156 71.6023 23.4986 71.7596 24.2669 72.7081C28.6553 78.1291 33.3678 83.2767 37.8498 88.6179C39.6432 90.7569 41.384 92.9382 43.1465 95.1024C43.5614 95.6108 43.9703 96.1246 44.5926 96.5002C44.0272 95.2619 43.4689 94.0217 42.9031 92.7816C42.5307 91.968 42.1584 91.1545 41.7776 90.3451C37.2292 80.6301 31.5753 71.5408 26.0154 62.3943C24.0178 59.1067 21.9669 55.8522 20.0924 52.4902C19.4946 51.4188 19.503 50.5578 20.1793 49.5536C20.8931 48.4924 21.4399 47.3214 22.1139 46.2312C22.2866 45.9552 22.4273 45.7423 22.5612 45.5953C22.941 45.1715 23.2479 45.2626 23.9383 45.829C25.2112 46.8758 26.5238 47.1361 28.1368 46.8376C30.0168 46.4883 30.0535 46.5971 30.8741 48.4017C32.7148 52.4601 34.5337 56.5282 36.3762 60.5861C36.6341 61.1554 36.837 61.779 37.2825 62.2396C37.5019 62.0886 37.5939 61.9471 37.6207 61.8082C37.6537 61.6223 37.5647 61.4446 37.5009 61.2696C37.2414 60.5614 36.982 59.8532 36.7173 59.1464C35.4679 55.7769 34.194 52.414 33.0547 49.0056C32.0643 46.047 30.9306 43.1306 30.1775 40.0952C29.9504 39.1843 30.0064 38.3671 30.4615 37.5144C31.1982 36.1382 31.807 34.6926 32.5227 33.3012C32.8607 32.6438 33.0529 32.3984 33.4172 32.4156C33.6384 32.426 33.923 32.5324 34.338 32.7037C36.0371 33.401 37.6893 34.2539 39.5773 34.3562C40.7221 34.4186 41.1916 35.2853 41.5532 36.1639C41.7667 36.6867 41.9516 37.2152 42.2988 37.6815C42.4613 37.9016 42.6594 38.1066 42.9122 38.2912C42.7117 37.5427 42.582 36.7639 42.296 36.0477C41.5484 34.1784 41.3233 32.1502 40.4567 30.3147C40.0279 29.4033 40.2805 28.8912 41.2776 28.7539C42.7581 28.5512 44.2433 28.2399 45.74 28.2663C46.2419 28.2768 46.7457 28.3226 47.25 28.4267C48.6801 28.7177 49.7583 29.3609 50.3438 30.8857C51.0803 32.8051 51.8279 34.7233 52.5272 36.6583C53.7572 40.0612 55.1561 43.4056 56.2576 46.8486C57.719 51.4173 59.5539 55.8333 61.2893 60.2928C62.136 62.4689 62.9556 64.656 63.8879 66.8072C64.2382 67.6154 64.6033 68.4158 64.9935 69.2114C64.6239 67.8322 64.3788 66.4045 63.8515 65.0901C63.3262 63.7902 62.9695 62.4451 62.5167 61.1277C61.2854 57.5444 60.2698 53.8807 58.9114 50.3502C56.9662 45.2972 55.5173 40.0867 53.7714 34.9765C52.6019 31.5537 50.9568 28.3167 49.2934 25.0958C48.2964 23.1672 47.3589 21.2075 46.2106 19.3608C45.7739 18.6586 45.7387 18.0918 46.4176 17.4485C47.1094 16.7905 47.7973 16.1316 48.5067 15.4971C49.3756 14.72 50.2757 13.9817 51.2559 13.3386C52.3369 12.629 52.5195 12.6498 53.2973 13.641C53.649 14.0891 53.8311 14.6071 54.0266 15.1329C55.2746 18.5253 57.037 21.7083 58.1242 25.1683C58.3685 25.9465 58.7986 25.7314 59.2188 25.2893L59.2244 25.2821Z" fill="#FEDA57"/>
<path d="M47.1836 30.4609C49.8297 35.311 51.3343 40.5819 52.7174 45.8703C54.1051 51.1687 56.3699 56.0438 59.1387 60.7123C60.0886 62.3108 60.8849 63.975 61.4055 65.7281C62.7709 70.3319 64.8463 74.6759 66.2731 79.2558C66.391 79.6328 66.5103 80.1131 67.247 80.1567C67.2181 78.882 66.6212 77.8631 66.2543 76.8032C65.5022 74.6357 64.6978 72.4351 64.4527 70.192C64.3252 69.0417 64.1387 67.9165 63.8941 66.807C62.9613 64.654 62.1417 62.4669 61.2955 60.2926C59.5601 55.833 57.7252 51.4171 56.2638 46.8484C55.1628 43.4072 53.7634 40.061 52.5333 36.6581C51.8341 34.7231 51.087 32.8066 50.35 30.8855C49.7644 29.3607 48.6868 28.7192 47.2562 28.4264C46.7519 28.3224 46.2481 28.2766 45.7462 28.2661C46.2781 28.9578 46.7598 29.6875 47.1823 30.4631L47.1836 30.4609ZM33.4737 32.5187C35.1251 35.9197 36.0615 39.6254 38.181 42.8408C39.8691 45.4016 40.7331 48.4016 41.9366 51.2203C43.8626 55.7304 46.1201 60.0934 48.0775 64.58C50.4088 69.9213 53.7398 74.6218 56.7802 79.5169C58.1368 81.7051 59.8031 83.6578 61.5292 85.5455C65.5186 89.9058 69.1899 94.534 73.0748 98.9825C74.0475 100.097 73.9299 100.663 72.5956 101.235C71.6291 101.649 70.6415 102.032 69.4929 102.033C67.1731 103.249 65.7401 102.21 64.2482 100.24C60.0479 94.6917 55.6113 89.3233 51.1152 84.0065C49.6796 82.3103 48.4049 80.4767 47.1038 78.671C45.9951 77.1339 44.9138 75.5724 43.5959 74.21C41.5128 72.0583 40.565 69.301 39.5072 66.6184C38.8727 65.0164 38.2157 63.4222 37.6237 61.8031C37.5987 61.9416 37.5049 62.0835 37.2855 62.2346C36.84 61.7739 36.6389 61.1499 36.3792 60.5811C34.5367 56.5231 32.7178 52.4551 30.8771 48.3967C30.0565 46.5921 30.0198 46.4833 28.1399 46.8326C26.5256 47.1333 25.2129 46.873 23.9413 45.824C23.2509 45.2576 22.9436 45.1647 22.5642 45.5903C24.6139 48.0881 25.9426 51.037 27.6617 53.742C27.9903 54.2585 28.2261 54.8431 28.596 55.324C31.702 59.3749 33.7582 64.0403 36.3119 68.4124C36.7462 69.1548 37.0937 69.7698 36.3278 70.6435C35.5615 71.5155 36.0594 72.6005 36.6193 73.4391C37.8872 75.3385 39.1157 77.288 40.6012 79.0085C44.0254 82.9817 47.1743 87.1641 50.4129 91.2811C52.7918 94.3046 55.6534 96.9087 57.9588 100.003C59.4521 102.006 60.9109 104.027 62.4266 106.261C60.6815 107.071 59.0086 107.273 57.3709 107.55C56.4879 107.698 55.669 107.439 54.9535 106.716C51.156 102.875 47.1543 99.22 44.2297 94.6026C43.8254 93.9652 43.3793 93.3616 42.9071 92.7801C43.4724 94.0184 44.0307 95.2586 44.5965 96.4987C43.9742 96.123 43.5654 95.6093 43.1504 95.1009C41.3861 92.9372 39.6472 90.7554 37.8537 88.6164C33.3718 83.2752 28.658 78.1298 24.2708 72.7066C23.5008 71.7585 23.1196 71.6008 21.9589 72.1114C20.8757 72.5881 19.7666 72.9889 18.6205 73.1886C17.4634 73.3894 16.4982 73.7931 15.7148 74.4399C17.7803 75.8864 19.6774 77.5268 21.2866 79.491C21.4965 79.7474 21.77 79.9528 22.023 80.1731C25.0248 82.7736 27.7144 85.6705 30.2504 88.7254C31.9582 90.7837 33.5544 93.0018 35.6754 94.6274C39.4208 97.4938 42.6216 100.907 45.9167 104.237C47.9883 106.332 49.9158 108.57 52.1206 110.537C52.4373 110.819 52.7333 110.947 53.1473 110.981C54.9718 111.134 56.7659 111.505 58.5965 111.681C61.3579 111.95 63.9396 111.451 66.3949 110.367C67.7001 109.791 69.0108 109.44 70.3902 109.233C70.9403 109.149 71.5065 109.126 72.0361 108.972C75.1375 108.079 78.3352 107.531 81.3271 106.236C84.8919 104.69 88.6952 103.71 91.9979 101.537C95.7572 99.0647 99.9378 97.2514 103.329 94.2015C103.968 93.6272 104.633 93.1272 104.779 92.2387C105.25 89.3517 106.338 86.6516 107.291 83.9162C108.217 81.2633 108.78 78.5023 110.058 75.9507C110.072 75.9245 110.086 75.8982 110.099 75.8702C111.025 74.046 111.645 72.0341 112.171 70.0441C112.859 67.4323 113.598 64.8443 114.577 62.3318C114.807 61.7353 115.053 61.1422 115.317 60.5535C115.366 60.4424 115.415 60.3295 115.466 60.2196C115.826 59.4321 115.95 59.0374 115.701 58.7671C115.524 58.5733 115.152 58.4414 114.54 58.2739C113.126 57.8882 112.119 56.9398 111.044 56.0581C110.651 55.7343 110.638 54.8714 109.873 55.1009C109.259 55.2842 109.198 55.9484 109.021 56.4628C108.877 56.8817 108.77 57.323 108.722 57.7633C108.35 61.1962 107.715 64.5903 107.2 68.0014C106.922 69.8403 106.129 71.5272 105.775 73.3321C104.689 78.8659 103.054 84.2606 101.679 89.7211C101.628 89.9174 101.579 90.115 101.526 90.3118C101.1 90.1756 101.287 89.8318 101.271 89.5555C101.169 88.2193 101.072 86.88 101.22 85.5485C101.757 80.6779 101.888 75.7616 102.818 70.9325C102.963 70.1685 102.967 69.3879 102.873 68.6015C102.747 67.5503 102.658 66.4915 102.623 65.4349C102.486 61.1912 102.782 56.9671 103.32 52.7628C103.453 51.7214 103.245 50.7753 103.045 49.7987C102.905 49.1149 102.48 48.8675 101.822 49.0153C100.954 49.2104 100.104 49.4908 99.1904 49.44C98.7028 49.4124 98.5124 49.7911 98.4691 50.2057C98.4174 50.7016 98.4184 51.2042 98.4052 51.703C98.3011 55.7704 98.6377 59.8307 98.5725 63.9027C98.5198 67.1992 98.3079 70.4705 97.8499 73.7231C97.1669 78.582 96.6834 83.461 96.2639 88.3473C96.1419 89.7547 95.9798 91.1597 95.3476 92.7641C95.1955 92.1965 95.1214 91.9339 95.0538 91.6677C94.2463 88.3587 93.8509 84.9714 93.2223 81.6277C91.975 74.9979 90.8501 68.3466 89.9406 61.6564C89.4683 58.1785 88.9886 54.6876 88.1158 51.2756C87.3092 48.1246 87.1628 48.0565 84.0367 48.977C82.698 49.3715 82.5224 49.6859 82.8228 51.0178C83.3727 53.4636 84.2918 55.8256 84.4637 58.3576C84.516 59.1364 84.5616 59.932 84.7552 60.6824C85.9378 65.2298 86.4898 69.8972 87.3196 74.5052C88.6031 81.6356 89.6953 88.8042 90.5243 96.0093C90.6722 97.2992 90.2144 98.177 89.3797 98.9487C88.8557 99.4318 88.2351 99.8637 87.516 100.026C86.3819 100.285 85.0856 101.203 84.1552 100.612C83.1423 99.9665 82.7147 98.4409 82.6035 97.2108C82.2463 93.3123 80.9889 89.5966 80.6023 85.6871C80.0261 79.868 79.0042 74.0931 78.4644 68.2624C78.3441 66.9839 78.2164 65.7131 77.9952 64.4448C77.1934 59.8292 76.4674 55.2009 75.6406 50.5902C75.2263 48.2851 74.7073 45.9967 74.1431 43.7224C73.7974 42.3198 73.2282 42.1069 71.9406 42.7062C71.4883 42.9159 71.0916 43.2839 70.6225 43.4096C69.7194 43.6516 69.5228 44.2673 69.589 45.0556C69.6318 45.5526 69.7029 46.0571 69.846 46.5347C70.8646 49.9566 71.5058 53.4815 72.6057 56.8835C73.7619 60.4605 74.1334 64.2083 74.7428 67.8811C75.6374 73.2721 76.5558 78.6605 77.6066 84.0228C78.2841 87.4721 79.1181 90.8869 79.1927 94.4262C79.2255 95.9823 79.4834 97.5422 79.1649 99.0945C78.9813 99.9836 78.7021 100.073 77.8974 99.6563C77.5052 99.4507 77.3724 99.1379 77.2315 98.7595C76.5463 96.9262 75.999 95.0522 75.6572 93.1231C74.5627 86.9721 74.1821 80.7165 72.9494 74.5837C72.6191 72.9434 72.357 71.2905 72.0092 69.655C71.898 69.1349 71.5995 68.2808 71.0215 68.5694C69.756 69.2022 68.2748 69.8025 67.8472 71.3483C67.3432 73.1782 66.9393 75.1075 67.4211 76.9689C68.4468 80.9162 68.7799 85.0132 70.0781 88.895C70.2054 89.2789 70.2911 89.676 70.3956 90.066C70.0267 89.9332 69.8225 89.7544 69.6872 89.5308C68.022 86.753 66.0231 84.1983 64.3196 81.4533C60.504 75.3027 56.8141 69.0731 53.0321 62.9003C52.2476 61.6171 51.3304 60.4148 50.9699 58.9219C50.4686 56.8473 49.589 54.9136 48.7129 52.9864C47.609 50.5535 46.3259 48.1968 45.283 45.7381C44.1615 43.0989 43.2711 40.3733 42.3053 37.6755C41.9582 37.2093 41.775 36.6802 41.5597 36.1579C41.1976 35.2775 40.7286 34.4126 39.5838 34.3503C37.6958 34.2479 36.0436 33.395 34.3446 32.6977C33.9278 32.5269 33.645 32.4201 33.4237 32.4097C33.4406 32.4447 33.4576 32.4797 33.4754 32.5182L33.4737 32.5187Z" fill="#FCC348"/>
<path d="M81.8631 21.5869C82.8106 21.4121 83.1825 21.6476 83.4656 22.6056C84.5599 26.3029 85.3386 30.081 85.8889 33.8844C86.5036 38.1395 87.5285 42.3017 88.3757 46.5039C88.4826 47.0365 88.6323 47.5387 88.9207 47.9473C88.819 47.9896 88.7018 48.0229 88.5728 48.0405C87.3228 48.2248 85.9467 47.2358 86.0071 46.0558C86.1157 43.959 85.6427 41.9407 85.1808 39.9497C84.2426 35.9281 83.4257 31.8816 82.3842 27.8821C81.8639 25.8841 81.4265 23.8582 80.9153 21.8521C81.2276 21.7383 81.545 21.6439 81.8661 21.5842L81.8631 21.5869Z" fill="#FCC348"/>
<path d="M65.6745 10.6294C66.5099 11.4488 67.4705 12.1311 68.1819 13.0855C68.757 13.8542 69.5008 14.4514 70.3395 14.9178C71.2312 15.4133 71.738 16.1589 71.9579 17.1414C72.5125 19.6048 73.8156 21.7903 74.6 24.1695C74.7475 24.6215 74.9596 24.8019 75.2424 24.7469C75.3751 25.1294 75.5047 25.5147 75.6255 25.9022C76.5611 28.8812 77.5144 31.8554 78.5088 34.8148C78.9325 36.0798 79.4822 37.3016 79.9682 38.5461C80.1089 38.9095 80.2329 39.2812 80.3495 39.653C80.4893 40.0976 80.5537 40.5417 80.1068 40.8629C79.7349 41.1264 79.3529 41.0009 79.0007 40.8109C78.2429 40.4076 77.5255 40.0707 76.6467 40.5999C76.1749 40.8845 75.965 40.3683 75.8361 40.0205C75.4112 38.8708 75.0113 37.7086 74.6242 36.545C73.5444 33.3165 72.2166 30.1884 70.7675 27.1135C70.0025 25.4956 69.3375 23.8358 68.8625 22.1195C67.8155 18.3455 66.1845 14.7958 64.7859 11.1575C64.7071 10.9545 64.6063 10.7612 64.4841 10.5793C64.8626 10.1012 65.2061 10.1674 65.6753 10.6254L65.6745 10.6294Z" fill="#FCC348"/>
<path d="M53.3036 13.6356C53.6553 14.0837 53.8374 14.6017 54.0329 15.1275C55.2809 18.5199 57.0433 21.7029 58.1305 25.1629C58.3748 25.9411 58.8049 25.7261 59.2251 25.2839C59.3062 25.2001 59.385 25.1149 59.4661 25.031C59.8278 25.7062 59.755 26.1513 59.0201 26.4518C58.3225 26.7367 57.8565 27.289 57.3634 27.8242C56.3446 28.9276 55.8273 28.8948 55.1756 27.5027C53.8078 24.5698 52.1751 21.7796 50.6149 18.951C49.9637 17.7715 49.2355 16.6352 48.5152 15.493C49.3841 14.7159 50.2842 13.9776 51.2644 13.3345C52.3454 12.6249 52.528 12.6457 53.3058 13.6369L53.3036 13.6356Z" fill="#FCC348"/>
<path d="M74.0473 105.212C72.7832 103.383 71.3311 102.096 69.9389 100.752C67.1714 98.0772 63.9775 95.8352 61.5217 92.8549C57.4025 87.8553 53.1189 83.0013 48.8301 78.1488C48.4999 77.774 48.2602 77.3222 47.9405 76.9371C47.3573 76.2365 47.4098 75.4767 47.7552 74.7345C48.6999 72.7149 49.624 70.682 50.6738 68.7172C51.6692 66.8517 52.7393 66.8041 53.8558 68.5463C56.75 73.0644 60.0372 77.2852 63.449 81.416C64.2634 82.4031 64.9572 83.4883 65.7133 84.5248C65.9034 84.7846 66.0405 85.1207 66.5197 85.1449C66.1454 82.3846 65.6605 79.654 65.4355 76.9027C65.2527 74.6674 64.3718 72.5815 64.2818 70.3269C64.2454 69.4252 64.4173 68.9912 65.2643 68.7228C66.7123 68.2652 68.2097 68.1257 69.6961 67.9101C70.1112 67.8497 70.4629 68.0379 70.8045 68.2232C71.5326 68.6213 71.6557 69.2494 71.1189 69.8603C70.7751 70.2499 70.3145 70.4637 69.8082 70.556C68.58 70.7797 68.1562 71.6578 68.1577 72.7459C68.1608 75.084 68.2544 77.4223 68.56 79.7433C68.925 82.5042 69.3191 85.261 70.0348 87.96C70.12 88.278 70.1315 88.6233 70.1283 88.9556C70.119 90.137 70.6084 91.0567 71.3793 91.9518C74.6564 95.7553 77.6254 99.8146 80.9095 103.616C82.0754 104.967 81.7934 105.931 80.245 106.871C79.1195 107.555 77.8783 107.506 76.6694 107.436C75.3515 107.36 74.1917 107.586 72.9665 108.144C71.3534 108.877 69.5686 108.696 67.879 108.217C66.2013 107.74 64.5501 107.39 62.8002 107.866C61.7891 108.141 60.9353 107.646 60.2316 106.967C58.7882 105.572 57.3016 104.206 55.9808 102.699C55.0235 101.607 54.0009 100.595 52.9912 99.5605C51.0825 97.6031 49.2003 95.6178 47.3369 93.6181C42.6938 88.6383 38.0545 83.6518 33.4353 78.6487C31.772 76.8477 31.7961 76.523 33.3757 74.5819C33.6918 74.1941 33.9899 73.7884 34.313 73.4061C35.228 72.323 35.8941 72.2292 37.0253 73.1408C38.2907 74.1595 39.3404 75.3923 40.3418 76.67C43.7489 81.015 47.0041 85.4816 50.6981 89.5971C53.1978 92.3829 55.947 94.9192 58.583 97.5669C61.0178 100.012 63.614 102.315 65.6779 105.112C65.9199 105.439 66.2613 105.665 66.6463 105.732C69.0902 106.145 71.4591 105.695 74.0433 105.211L74.0473 105.212Z" fill="#FEE175"/>
<path d="M84.4712 97.8855C84.3182 97.919 83.9944 98.0246 83.663 98.0531C82.6015 98.1398 81.9948 97.6113 81.8475 96.5416C81.1613 91.5279 80.9266 86.4704 80.3731 81.4456C80.117 79.1263 79.7418 76.8126 79.2991 74.5208C78.5384 70.5854 77.7248 66.6566 76.9611 62.7239C76.1041 58.3096 75.2433 53.8812 74.9366 49.3703C74.8541 48.1627 74.3763 46.9838 74.0831 45.7912C73.9637 45.3035 73.798 44.8187 73.7499 44.3231C73.653 43.3359 73.983 42.9933 74.9679 43.0213C77.4767 43.0929 79.4813 44.1225 80.936 46.1922C81.3438 46.7722 81.4536 47.4 81.4005 48.094C81.1424 51.4531 81.6717 54.75 82.158 58.0546C82.6029 61.0785 82.9699 64.1137 83.3439 67.1471C83.5074 68.4743 83.8723 69.7588 84.0517 71.0892C84.4535 74.0643 85.1184 77.0028 85.6205 79.9661C86.1035 82.8158 86.4858 85.6832 86.9723 88.5321C87.2719 90.2898 87.5561 92.046 87.6249 93.8278C87.7082 96.0013 86.6959 97.3328 84.4677 97.8865L84.4712 97.8855Z" fill="#FEE175"/>
<path d="M56.4773 30.8273C55.9559 29.8936 56.3644 28.9442 57.3425 28.0475C58.1621 27.2969 58.8594 26.4132 59.6134 25.5935C59.8772 25.3062 60.1235 24.9955 60.4244 24.7548C61.33 24.0301 61.9521 24.1872 62.274 25.3043C62.7048 26.8065 63.231 28.2644 63.8018 29.7197C65.4444 33.9103 67.0077 38.1353 68.5601 42.3614C69.1922 44.0809 69.4568 45.9402 70.5693 47.4707C71.4048 51.678 73.6859 55.4471 74.2895 59.724C74.6782 62.4747 75.2461 65.2057 75.3846 67.9858C75.4183 68.6736 75.7739 69.7477 74.6841 69.9607C73.6211 70.1683 73.5568 69.0217 73.2734 68.4065C72.8108 67.4043 72.3982 66.3492 72.0751 65.2983C71.2508 62.6153 69.8328 60.2119 68.7367 57.6602C66.5173 52.4979 63.6247 47.6555 61.4707 42.4701C60.0842 39.1299 58.5528 35.8605 57.0542 32.5729C56.8476 32.1179 56.7369 31.6203 56.4773 30.8273Z" fill="#FEE175"/>
<path d="M99.7269 49.7125C99.9401 50.4802 99.9444 51.2831 99.822 52.0353C98.7228 58.7703 98.8073 65.5799 98.4118 72.3617C98.2424 75.2507 97.778 78.1208 97.4474 80.9984C97.4338 81.1094 97.4242 81.2212 97.3969 81.3302C97.2637 81.8593 97.2476 82.551 96.4552 82.4545C95.7894 82.373 95.8379 81.7461 95.8122 81.2633C95.6173 77.6546 95.4688 74.0429 95.2497 70.4351C95.0054 66.382 94.6727 62.3357 94.4381 58.2838C94.2121 54.3972 94.0584 50.5063 93.8845 46.6171C93.8518 45.8838 93.9297 45.1624 94.4257 44.5606C94.9857 43.8814 96.0369 43.7635 96.4299 44.5132C97.3174 46.2019 98.6016 47.6073 99.5483 49.2425C99.6314 49.384 99.666 49.5555 99.7234 49.7134L99.7269 49.7125Z" fill="#FEE175"/>
<path d="M110.029 53.0139C110.087 53.23 110.123 53.454 110.206 53.6595C110.718 54.9102 110.505 56.0182 110.004 57.2974C108.82 60.3151 108.263 63.5283 107.811 66.734C107.25 70.726 106.365 74.6278 105.04 78.4328C104.818 79.0724 104.536 79.6732 104.171 80.2362C103.974 80.5413 103.684 80.7095 103.317 80.5987C102.885 80.4696 102.688 80.1478 102.735 79.7058C102.776 79.3181 102.844 78.9309 102.922 78.5483C104.027 73.0791 105.095 67.603 106.535 62.2041C107.384 59.0239 107.966 55.7794 107.883 52.4552C107.869 51.9034 107.955 51.3438 108.034 50.7953C108.087 50.4309 108.338 50.2034 108.716 50.1661C109.135 50.1256 109.314 50.4147 109.41 50.7506C109.624 51.5028 109.818 52.2607 110.02 53.0162C110.022 53.0158 110.026 53.0148 110.027 53.0144L110.029 53.0139Z" fill="#FEE175"/>
<path d="M112.057 77.34C112.164 77.5337 112.265 77.7403 112.323 77.9524C113.236 81.346 114.652 84.5993 115.228 88.0816C115.767 91.3399 116.664 94.5101 117.436 97.7098C117.869 99.5014 118.312 101.288 118.888 103.042C119.781 105.757 120.161 108.593 120.732 111.38C121.498 115.109 122.56 118.751 123.574 122.407C124.947 127.357 126.402 132.286 127.878 137.206C128.535 139.392 129.305 141.547 130.091 143.692C130.309 144.287 130.231 144.688 129.919 145.217C129.606 145.747 129.257 146.219 128.85 146.673C124.89 151.089 121.127 155.668 117.425 160.301C116.876 160.988 116.49 161.811 116.082 162.6C115.746 163.251 115.25 163.642 114.543 163.743C114.485 163.751 114.427 163.761 114.369 163.769C111.555 164.173 108.752 164.707 105.884 164.417C105.609 164.389 105.323 164.406 105.049 164.443C101.701 164.888 98.3208 164.999 94.9849 165.545C91.8982 166.05 88.7792 166.343 85.7238 167.036C83.9326 167.442 82.2121 168.092 80.3576 168.304C79.3055 168.426 78.703 168.152 78.1598 167.334C76.9206 165.464 75.6841 163.591 74.3704 161.773C71.7502 158.144 69.088 154.541 66.4251 150.942C62.5878 145.758 59.017 140.394 55.6535 134.891C52.4263 129.615 48.9379 124.502 45.2836 119.523C42.9557 116.352 40.8491 113.037 38.5261 109.871C38.2976 109.559 38.0413 109.249 37.8951 108.901C37.5999 108.193 37.9308 107.663 38.692 107.644C39.4083 107.625 40.1404 107.631 40.8415 107.759C41.6793 107.913 42.1232 107.679 42.2389 106.818C42.2745 106.55 42.4902 106.308 42.5294 106.039C42.6654 105.127 43.2528 105.162 43.8807 105.397C44.3456 105.572 44.7764 105.844 45.2121 106.093C45.7842 106.421 46.2669 106.445 46.5813 105.756C46.6034 105.705 46.634 105.657 46.6694 105.614C48.7742 103.018 48.5216 103.375 51.0153 104.494C51.4498 104.197 51.6025 103.699 51.8198 103.266C52.2385 102.425 52.8502 102.15 53.7358 102.44C53.9444 102.508 54.1783 102.509 54.377 102.597C55.3131 103.006 55.9504 102.833 56.4933 101.872C57.0645 100.862 57.4812 100.822 58.7559 101.187C59.6525 101.445 60.3478 101.198 60.842 100.447C61.8445 98.9242 62.2097 98.8396 64.1625 99.6685C64.3803 99.6873 64.435 99.5051 64.5073 99.3671C65.6997 97.1192 65.8841 97.147 67.8046 98.0523C68.5589 98.4076 69.0868 98.1286 69.4568 97.4363C69.5886 97.1901 69.7248 96.9464 69.8739 96.7087C70.5104 95.6964 70.7493 95.6041 71.9337 95.9271C72.3624 96.0438 72.7789 96.1997 73.2075 96.3164C73.8498 96.4927 74.526 96.8238 75.1539 96.6367C75.7777 96.4488 75.778 95.6767 76.0256 95.132C76.4525 94.2022 77.1517 93.9791 78.0591 94.4139C78.407 94.5805 78.7033 94.857 78.9837 95.0531C79.874 94.5735 79.8971 93.4581 80.7028 93.0633C80.7807 93.0236 80.8679 92.9908 80.9633 92.9671C81.984 92.7144 82.5527 93.6561 83.5123 93.8566C83.8591 93.0706 84.0526 92.2467 84.2391 91.3964C84.4821 90.2861 84.8482 90.1484 86.0159 90.5003C87.4036 90.9213 87.783 90.7349 88.4193 89.3215C89.0365 87.949 89.0361 87.9547 90.5989 88.2347C91.2415 88.3487 91.8442 88.3492 91.9851 87.4904C92.0115 87.3289 92.0984 87.1756 92.1731 87.0257C92.8157 85.7481 93.3615 85.5359 94.7195 86.0289C96.0776 86.5219 96.5744 86.3661 97.2556 85.338C97.7105 84.6531 97.8295 83.6213 98.6467 83.3326C99.3585 83.0797 100.057 83.8229 100.75 83.9158C101.091 83.6701 101.052 83.368 101.133 83.109C101.601 81.6596 102.074 81.4085 103.608 81.7397C104.148 81.8585 104.691 81.9597 105.173 82.0566C105.737 81.8001 105.431 81.3282 105.561 80.9902C105.928 80.02 106.05 79.9138 107.141 80.2674C107.719 80.4536 108.046 80.494 108.222 79.7594C108.364 79.164 110.254 77.377 110.71 77.0419C111.324 76.593 111.72 76.743 112.049 77.3442L112.057 77.34Z" fill="#BD2323"/>
<path d="M112.057 77.3401C112.164 77.5338 112.264 77.7404 112.323 77.9525C113.236 81.3461 114.652 84.5994 115.227 88.0817C115.767 91.34 116.664 94.5102 117.436 97.7098C117.869 99.5015 118.312 101.289 118.888 103.042C119.781 105.757 120.16 108.593 120.732 111.38C121.498 115.109 122.56 118.751 123.574 122.407C124.947 127.357 126.401 132.286 127.878 137.206C128.535 139.392 129.305 141.547 130.091 143.692C130.308 144.288 130.231 144.689 129.919 145.217C129.605 145.747 129.257 146.219 128.85 146.673C124.89 151.089 121.127 155.668 117.424 160.301C116.876 160.988 116.49 161.811 116.082 162.6C115.746 163.251 115.25 163.642 114.543 163.743C114.485 163.751 114.427 163.761 114.369 163.769C113.668 162.578 113.339 161.224 112.82 159.964C111.928 157.792 110.733 155.774 109.846 153.603C108.037 149.169 106.184 144.75 104.325 140.333C103.395 138.127 102.415 135.939 101.463 133.742C100.245 130.931 99.4085 127.973 98.0208 125.219C95.8617 120.935 93.3908 116.823 91.2173 112.549C89.8022 109.762 88.0351 107.174 86.5716 104.425C84.848 101.19 82.7317 98.141 81.5815 94.6075C81.4308 94.1432 81.0921 93.7368 80.8378 93.3078C80.7897 93.2265 80.745 93.1443 80.7062 93.0624C80.784 93.0227 80.8713 92.99 80.9666 92.9663C81.9874 92.7135 82.5561 93.6552 83.5156 93.8557C83.8625 93.0698 84.056 92.2459 84.2425 91.3955C84.4855 90.2853 84.8516 90.1476 86.0193 90.4995C87.407 90.9205 87.7864 90.7341 88.4227 89.3207C89.0399 87.9482 89.0395 87.9539 90.6022 88.2338C91.2448 88.3479 91.8476 88.3483 91.9884 87.4895C92.0148 87.328 92.1018 87.1748 92.1765 87.0248C92.8191 85.7472 93.3649 85.5351 94.7229 86.0281C96.0809 86.521 96.5778 86.3653 97.259 85.3372C97.7139 84.6523 97.8329 83.6204 98.65 83.3318C99.3619 83.0789 100.06 83.8221 100.753 83.915C101.094 83.6692 101.055 83.3672 101.136 83.1081C101.605 81.6587 102.078 81.4077 103.611 81.7388C104.151 81.8577 104.694 81.9589 105.176 82.0558C105.74 81.7992 105.435 81.3274 105.565 80.9894C105.932 80.0191 106.054 79.913 107.145 80.2666C107.722 80.4528 108.049 80.4931 108.225 79.7586C108.367 79.1632 110.257 77.3761 110.714 77.0411C111.328 76.5922 111.724 76.7421 112.053 77.3433L112.057 77.3401Z" fill="#992424"/>
</svg>
