<svg width="91" height="34" viewBox="0 0 91 34" fill="none" xmlns="http://www.w3.org/2000/svg">
<path d="M52.0691 29.3138C62.1227 28.8202 67.0876 23.8495 63.1584 18.2116C59.2292 12.5736 47.894 8.40335 37.8404 8.89701C27.7868 9.39068 22.8219 14.3613 26.7511 19.9993C30.6803 25.6372 42.0155 29.8075 52.0691 29.3138Z" fill="#EB1400" fill-opacity="0.04"/>
<path d="M84.3813 18.2351C83.4802 17.3559 82.1753 16.605 81.0107 15.8125C77.1376 13.177 74.627 9.93324 70.4714 7.48327C68.2698 6.1852 65.7754 5.21402 63.3252 4.28542C63.0526 4.182 62.7685 4.07597 62.507 4.04663C61.5367 3.93733 61.7835 4.82197 62.2299 5.47511C63.7528 7.70116 65.3757 9.95241 67.6329 12.1272C69.89 14.302 72.8553 16.4181 76.2607 17.849C77.5473 18.3898 78.908 18.8401 80.0708 19.5359C80.6608 19.8888 81.1894 20.299 81.8318 20.5926C84.93 22.0081 85.9484 19.7641 84.3813 18.2351Z" fill="#EB1400" fill-opacity="0.04" stroke="#FF9924" stroke-opacity="0.7" stroke-width="2" stroke-miterlimit="10" stroke-linecap="round" stroke-linejoin="round"/>
<path d="M71.9736 11.065C71.7289 10.9063 71.4342 10.7344 71.1756 10.7203C70.7289 10.6958 70.8495 11.1226 71.0774 11.4455C71.8512 12.5423 73.0175 13.6386 74.4217 14.5887C74.8898 14.9055 75.6659 15.4347 76.2138 15.4103C78.0052 15.3314 72.7579 11.5735 71.9736 11.065Z" fill="#EB1400" fill-opacity="0.04" stroke="#FF9924" stroke-opacity="0.7" stroke-width="2" stroke-miterlimit="10" stroke-linecap="round" stroke-linejoin="round"/>
<path d="M55.0572 4.24329C52.1701 4.38945 50.7855 5.08889 49.5227 5.93979C46.0904 8.25294 42.7667 10.3538 43.435 14.15C43.6914 15.605 44.4279 17.2654 43.2714 18.232C42.4376 18.9285 40.6427 19.2624 40.928 20.3312C41.9842 20.8683 43.3741 21.1039 44.1694 20.88C44.2694 21.6655 46.0606 22.5978 47.5836 22.9089C49.1064 23.2196 50.418 23.1034 51.7347 23.0589C57.8753 22.8517 65.3104 24.3138 71.5039 24.1648C74.7855 24.0856 79.1977 23.7145 81.4017 22.7632" fill="#EB1400" fill-opacity="0.04"/>
<path d="M55.0572 4.24329C52.1701 4.38945 50.7855 5.08889 49.5227 5.93979C46.0904 8.25294 42.7667 10.3538 43.435 14.15C43.6914 15.605 44.4279 17.2654 43.2714 18.232C42.4376 18.9285 40.6427 19.2624 40.928 20.3312C41.9842 20.8683 43.3741 21.1039 44.1694 20.88C44.2694 21.6655 46.0606 22.5978 47.5837 22.9089C49.1064 23.2196 50.418 23.1034 51.7347 23.0589C57.8753 22.8517 65.3104 24.3138 71.5039 24.1648C74.7855 24.0856 79.1977 23.7145 81.4017 22.7632" stroke="#FF9924" stroke-opacity="0.7" stroke-width="2" stroke-miterlimit="10" stroke-linecap="round" stroke-linejoin="round"/>
<path d="M28.7907 21.1314C26.1406 22.4237 23.4324 23.6822 20.6668 24.9063C20.1399 25.1399 19.5781 25.3777 18.7583 25.3707C17.9636 25.3641 17.0337 25.1283 16.1663 25.0066C15.2989 24.885 14.3864 24.9159 14.2486 25.3126C14.1242 25.6725 14.7197 26.2051 15.4502 26.5642C16.1806 26.9234 17.0181 27.1499 17.827 27.3658C17.6524 27.7992 17.7164 28.3333 18.2229 28.8824C18.7294 29.4316 19.7438 29.9827 20.7158 30.1413C21.6878 30.2999 22.4373 29.9513 22.0848 29.4058C21.9841 29.2498 21.8094 29.0911 21.7031 28.9349C21.2864 28.3237 21.985 27.96 22.641 27.6925C26.4377 26.1448 29.5222 24.4652 32.7444 22.5836" fill="#EB1400" fill-opacity="0.04"/>
<path d="M28.7907 21.1314C26.1406 22.4237 23.4324 23.6822 20.6668 24.9063C20.1399 25.1399 19.5781 25.3777 18.7583 25.3707C17.9636 25.3641 17.0337 25.1283 16.1663 25.0066C15.2989 24.885 14.3864 24.9159 14.2486 25.3126C14.1242 25.6725 14.7197 26.2051 15.4502 26.5642C16.1806 26.9234 17.0181 27.1499 17.827 27.3658C17.6524 27.7992 17.7164 28.3333 18.2229 28.8824C18.7294 29.4316 19.7438 29.9827 20.7158 30.1413C21.6878 30.2999 22.4373 29.9513 22.0848 29.4058C21.9841 29.2498 21.8094 29.0911 21.7031 28.9349C21.2864 28.3237 21.985 27.96 22.641 27.6925C26.4377 26.1448 29.5222 24.4652 32.7444 22.5836" stroke="#FF9924" stroke-opacity="0.7" stroke-width="2" stroke-miterlimit="10" stroke-linecap="round" stroke-linejoin="round"/>
<path d="M83.1855 18.5551C82.9918 17.8455 82.1292 17.0598 81.1712 16.3991C80.2136 15.7388 79.1317 15.1546 78.1714 14.4955C76.8601 13.5957 75.8164 12.5861 74.6694 11.6193C73.1125 10.3072 71.3445 9.05855 69.4359 7.9237C68.4817 7.35646 67.4508 6.80013 66.38 6.50051C66.1941 6.44857 65.9949 6.40374 65.8558 6.43267C65.5746 6.49105 65.7043 6.79844 65.9216 7.04015C66.1389 7.28186 66.4353 7.54183 66.4383 7.75822" fill="#EB1400" fill-opacity="0.04"/>
<path d="M83.1855 18.5551C82.9918 17.8455 82.1292 17.0598 81.1712 16.3991C80.2136 15.7388 79.1317 15.1546 78.1714 14.4955C76.8601 13.5957 75.8164 12.5861 74.6694 11.6193C73.1125 10.3072 71.3445 9.05855 69.4359 7.9237C68.4817 7.35646 67.4508 6.80013 66.38 6.50051C66.1941 6.44857 65.9949 6.40374 65.8558 6.43267C65.5746 6.49105 65.7043 6.79844 65.9216 7.04015C66.1389 7.28186 66.4353 7.54183 66.4383 7.75822" stroke="#FF9924" stroke-opacity="0.7" stroke-miterlimit="10" stroke-linecap="round" stroke-linejoin="round"/>
<path d="M65.7945 9.74174C68.0456 12.9328 72.663 16.1121 77.6551 17.9089C78.8509 18.3392 80.1949 18.7661 81.0213 19.5029" fill="#EB1400" fill-opacity="0.04"/>
<path d="M65.7945 9.74174C68.0456 12.9328 72.663 16.1121 77.6551 17.9089C78.8509 18.3392 80.1949 18.7661 81.0213 19.5029" stroke="#FF9924" stroke-opacity="0.7" stroke-miterlimit="10" stroke-linecap="round" stroke-linejoin="round"/>
<path d="M81.1645 18.0116C80.3624 17.3865 79.2559 16.848 78.145 16.542L81.1645 18.0116Z" fill="#EB1400" fill-opacity="0.04"/>
<path d="M81.1645 18.0116C80.3624 17.3865 79.2559 16.848 78.145 16.542" stroke="#FF9924" stroke-opacity="0.7" stroke-miterlimit="10" stroke-linecap="round" stroke-linejoin="round"/>
<path d="M67.6973 9.23441C67.7951 9.81493 68.1021 10.4575 68.5706 11.0626L67.6973 9.23441Z" fill="#EB1400" fill-opacity="0.04"/>
<path d="M67.6973 9.23441C67.7951 9.81493 68.1021 10.4575 68.5706 11.0626" stroke="#FF9924" stroke-opacity="0.7" stroke-miterlimit="10" stroke-linecap="round" stroke-linejoin="round"/>
<path d="M59.6021 5.3087C60.2788 6.99854 61.0532 8.70131 61.9208 10.4076L59.6021 5.3087Z" fill="#EB1400" fill-opacity="0.04"/>
<path d="M59.6021 5.3087C60.2788 6.99854 61.0532 8.70131 61.9208 10.4076" stroke="#FF9924" stroke-opacity="0.7" stroke-miterlimit="10" stroke-linecap="round" stroke-linejoin="round"/>
<path d="M57.8892 5.95841C58.4813 7.46164 59.1727 8.9784 59.9589 10.4979L57.8892 5.95841Z" fill="#EB1400" fill-opacity="0.04"/>
<path d="M57.8892 5.95841C58.4813 7.46164 59.1727 8.9784 59.9589 10.4979" stroke="#FF9924" stroke-opacity="0.7" stroke-miterlimit="10" stroke-linecap="round" stroke-linejoin="round"/>
<path d="M55.286 6.45541C55.8289 7.70708 56.3717 8.95876 56.9145 10.2104L55.286 6.45541Z" fill="#EB1400" fill-opacity="0.04"/>
<path d="M55.286 6.45541C55.8289 7.70708 56.3717 8.95876 56.9145 10.2104" stroke="#FF9924" stroke-opacity="0.7" stroke-miterlimit="10" stroke-linecap="round" stroke-linejoin="round"/>
<path d="M52.9213 7.43795C53.4554 8.73885 54.0334 10.0455 54.6547 11.3558L52.9213 7.43795Z" fill="#EB1400" fill-opacity="0.04"/>
<path d="M52.9213 7.43795C53.4554 8.73885 54.0334 10.0455 54.6547 11.3558" stroke="#FF9924" stroke-opacity="0.7" stroke-miterlimit="10" stroke-linecap="round" stroke-linejoin="round"/>
<path d="M50.6345 8.65665C50.9804 9.4897 51.3266 10.3231 51.6726 11.1562L50.6345 8.65665Z" fill="#EB1400" fill-opacity="0.04"/>
<path d="M50.6345 8.65665C50.9804 9.4897 51.3266 10.3231 51.6726 11.1562" stroke="#FF9924" stroke-opacity="0.7" stroke-miterlimit="10" stroke-linecap="round" stroke-linejoin="round"/>
<path d="M47.5728 9.71671C48.017 11.192 48.5656 12.6883 49.2153 14.1981L47.5728 9.71671Z" fill="#EB1400" fill-opacity="0.04"/>
<path d="M47.5728 9.71671C48.017 11.192 48.5656 12.6883 49.2153 14.1981" stroke="#FF9924" stroke-opacity="0.7" stroke-miterlimit="10" stroke-linecap="round" stroke-linejoin="round"/>
<path d="M45.0956 10.6366C45.2733 11.5557 45.5597 12.5016 45.9518 13.4637L45.0956 10.6366Z" fill="#EB1400" fill-opacity="0.04"/>
<path d="M45.0956 10.6366C45.2733 11.5557 45.5597 12.5016 45.9518 13.4637" stroke="#FF9924" stroke-opacity="0.7" stroke-miterlimit="10" stroke-linecap="round" stroke-linejoin="round"/>
<path d="M41.8075 12.6966C42.3674 14.1558 42.9271 15.6153 43.4869 17.0745L41.8075 12.6966Z" fill="#EB1400" fill-opacity="0.04"/>
<path d="M41.8075 12.6966C42.3674 14.1558 42.9271 15.6153 43.4869 17.0745" stroke="#FF9924" stroke-opacity="0.7" stroke-miterlimit="10" stroke-linecap="round" stroke-linejoin="round"/>
</svg>
