<svg width="101" height="134" viewBox="0 0 101 134" fill="none" xmlns="http://www.w3.org/2000/svg">
<path d="M77.3576 51.0941C77.3576 51.0941 43.3244 19.1558 23.8651 26.2019C4.40469 33.2474 -3.03753 36.0488 -7.88616 45.7963C-10.8481 51.751 -13.685 72.1201 -15.4608 78.7247C-17.2354 85.3301 -22.9558 99.5542 -2.08687 98.1858C18.7827 96.8162 56.6545 50.083 77.3576 51.0941Z" fill="#F89945"/>
<path opacity="0.35" d="M41.0816 27.3549C40.7655 27.3244 40.4494 27.2938 40.1338 27.2679C40.0915 27.2654 40.0492 27.2628 40.0064 27.2585C39.7409 27.8758 39.1523 28.3108 38.2637 28.1665C32.3018 27.1981 28.2037 28.3336 22.342 30.0021C19.493 30.8128 14.7547 33.2003 11.7222 32.2802C11.5962 32.2414 11.5082 32.1454 11.4 32.0773C10.7052 32.2117 10.0128 32.3581 9.33163 32.5408C4.14444 33.9415 2.78277 36.335 0.262847 40.9148C-1.4691 44.0646 -5.27889 51.5213 -9.32718 53.4732C-9.30508 56.1042 -8.78693 59.177 -8.69039 60.1929C-8.42435 62.9995 -8.24306 65.7286 -8.88068 68.5122C-9.55598 71.4601 -11.0607 74.3088 -14.4119 74.0094C-14.602 74.9583 -14.7848 75.8375 -14.9599 76.6274C-13.924 79.0658 -12.9584 81.5975 -12.9941 84.1163C-13.0345 86.9264 -14.0844 89.6572 -13.9462 92.2235C-12.1157 93.5084 -11.7367 95.2913 -11.3797 97.4071C-9.11725 98.1301 -6.09675 98.4465 -2.08975 98.1826C18.7798 96.813 56.6517 50.0799 77.3547 51.091C77.3576 51.0941 58.6765 33.5741 41.0816 27.3549Z" fill="#E09945"/>
<path d="M3.9031 43.3361C2.24982 45.8574 3.42787 49.7502 6.20021 50.9333C7.47088 51.4754 8.90043 51.4882 10.2774 51.3766C16.7044 50.8534 22.6201 47.8568 28.5215 45.2577C34.4229 42.6585 40.824 40.3707 47.1929 41.3769C48.9342 41.6515 50.6377 42.1718 52.3946 42.3135C54.1509 42.4564 56.0408 42.1689 57.381 41.0237C58.9525 39.6807 59.4389 37.4909 59.8353 35.4619C60.2549 33.3132 60.5932 30.825 59.1666 29.1631C58.2916 28.1429 56.9174 27.6726 55.995 26.6968C54.913 25.5533 54.6063 23.9028 53.9205 22.4849C52.3881 19.3226 48.6716 17.3776 45.2005 17.9232C44.4701 18.0377 43.5809 18.5035 43.7084 19.2322C43.8351 19.9543 44.8092 20.0967 45.5333 19.9908C46.2585 19.8854 47.1635 19.7796 47.565 20.3932C47.9719 21.0159 47.4132 21.8988 46.6996 22.1071C45.9854 22.3166 45.2273 22.0764 44.5138 21.8642C40.3314 20.6174 35.8825 20.2752 31.5581 20.8666C30.8237 20.9668 30.0651 21.1047 29.4603 21.5337C28.8555 21.9627 28.4515 22.7603 28.7011 23.4593C29.1531 24.7237 31.3051 24.8949 31.4398 26.2306C31.5054 26.884 30.9736 27.4789 30.3591 27.7095C29.7435 27.9395 29.0642 27.8926 28.4093 27.8398C26.4714 27.6874 24.5342 27.5338 22.5964 27.3813C21.615 26.6725 20.5886 25.9445 19.3968 25.7331C18.205 25.5216 16.7983 25.9935 16.3306 27.1097C15.7926 28.3947 16.5942 30.1337 15.6269 31.1378C14.8564 31.9384 13.4782 31.6317 12.5847 30.9705C11.6913 30.3094 11.0089 29.3653 10.0212 28.8565C8.45582 28.0516 6.3792 28.6296 5.28558 30.0077C4.19131 31.387 4.05119 33.3891 4.74169 35.0086C5.37051 36.485 6.64454 37.8294 6.46091 39.4242C6.27722 40.9948 4.76844 42.0156 3.9031 43.3361Z" fill="#9FCC29"/>
<path d="M54.1453 26.2708C53.3187 25.032 52.8973 23.5676 52.1611 22.2723C51.4261 20.9776 50.2069 19.783 48.7171 19.7486C49.7118 20.3743 49.7211 21.961 48.9361 22.8334C48.8007 22.9838 48.6311 23.0849 48.4674 23.1969C48.8064 23.7363 49.1446 24.2797 49.3959 24.8922C49.9445 26.2318 50.3992 27.6153 50.8357 28.9962C51.4843 31.049 52.4483 33.3869 51.419 35.4478C50.4837 37.3216 47.6043 36.567 47.7539 34.8687C47.7172 34.7698 47.6564 34.6981 47.6333 34.5857C47.1129 32.0317 46.4922 29.39 45.1996 27.1005C44.3174 25.5381 43.1194 24.206 42.1558 22.7081C39.8274 21.9226 37.3486 21.5836 34.8955 21.7324C34.2729 21.77 33.521 21.9419 33.3448 22.5398C33.167 23.1459 33.7413 23.7174 34.3211 23.9664C34.9009 24.2154 35.5747 24.3315 36.0062 24.7915C36.7696 25.6045 36.2623 27.0529 35.2973 27.6136C34.3335 28.1749 33.1374 28.0952 32.0324 27.9549C31.3573 27.8682 30.6638 27.7848 29.9882 27.8093C29.7718 27.8541 29.5504 27.8779 29.3252 27.8816C29.1232 27.9194 28.92 27.9564 28.7245 28.031C27.7123 28.4175 26.9793 29.2858 26.1829 30.0222C25.3871 30.7575 24.3545 31.4175 23.2881 31.2219C21.6854 30.9283 20.5074 28.8115 18.9598 29.3221C17.2616 29.8811 17.804 32.7248 16.3796 33.8049C15.5627 34.4243 14.3731 34.2171 13.4729 33.727C12.5727 33.2369 11.815 32.5055 10.8902 32.062C9.96544 31.6185 8.73456 31.539 8.02007 32.2745C7.17446 33.1446 7.51018 34.6033 8.09396 35.6671C8.67711 36.7321 9.47904 37.7913 9.41155 39.0033C9.28133 41.3757 6.1101 42.3634 5.20867 44.5622C4.47998 46.339 5.47741 48.4016 6.89074 49.7018C7.69796 50.4443 8.65096 50.9775 9.65219 51.411C9.86115 51.4012 10.0711 51.3951 10.2781 51.3782C16.705 50.855 22.6214 47.8573 28.5221 45.2593C34.4235 42.6602 40.8246 40.3723 47.1935 41.3785C48.9349 41.6532 50.6382 42.1734 52.3952 42.3151C54.1515 42.458 56.0415 42.1705 57.3817 41.0253C58.9531 39.6823 59.4395 37.4925 59.8359 35.4635C60.0477 34.3789 60.2375 33.2097 60.1905 32.1025C58.5312 29.9727 55.6962 28.5917 54.1453 26.2708Z" fill="#73A624"/>
<path d="M-2.91333 54.9328C-2.91333 54.9328 0.217777 41.9631 0.614987 39.9677C0.614987 39.9677 8.25524 45.8883 16.2488 45.1275L23.6325 54.5814C23.6325 54.5814 6.5103 61.1742 -2.91333 54.9328Z" fill="#FFCF08"/>
<path opacity="0.35" d="M15.6626 45.7601C15.3981 45.7855 15.1372 45.7857 14.8741 45.7953C13.3901 49.1486 9.99085 51.8239 6.49953 52.2466C3.62246 52.5953 1.27282 51.112 -0.38299 48.9706C-1.1005 51.9778 -1.751 54.6712 -1.751 54.6712C6.81314 60.3443 22.3724 54.3516 22.3724 54.3516L15.6626 45.7601Z" fill="#E6B970"/>
<path d="M1.27752 41.644C0.860003 43.7215 -2.24456 56.5764 -2.24456 56.5764C-1.56797 57.0243 -1.60206 56.7565 -0.855447 57.0792C-0.862805 53.0529 2.52906 44.411 2.52906 44.411C12.0713 47.6162 17.1934 47.9972 15.8599 46.2095C12.0272 46.0674 5.60862 44.3444 1.27752 41.644Z" fill="#EFA708"/>
<path d="M6.517 57.2597C6.53197 57.3812 6.49743 57.4779 6.49339 57.5903C14.9115 57.9353 23.6311 54.5806 23.6311 54.5806L20.2772 52.451C16.3748 53.1398 6.18078 54.4168 6.517 57.2597Z" fill="#EFA708"/>
<path d="M15.3496 66.4763C15.6436 64.2935 15.445 62.0779 15.2465 59.8834C15.1569 58.8955 15.0668 57.9059 14.9772 56.9181C15.1304 56.1188 14.1952 55.4946 13.3808 55.5139C12.5677 55.5339 11.8128 55.9347 11.0073 56.054C9.22989 56.3154 7.58598 55.1982 6.01997 54.3191C3.19222 52.7311 0.00538885 51.785 -3.2309 51.574C-4.70723 51.4777 -6.25791 51.5494 -7.55174 52.2668C-8.84556 52.9842 -9.79136 54.5024 -9.43692 55.9384C-8.86035 58.2735 -5.50794 58.9776 -4.79594 61.2755C-4.67557 61.6639 -4.69615 62.1831 -5.06254 62.361C-5.45184 62.5503 -5.87751 62.2036 -6.18675 61.8995C-7.58887 60.5226 -9.34767 59.4572 -11.283 59.1117C-13.2184 58.7662 -15.3321 59.2028 -16.819 60.4891C-18.3048 61.776 -19.0431 63.9499 -18.4176 65.815C-17.7926 67.6782 -15.7113 69.0024 -13.7943 68.5643C-12.7769 68.3329 -11.6072 67.6999 -10.8047 68.3674C-10.0856 68.9657 -10.4002 70.2475 -11.198 70.7358C-11.9952 71.223 -13.0258 71.1033 -13.9133 70.8088C-14.8008 70.5143 -15.6432 70.0611 -16.5665 69.9139C-18.4345 69.6151 -20.3961 70.7339 -21.2271 72.4323C-22.0582 74.1307 -21.7878 76.272 -20.684 77.8076C-19.5802 79.3432 -17.7241 80.267 -15.836 80.3871C-13.9902 80.5046 -12.1828 79.9147 -10.3584 79.6072C-5.42801 78.776 -0.256421 80.0063 4.57403 78.7152C10.1399 77.2278 14.579 72.187 15.3496 66.4763Z" fill="#9FCC29"/>
<path d="M-8.43524 69.1397C-8.07716 70.4722 -9.34714 71.7668 -10.6918 72.0819C-12.0353 72.3976 -13.4343 72.0688 -14.8142 72.0023C-16.1923 71.9354 -17.7592 72.2407 -18.5098 73.3992C-19.409 74.7882 -18.5949 76.7904 -17.171 77.6352C-15.7482 78.4794 -13.9624 78.4186 -12.3435 78.0821C-9.36199 77.4631 -6.57865 76.0126 -3.55833 75.6234C-1.52761 75.362 0.534486 75.5915 2.57885 75.4673C4.62258 75.3443 6.76788 74.7972 8.1679 73.3025C9.21462 72.186 9.72053 70.6781 10.162 69.2125C11.3937 65.1301 12.368 60.9685 13.0746 56.7628C10.3767 57.8962 7.38056 59.0452 4.60567 58.12C3.47521 57.7423 2.48332 57.0442 1.51739 56.3455C0.551451 55.6468 -0.421834 54.929 -1.53413 54.5027C-2.64822 54.0769 -3.94038 53.9721 -5.0081 54.5009C-6.07582 55.0298 -6.81219 56.3002 -6.48257 57.4465C-6.18951 58.4667 -5.19149 59.1215 -4.19479 59.4877C-3.19809 59.8538 -2.12416 60.028 -1.19948 60.5498C-0.274809 61.0716 0.496568 62.0911 0.280463 63.1295C0.106745 63.9655 -0.661783 64.5713 -1.48011 64.816C-2.82949 65.2204 -4.29534 64.8225 -5.56003 64.2024C-6.82471 63.5823 -7.97796 62.7442 -9.27095 62.1882C-10.5651 61.6315 -12.0896 61.3816 -13.365 61.9797C-14.6403 62.5778 -15.4522 64.2447 -14.7654 65.4747C-14.1433 66.5886 -12.7067 66.8797 -11.4568 67.1328C-10.2057 67.3864 -8.76614 67.9068 -8.43524 69.1397Z" fill="#73A624"/>
<path d="M-2.83528 77.899C-2.9488 78.7325 -2.45184 79.5608 -1.76334 80.0439C-1.07483 80.5271 -0.224968 80.7191 0.608933 80.8238C2.96438 81.1164 5.39571 80.7776 7.57983 79.8512C10.2543 78.7167 12.5722 76.6591 13.7965 74.0259C15.0204 71.3909 15.0721 68.1861 13.7184 65.6152C12.3647 63.0443 9.56412 61.2378 6.66019 61.2897C5.59731 61.3086 4.32107 61.7871 4.18721 62.8429C4.05229 63.9087 5.16686 64.692 5.5287 65.7025C5.78688 66.4213 5.62474 67.2743 5.12274 67.8483C4.6201 68.4234 3.79516 68.6961 3.04871 68.5347C1.77035 68.2598 0.793751 66.8526 -0.501312 67.0387C-1.48751 67.1819 -2.10704 68.257 -2.12916 69.2532C-2.15128 70.2493 -1.74057 71.1967 -1.41737 72.1389C-1.09482 73.0821 -0.856648 74.1304 -1.21785 75.059C-1.61653 76.0843 -2.68802 76.8085 -2.83528 77.899Z" fill="#9FCC29"/>
<path d="M13.0347 65.3096C12.1889 65.156 11.4705 64.6184 10.7672 64.124C10.064 63.6295 9.29009 63.1453 8.42923 63.1265C7.56951 63.1084 6.63922 63.7473 6.65992 64.6076C6.67549 65.2616 7.19407 65.7763 7.47882 66.3668C7.86353 67.1639 7.7959 68.1633 7.30453 68.9015C6.81381 69.6385 5.91935 70.0894 5.03505 70.0424C4.39927 70.0094 3.80086 69.7424 3.18087 69.5976C2.56088 69.4528 1.8404 69.4552 1.36593 69.8802C0.781402 70.405 0.816963 71.3385 1.06445 72.0845C1.54348 73.5269 2.63099 74.7277 3.94946 75.4834C5.26793 76.2391 6.80349 76.569 8.32327 76.5796C10.2163 76.5939 12.1517 76.1012 13.6609 74.9585C15.17 73.8158 16.1991 71.9764 16.1303 70.0836C16.0609 68.192 14.7757 66.3393 12.951 65.8311C12.9791 65.6568 13.0066 65.4838 13.0347 65.3096Z" fill="#73A624"/>
<path d="M45.6337 34.9301L47.7425 39.8486L68.7925 40.1237L68.562 36.2455C68.562 36.2455 62.6361 26.9211 55.6308 25.9855C48.6266 25.0505 45.1133 29.1288 45.6337 34.9301Z" fill="#D12424"/>
<path d="M45.6332 34.9295L68.5622 36.2437C68.5622 36.2437 62.6363 26.9193 55.6309 25.9837C48.6261 25.0499 45.1128 29.1282 45.6332 34.9295Z" fill="#EA3333"/>
<path d="M51.2525 32.7033C51.9569 33.0476 54.2981 35.0795 54.5189 35.1321C54.7408 35.1854 52.5976 31.9211 52.5976 31.9211C52.5976 31.9211 54.154 30.3842 58.2989 32.4121C58.2989 32.4121 57.418 34.0298 58.5843 35.017C59.7513 36.0031 59.8875 33.135 59.8423 32.7253C59.8019 32.3529 62.6974 33.5853 64.116 35.989L68.5625 36.2439C68.5625 36.2439 62.6366 26.9195 55.6312 25.9839C48.627 25.0489 45.1137 29.1273 45.6323 34.9291L50.1446 35.1875C50.3434 34.1666 50.7525 32.4597 51.2525 32.7033Z" fill="#C91D1D"/>
<path d="M53.9703 29.4688C57.6179 29.524 61.9436 30.5902 65.6105 36.0759L68.5625 36.2454C68.5625 36.2454 62.6366 26.921 55.6312 25.9854C48.627 25.0504 45.1137 29.1287 45.6323 34.9305L47.7766 35.0537C47.8206 30.1863 50.8155 29.4195 53.9703 29.4688Z" fill="#FF3333"/>
<path d="M52.2849 34.6075C52.3138 34.8739 52.1196 34.9839 51.8512 34.8518C51.5829 34.7198 51.341 34.3975 51.311 34.1305C51.2822 33.8641 51.4763 33.7541 51.7447 33.8862C52.0137 34.0171 52.2549 34.3405 52.2849 34.6075Z" fill="#FF7E70"/>
<path d="M55.0275 33.3319C55.0624 33.6469 54.8602 33.7901 54.5774 33.6515C54.2946 33.5129 54.0361 33.1451 54.0018 32.829C53.967 32.514 54.1692 32.3708 54.452 32.5094C54.7341 32.6492 54.9927 33.017 55.0275 33.3319Z" fill="#FF7E70"/>
<path d="M56.9609 34.3408C56.9993 34.6924 56.7872 34.8587 56.4866 34.7116C56.186 34.5645 55.9114 34.1607 55.873 33.809C55.8345 33.4574 56.0466 33.2911 56.3473 33.4382C56.6479 33.5853 56.9224 33.9891 56.9609 34.3408Z" fill="#FF7E70"/>
<path d="M61.5653 34.6211C61.5941 34.8875 61.4167 35.0052 61.1678 34.8841C60.919 34.763 60.6934 34.4468 60.6645 34.1804C60.6356 33.914 60.8131 33.7962 61.0613 33.9185C61.3108 34.0385 61.5364 34.3547 61.5653 34.6211Z" fill="#FF7E70"/>
<path d="M12.5811 33.0324L9.05919 35.9405L24.3365 64.0555L28.1746 63.676C28.1746 63.676 33.428 55.5871 29.2153 46.2157C25.0026 36.8443 18.1924 32.2293 12.5811 33.0324Z" fill="#D12424"/>
<path d="M12.581 33.0321L28.1745 63.6757C28.1745 63.6757 33.4279 55.5869 29.2152 46.2155C25.0025 36.844 18.1922 32.229 12.581 33.0321Z" fill="#EA3333"/>
<path d="M19.0354 40.4936C19.2005 41.4407 18.8309 44.6049 18.9408 44.9015C19.0489 45.1987 20.8381 42.2755 20.8381 42.2755C20.8381 42.2755 23.5767 44.3247 24.5459 49.8976C24.5459 49.8976 22.223 48.7519 22.0661 50.3285C21.9104 51.9057 24.9751 52.0327 25.364 51.9654C25.7179 51.9041 26.5869 55.7943 25.1509 57.7332L28.1757 63.6767C28.1757 63.6767 33.4291 55.5879 29.2164 46.2164C25.0038 36.845 18.1928 32.2311 12.5823 33.0331L15.6508 39.0629C16.8522 39.3084 18.9186 39.8237 19.0354 40.4936Z" fill="#C91D1D"/>
<path d="M24.3868 44.0619C27.026 48.9349 29.1224 54.7299 26.1658 59.7318L28.1737 63.6772C28.1737 63.6772 33.4271 55.5884 29.2145 46.2169C25.0018 36.8455 18.1909 32.2316 12.5803 33.0336L14.0382 35.898C19.0989 35.8633 22.1051 39.8486 24.3868 44.0619Z" fill="#FF3333"/>
<path d="M17.8306 41.9076C17.5764 41.9524 17.3198 41.6942 17.2565 41.3332C17.1938 40.971 17.3486 40.643 17.6028 40.5982C17.857 40.5535 18.1136 40.8116 18.1763 41.1739C18.2396 41.5349 18.0859 41.8635 17.8306 41.9076Z" fill="#FF7E70"/>
<path d="M21.1762 45.5461C20.8757 45.5982 20.5789 45.3311 20.5129 44.9505C20.447 44.5698 20.6359 44.2187 20.9363 44.1667C21.2368 44.1147 21.5336 44.3818 21.5996 44.7624C21.6655 45.143 21.4766 45.4941 21.1762 45.5461Z" fill="#FF7E70"/>
<path d="M21.5649 48.1485C21.2305 48.2071 20.9019 47.9268 20.8312 47.5224C20.7604 47.118 20.9757 46.7439 21.31 46.6853C21.6444 46.6266 21.973 46.9069 22.0437 47.3113C22.1145 47.7157 21.8992 48.0898 21.5649 48.1485Z" fill="#FF7E70"/>
<path d="M24.68 54.3025C24.4264 54.346 24.1735 54.1111 24.1148 53.7767C24.0561 53.4424 24.2159 53.1353 24.4701 53.0905C24.7242 53.0458 24.9765 53.2819 25.0352 53.6162C25.0921 53.9511 24.9335 54.2589 24.68 54.3025Z" fill="#FF7E70"/>
<path d="M11.7713 32.4557L8.24937 35.3639L23.5267 63.4789L27.3647 63.0993C27.3647 63.0993 32.6181 55.0105 28.4055 45.639C24.1928 36.2676 17.3825 31.6526 11.7713 32.4557Z" fill="#D12424"/>
<path d="M11.7715 32.456L27.3649 63.0996C27.3649 63.0996 32.6183 55.0107 28.4056 45.6393C24.193 36.2678 17.3827 31.6528 11.7715 32.456Z" fill="#EA3333"/>
<path d="M18.2257 39.9171C18.3908 40.8642 18.0224 44.029 18.1311 44.325C18.2393 44.6222 20.0284 41.699 20.0284 41.699C20.0284 41.699 22.767 43.7482 23.7363 49.3211C23.7363 49.3211 21.4134 48.1754 21.2565 49.752C21.1008 51.3292 24.1654 51.4562 24.5544 51.3889C24.9083 51.3276 25.7772 55.2178 24.3412 57.1567L27.3649 63.0996C27.3649 63.0996 32.6183 55.0107 28.4056 45.6393C24.193 36.2678 17.3827 31.6528 11.7715 32.456L14.84 38.4858C16.0425 38.7319 18.109 39.2472 18.2257 39.9171Z" fill="#C91D1D"/>
<path d="M23.577 43.4847C26.2162 48.3578 28.3126 54.1527 25.356 59.1546L27.3639 63.1001C27.3639 63.1001 32.6173 55.0112 28.4046 45.6398C24.192 36.2683 17.3817 31.6533 11.7705 32.4565L13.2284 35.3209C18.2891 35.2862 21.2953 39.2715 23.577 43.4847Z" fill="#FF3333"/>
<path d="M17.021 41.331C16.7668 41.3757 16.5102 41.1176 16.4475 40.7554C16.3848 40.3932 16.5397 40.0652 16.7938 40.0205C17.048 39.9757 17.3046 40.2339 17.368 40.5949C17.43 40.9583 17.2745 41.2874 17.021 41.331Z" fill="#FF7E70"/>
<path d="M20.3661 44.969C20.0657 45.021 19.77 44.7546 19.7029 44.3733C19.6369 43.9927 19.8258 43.6416 20.1262 43.5896C20.4267 43.5375 20.7235 43.8046 20.7895 44.1852C20.8555 44.5659 20.6666 44.917 20.3661 44.969Z" fill="#FF7E70"/>
<path d="M20.7546 47.5715C20.4202 47.6302 20.0916 47.3499 20.0209 46.9455C19.9513 46.5417 20.1654 46.167 20.4998 46.1084C20.8341 46.0497 21.1628 46.33 21.2335 46.7344C21.3031 47.1382 21.0889 47.5129 20.7546 47.5715Z" fill="#FF7E70"/>
<path d="M23.8698 53.7257C23.6163 53.7692 23.3633 53.5343 23.3046 53.1999C23.2466 52.8644 23.4045 52.5578 23.6587 52.5131C23.9123 52.4695 24.1652 52.7045 24.2239 53.0388C24.282 53.3743 24.1222 53.6814 23.8698 53.7257Z" fill="#FF7E70"/>
<path d="M43.1356 36.2487C43.7706 35.8924 44.4341 35.5068 44.7996 34.8776C45.3042 34.0081 45.1058 32.9021 44.7363 31.9673C44.283 30.8212 43.5926 29.7701 42.7219 28.8985C42.0318 28.208 41.2108 27.622 40.2726 27.3534C39.3344 27.0849 38.2698 27.1662 37.4605 27.7129C36.6529 28.2591 36.1694 29.3092 36.4231 30.2517C35.392 28.4191 33.3389 27.2087 31.2368 27.1935C29.9697 27.1841 28.6784 27.606 27.7562 28.4755C26.8341 29.3451 26.332 30.6818 26.5931 31.9209C26.8536 33.1611 27.9359 34.2203 29.1992 34.3256C27.6809 33.6601 25.7746 34.0092 24.591 35.1682C23.4068 36.3283 23.0176 38.2258 23.6515 39.7578C24.2526 41.2112 25.667 42.2346 27.1952 42.6072C28.7235 42.9797 30.3475 42.7636 31.8386 42.2621C33.3298 41.7606 34.7106 40.9848 36.0822 40.2144C38.4343 38.8936 40.7852 37.572 43.1356 36.2487Z" fill="#FFCF08"/>
<path d="M42.5069 36.2708C43.3609 35.1942 43.5249 33.6156 42.9111 32.3873C42.2979 31.1578 40.9369 30.3406 39.5646 30.3764C38.1912 30.4116 36.8754 31.2976 36.3251 32.5561C35.4999 30.6789 33.4225 29.4338 31.3784 29.5897C30.5048 29.6558 29.5761 30.0197 29.1701 30.7966C28.7169 31.6632 29.0794 32.775 29.7625 33.4752C30.4456 34.1755 31.3816 34.5559 32.2901 34.918C30.5596 34.7021 28.7516 35.1771 27.3504 36.2159C26.6965 36.7003 26.0894 37.4054 26.1365 38.2187C26.1755 38.8873 26.6664 39.4649 27.2555 39.7809C27.8457 40.0975 28.525 40.1956 29.1921 40.2643C31.6606 40.5192 34.1644 40.4334 36.6096 40.0104C37.9736 39.774 39.3434 39.4247 40.5309 38.7141C41.719 38.0024 42.7174 36.886 43.0339 35.5389L42.5069 36.2708Z" fill="#EFA708"/>
<path d="M70.7146 39.3096C71.1083 39.9881 71.8163 40.4204 72.5317 40.7422C73.2471 41.0641 74.0038 41.3095 74.6531 41.7496C75.3024 42.1897 75.8451 42.8823 75.8522 43.6672C75.8575 44.4149 75.3823 45.0838 74.8311 45.5895C72.9454 47.319 69.905 47.6337 67.705 46.3275C66.8882 45.8419 66.199 45.1714 65.5176 44.5083C64.8544 43.8614 64.1912 43.2145 63.528 42.5676C62.8291 41.75 62.1297 40.9305 61.4308 40.1129C59.7828 38.1839 57.9873 36.1573 55.5421 35.4783C56.1242 34.1306 57.4946 33.2359 58.93 32.9309C60.3662 32.6247 61.8648 32.8375 63.2867 33.2033C64.0562 33.4016 64.9579 33.6196 65.5743 33.1187C66.0916 32.698 66.1726 31.9414 66.5533 31.393C67.0237 30.7139 67.9539 30.4308 68.7564 30.6295C69.5588 30.8282 70.219 31.4508 70.5713 32.1981C70.9236 32.9455 70.9968 33.8036 70.8957 34.6229C70.7982 35.4171 70.5452 36.1846 70.4213 36.9746C70.2974 37.7646 70.3132 38.6177 70.7146 39.3096Z" fill="#9FCC29"/>
<path d="M57.0655 37.7328C60.362 37.5855 63.6049 36.3997 66.2183 34.3853C66.6843 34.0264 67.1456 33.6332 67.7063 33.4554C68.2671 33.2777 68.9673 33.3815 69.3018 33.8641C69.643 34.3565 69.4854 35.0477 69.1651 35.5529C68.8441 36.0593 68.3812 36.4637 68.066 36.9733C67.6418 37.6586 67.5135 38.5185 67.7194 39.2985C67.9241 40.0779 68.4601 40.7637 69.166 41.151C69.6146 41.3975 70.117 41.5233 70.6019 41.686C71.0868 41.8487 71.574 42.061 71.9224 42.4353C72.2708 42.8096 72.4498 43.3816 72.2396 43.849C72.1011 44.1559 71.8206 44.3744 71.5398 44.561C69.9769 45.5922 68.0224 46.0139 66.1725 45.7177C64.3237 45.4221 62.5977 44.4113 61.4349 42.9436C60.7182 42.0392 60.2183 40.9846 59.587 40.0164C58.9599 39.0489 58.1483 38.1336 57.0655 37.7328Z" fill="#73A624"/>
<path d="M-11.9678 96.5237C-8.80236 98.0067 -5.08823 98.3418 -1.74985 97.3058C1.5879 96.271 4.49976 93.8417 5.98549 90.6793C6.95953 88.6041 7.31676 86.3029 7.66238 84.0359C8.20399 80.4916 8.74556 76.9473 9.28602 73.4023C6.76956 73.7101 4.16486 73.2675 1.89276 72.1442C0.514318 71.361 -0.911108 70.562 -2.48583 70.3775C-4.06054 70.1931 -5.83728 70.782 -6.57802 72.1842C-7.03719 73.0535 -7.04557 74.1086 -7.51278 74.9734C-8.12236 76.1008 -9.38936 76.6975 -10.6145 77.0765C-11.8395 77.4554 -13.1407 77.7089 -14.1876 78.4484C-15.2345 79.1879 -15.947 80.6179 -15.3887 81.773C-14.9341 82.7148 -13.7827 83.2112 -13.4458 84.2017C-13.151 85.0706 -13.5941 86.0243 -14.1794 86.731C-14.7647 87.4378 -15.5052 88.023 -15.9697 88.8155C-16.7955 90.2243 -16.5714 92.0819 -15.7105 93.4696C-14.8496 94.8572 -13.4464 95.8307 -11.9678 96.5237Z" fill="#B55728"/>
<path opacity="0.32" d="M4.36304 76.9886C1.26886 78.93 0.807154 81.2994 -0.477331 84.3391C-1.3648 86.4402 -3.44629 87.1481 -5.50517 87.4707C-7.58183 87.7954 -9.99187 86.5602 -11.1411 84.8499C-12.8237 82.3467 -12.9879 79.5277 -15.4102 80.0283C-15.6248 80.6033 -15.6546 81.2198 -15.3877 81.7747C-14.9331 82.7164 -13.7816 83.2128 -13.4448 84.2033C-13.15 85.0723 -13.5931 86.0259 -14.1795 86.732C-14.7649 87.4388 -15.506 88.0252 -15.9698 88.8165C-16.7957 90.2253 -16.5715 92.0829 -15.7106 93.4706C-14.8497 94.8582 -13.4459 95.8305 -11.9673 96.5236C-8.80183 98.0065 -5.08707 98.3404 -1.74932 97.3057C1.58842 96.2709 4.50029 93.8415 5.98602 90.6792C6.96005 88.604 7.31725 86.3027 7.66338 84.0375C8.10713 81.129 8.55152 78.2192 8.99642 75.3113C7.37064 75.6681 5.74267 76.1232 4.36304 76.9886Z" fill="#B55728"/>
<path d="M1.83039 75.4375C1.31084 74.9056 0.693935 74.4535 -0.00741695 74.2088C-0.709917 73.9636 -1.50394 73.9385 -2.18771 74.2283C-2.88287 74.5223 -3.43806 75.151 -3.60599 75.8877C-3.77391 76.6244 -3.53599 77.4495 -2.97572 77.9544C-2.411 78.4648 -1.584 78.6169 -0.835649 78.4838C-0.0861519 78.3513 0.595732 77.9624 1.20091 77.5004C1.79686 77.0469 2.38518 76.3645 2.20933 75.6359C2.07907 75.0927 2.37868 75.3251 1.83039 75.4375Z" fill="#8D3800"/>
<path d="M-1.53156 82.3111C-2.21041 81.6329 -3.34387 81.4842 -4.19232 81.9337C-5.03898 82.3826 -5.54887 83.3803 -5.45305 84.3355C-5.35659 85.2894 -4.67688 86.1521 -3.78428 86.5022C-2.89169 86.8523 -1.82698 86.6927 -1.0537 86.1243C-0.528613 85.7381 -0.125985 85.1478 -0.0793333 84.4985C-0.0309469 83.8245 -0.367378 83.1675 -0.835435 82.681C-1.30221 82.1922 -1.05249 82.7887 -1.53156 82.3111Z" fill="#8D3800"/>
<path opacity="0.55" d="M77.2906 51.0313C77.2697 51.0121 77.2527 50.9965 77.2188 50.9655C77.177 50.9271 77.1273 50.8811 77.0658 50.8241C77.0172 50.7788 76.972 50.7385 76.9104 50.6814C76.8647 50.6392 76.8092 50.5901 76.7572 50.5429C76.5956 50.3952 76.4005 50.2213 76.1749 50.0182C76.1285 49.9771 76.0879 49.9393 76.0392 49.897C75.896 49.7702 75.7411 49.6322 75.5752 49.4867C75.5339 49.45 75.4915 49.4127 75.4491 49.3754C74.676 48.6957 73.689 47.8435 72.5135 46.8618C72.8939 46.7504 73.2593 46.5931 73.6117 46.4133C71.9914 46.0677 70.4685 45.1735 68.8798 42.8043C66.9727 39.9614 65.3302 35.7078 61.2674 35.4219C59.4862 35.2968 57.7266 34.7556 56.4189 33.5386C53.0679 30.4202 48.4121 31.0085 43.685 32.0907C40.9708 32.7115 38.5552 34.2591 36.8361 36.4482C35.7042 37.8894 34.2581 39.1834 33.2346 40.3581C31.4073 42.455 29.1771 45.1209 26.1423 45.1749C24.0336 45.2119 21.6761 44.1794 21.5976 41.7596C21.5935 41.608 21.6123 41.4693 21.623 41.3261C18.2548 44.8569 15.2739 48.8863 12.8779 51.5469C12.7394 51.7001 12.5942 51.833 12.4485 51.9641C12.4334 52.1636 12.4153 52.3631 12.4019 52.5621C12.2559 54.6393 12.0111 56.8043 10.8797 58.6137C9.9839 60.0452 8.76062 61.2347 7.38141 62.218C8.11005 65.6287 8.43473 69.5189 5.59939 71.0488C4.89068 71.4318 4.15839 71.6251 3.41545 71.7432C3.2317 76.0922 3.97986 78.7404 1.53505 83.415C-1.28799 88.8142 0.589548 91.6857 -4.8171 95.3893C-6.35691 96.444 -8.13245 97.1843 -9.98341 97.7604C-9.86208 97.7861 -9.76073 97.8232 -9.63582 97.8478C-9.55294 97.8641 -9.46761 97.8786 -9.38408 97.8937C-8.77025 98.0064 -8.12314 98.1001 -7.42099 98.1628C-7.40515 98.1641 -7.39176 98.1671 -7.37592 98.1684C-6.6831 98.2288 -5.93343 98.2578 -5.1487 98.2671C-4.97504 98.2693 -4.79832 98.2687 -4.6198 98.2675C-3.8174 98.2642 -2.98476 98.2445 -2.08673 98.1861C18.7829 96.8165 56.6547 50.0833 77.3577 51.0945C77.3577 51.0945 77.3317 51.0709 77.2906 51.0313Z" fill="#BD9749"/>
<path d="M8.53509 68.5421C10.8668 58.0604 16.5494 48.1749 25.1158 41.7013C33.6822 35.2277 45.2012 32.4608 55.5492 35.3252C63.3937 37.4961 70.0517 42.5852 76.4924 47.5618C81.0686 51.0988 82.1044 52.8798 86.6812 56.4157C87.4727 57.0273 92.6589 58.1965 92.7026 59.1963C92.7718 60.8135 90.0166 62.9385 88.4371 63.288C70.7469 67.2097 53.5987 73.5769 37.6355 82.1507C29.8337 86.3415 22.2807 91.0709 14.0561 94.3573C5.83153 97.6437 -3.29133 99.4341 -11.9224 97.4458C-7.61836 98.637 -2.87705 96.7668 0.24231 93.5731C3.36461 90.3796 7.56515 72.9006 8.53509 68.5421Z" fill="#FAD15F"/>
<path d="M64.9923 44.0122C56.1975 38.7784 44.4064 33.8584 34.3111 38.8314C26.7235 42.5691 21.6342 48.4809 17.0102 55.4098C12.3039 62.4615 11.7667 71.3254 8.98929 79.2165C7.28259 84.0673 5.4433 91.3541 1.34381 94.9281C-0.549439 96.5795 -2.53982 97.6339 -4.58117 98.2512C1.75147 98.2874 8.13781 96.7239 14.0578 94.3583C22.2824 91.0719 29.8342 86.3418 37.6372 82.1517C53.6003 73.5778 70.7479 67.2118 88.4387 63.289C90.0182 62.9394 92.7741 60.8133 92.7042 59.1973C92.7029 59.1619 92.6842 59.1333 92.6805 59.0996C82.2776 58.1793 73.7986 49.2523 64.9923 44.0122Z" fill="#F9C22D"/>
<path d="M64.9923 44.0122C56.1975 38.7784 44.4064 33.8584 34.3111 38.8314C26.7235 42.5691 21.6342 48.4809 17.0102 55.4098C12.3039 62.4615 11.7667 71.3254 8.98929 79.2165C7.28259 84.0673 5.4433 91.3541 1.34381 94.9281C-0.549439 96.5795 -2.53982 97.6339 -4.58117 98.2512C1.75147 98.2874 8.13781 96.7239 14.0578 94.3583C22.2824 91.0719 29.8342 86.3418 37.6372 82.1517C53.6003 73.5778 70.7479 67.2118 88.4387 63.289C90.0182 62.9394 92.7741 60.8133 92.7042 59.1973C92.7029 59.1619 92.6842 59.1333 92.6805 59.0996C82.2776 58.1793 73.7986 49.2523 64.9923 44.0122Z" fill="#F9C22D"/>
<path opacity="0.55" d="M77.0399 53.2034C69.6076 52.7857 64.0793 54.683 57.933 59.2074C51.3299 64.0688 45.1133 69.1554 36.8047 70.5089C26.6367 72.1653 19.9069 65.5254 15.8486 57.4087C12.2201 64.094 11.5113 72.0494 8.99024 79.2155C7.28354 84.0663 5.44426 91.3531 1.34477 94.9271C-0.548479 96.5785 -2.53886 97.6329 -4.58022 98.2502C1.75243 98.2864 8.13877 96.7229 14.0588 94.3573C22.2833 91.0709 29.8352 86.3408 37.6382 82.1507C53.6013 73.5768 70.7489 67.2108 88.4397 63.288C90.0192 62.9384 92.775 60.8123 92.7052 59.1963C92.7039 59.1609 92.6852 59.1323 92.6815 59.0986C87.1538 58.6098 81.6105 56.8096 77.0399 53.2034Z" fill="#F2CC49"/>
<path opacity="0.55" d="M52.0748 69.2193C41.491 71.026 34.805 74.9199 26.6288 81.7279C22.5966 85.0848 18.3865 88.7055 13.9817 92.1328C14.1934 92.0507 14.409 91.9754 14.6191 91.8909C22.8436 88.6045 30.3955 83.8744 38.1985 79.6843C47.3819 74.7514 56.966 70.5762 66.811 67.1501C61.6715 67.5252 56.4767 68.4678 52.0748 69.2193Z" fill="#D68902"/>
<path d="M48.3705 41.2952C46.2008 40.1989 43.3169 40.77 41.7287 42.6118C41.4001 42.9917 41.1199 43.4305 41.01 43.9208C40.9 44.411 40.9823 44.962 41.3079 45.3447C41.8816 46.0169 42.939 45.9512 43.7841 45.6883C45.0702 45.2892 46.2535 44.5672 47.1986 43.608C47.6728 43.127 48.1054 42.5369 48.1285 41.8623C48.1516 41.1878 49.0396 41.2067 48.3705 41.2952Z" fill="#E9A000"/>
<path d="M35.7018 50.9493C34.4738 50.199 32.7261 50.4559 31.7674 51.5281C31.3039 52.0467 31.0375 52.8731 31.462 53.4241C31.8542 53.933 32.6071 53.9426 33.2443 53.868C33.932 53.7868 34.6381 53.6482 35.1999 53.2449C35.7618 52.8416 36.1409 52.11 35.9414 51.4481C35.743 50.7868 36.2314 50.5038 35.7018 50.9493Z" fill="#E9A000"/>
<path d="M52.3055 57.143C50.8147 55.4693 48.1765 54.9492 46.1618 55.9311C44.1471 56.9131 42.9324 59.3135 43.3318 61.5179C43.4545 62.1986 43.7615 62.9056 44.3738 63.2285C44.993 63.5553 45.7523 63.4027 46.4159 63.1785C48.1694 62.5825 49.762 61.5197 50.9858 60.1299C51.4933 59.5515 52.8171 57.7187 52.3055 57.143Z" fill="#E9A000"/>
<path d="M67.4964 46.7304C66.6953 47.036 65.9038 47.7932 66.1084 48.6268C66.3109 49.4531 67.3297 49.7608 68.1804 49.7573C68.6836 49.7554 69.1989 49.6939 69.6476 49.4685C70.0974 49.2438 70.4764 48.8332 70.5636 48.3377C70.6853 47.646 70.1965 46.9459 69.5502 46.6703C68.9039 46.3946 68.1518 46.4804 67.4964 46.7304Z" fill="#E9A000"/>
<path d="M77.2772 56.4719C76.6763 56.1448 76.0655 55.8137 75.3997 55.6538C74.7339 55.4938 73.9952 55.5208 73.4119 55.8789C72.8286 56.237 72.4551 56.9748 72.652 57.6307C72.8325 58.2322 73.4354 58.6313 74.0518 58.753C74.6681 58.8747 75.305 58.7712 75.9242 58.6668C76.3718 58.5916 76.8319 58.5128 77.2226 58.2807C77.6133 58.0485 77.9256 57.6277 77.8925 57.1749C77.862 56.7524 77.5381 56.3963 77.1605 56.2062C76.7812 56.0166 77.6495 56.6742 77.2772 56.4719Z" fill="#E9A000"/>
<path d="M64.878 62.2079C63.8334 61.6793 62.689 61.2728 61.5201 61.3304C60.3511 61.388 59.1582 61.987 58.6418 63.0368C58.1265 64.0872 58.5061 65.5645 59.5769 66.0353C60.2008 66.3105 60.9194 66.2226 61.5896 66.097C62.4251 65.9403 63.2741 65.7188 63.9539 65.2096C64.6337 64.7005 65.1113 63.8415 64.9492 63.0076C64.7882 62.1743 65.6597 61.8749 64.878 62.2079Z" fill="#E9A000"/>
<path d="M38.343 68.2912C37.4265 68.5443 36.4567 68.8279 35.8202 69.5347C35.1847 70.242 35.0878 71.5174 35.8747 72.0511C36.4486 72.44 37.2414 72.2866 37.8474 71.9472C38.4473 71.6105 38.9642 71.0855 39.18 70.4329C39.3965 69.7791 39.2703 68.9969 38.7754 68.518C38.2816 68.0398 39.0058 68.1088 38.343 68.2912Z" fill="#E9A000"/>
<path d="M20.091 73.7207C18.078 74.0961 16.3802 75.7996 16.0116 77.814C15.8875 78.4938 15.9085 79.2217 16.2125 79.8425C16.5171 80.4621 17.1435 80.9513 17.8345 80.961C18.824 80.9763 19.567 80.0955 20.1301 79.2829C20.6327 78.557 21.1182 77.8185 21.583 77.0685C22.044 76.3254 22.4993 75.4117 22.1333 74.619C21.8374 73.9756 21.0711 73.6584 20.3645 73.6792C19.6567 73.6994 20.7862 73.591 20.091 73.7207Z" fill="#E9A000"/>
<path opacity="0.32" d="M62.7967 45.1311C61.0527 42.4925 58.1469 40.7584 55.0769 39.9967C52.007 39.235 48.7737 39.377 45.6551 39.9042C38.2656 41.1537 31.2609 44.5904 25.752 49.6704C24.149 51.1481 22.5845 52.9502 22.4522 55.127C22.2995 57.6286 24.1825 59.9137 26.4703 60.9388C28.757 61.9633 31.3627 61.9648 33.8606 61.7657C39.8478 61.2875 45.7081 59.7643 51.4267 57.9283C53.7198 57.1925 56.0211 56.3935 58.0554 55.1044C60.0908 53.8159 61.8618 51.9815 62.6508 49.7063C63.4415 47.4305 63.1028 44.6917 61.4507 42.9398L62.7967 45.1311Z" fill="#FAD15F"/>
</svg>
