<svg width="108" height="109" viewBox="0 0 108 109" fill="none" xmlns="http://www.w3.org/2000/svg">
<path d="M121.415 35.0153C118.434 35.226 115.481 35.6118 112.655 36.4233C106.794 38.1047 101.663 41.3607 96.5174 44.5597C91.8258 47.4772 87.6087 51.0639 82.8198 53.8312C78.4632 56.3487 73.5307 57.8806 68.6118 58.8452C62.9805 59.9483 57.1388 60.7793 51.3992 61.0268C45.6077 61.2762 40.2867 60.1004 34.5784 59.4624C29.0895 58.849 23.5403 58.5455 18.0252 58.1463C13.654 62.1404 9.22352 66.9481 7.9427 71.5786C7.9427 71.5786 8.11294 75.9473 9.9272 75.6073C11.7422 75.2684 22.264 69.9358 38.3686 72.9246C38.3686 72.9246 41.8373 73.3018 48.3689 71.3403C54.9001 69.3807 69.9966 69.6004 73.9645 69.7451C77.9336 69.8891 82.74 69.622 96.1198 62.5372C109.5 55.4523 111.373 50.4062 118.373 48.0656C125.372 45.725 129.901 42.722 125.112 37.6341C125.108 37.6361 123.564 36.5553 121.415 35.0153Z" fill="#EC9936"/>
<path opacity="0.55" d="M110.039 48.7586C109.863 46.3654 110.261 42.097 112.165 40.2384C114.581 37.8783 118.695 36.0138 122.578 35.8443C122.215 35.5853 121.83 35.3112 121.414 35.014C118.433 35.2247 115.48 35.6105 112.654 36.422C106.793 38.1034 101.662 41.3594 96.5161 44.5584C91.8245 47.4759 87.6075 51.0626 82.8185 53.8299C78.462 56.3474 73.5295 57.8792 68.6105 58.8439C62.9792 59.947 57.1376 60.778 51.398 61.0255C45.6064 61.2749 40.2854 60.0991 34.5771 59.4611C29.0882 58.8477 23.539 58.5441 18.0239 58.145C13.6527 62.1391 9.22226 66.9468 7.94144 71.5773C7.94144 71.5773 8.01644 73.418 8.56552 74.6167C8.57811 74.6169 8.58794 74.6125 8.60167 74.612C10.6488 74.5555 12.5342 72.7779 14.231 71.858C15.938 70.9319 17.5879 70.1639 19.4761 69.6651C22.1188 68.9662 25.0933 68.5954 27.6742 69.5939C28.8886 70.0644 29.3212 71.048 29.2164 72.0234C30.7171 72.0391 32.2962 72.1274 33.9399 72.2938C35.1779 69.5879 39.1894 70.8008 41.5349 70.5102C44.2552 70.1734 46.6877 69.6504 49.3081 68.8683C50.7958 68.425 52.1112 68.0941 53.6697 68.1715C54.602 68.2181 55.3603 69.0745 55.7045 69.8556C55.7441 69.944 55.7818 70.032 55.8214 70.1204C57.3118 69.9878 58.865 69.892 60.415 69.8216C60.4539 69.6231 60.5097 69.4269 60.5961 69.2371C61.3349 67.5976 63.3155 67.138 64.9208 67.6274C66.12 67.993 67.2539 68.6371 67.9601 69.6547C70.5998 69.6509 72.7784 69.7005 73.9614 69.7434C74.7918 69.7737 75.66 69.7842 76.6342 69.7196C78.2504 67.3823 80.4042 67.3626 83.0392 66.5685C86.1255 65.6381 88.3429 62.4772 91.3052 61.0334C93.1902 60.1149 94.6093 61.6025 94.7557 63.2469C95.2 63.0165 95.6522 62.7812 96.1167 62.5354C97.5573 61.7725 98.8586 61.0347 100.053 60.3194C99.4922 59.6027 99.2275 58.6952 99.5078 57.6461C99.8163 56.4893 101.202 56.0035 101.802 55.1697C102.613 54.0436 103.703 53.0715 104.922 53.8015C105.726 54.2822 106.334 54.9597 106.951 55.6437C108.336 54.5852 109.517 53.611 110.618 52.7249C110.349 51.1468 110.159 50.377 110.039 48.7586Z" fill="#DB8C36"/>
<path d="M96.2029 57.3542C97.7192 56.0004 99.8267 55.0781 101.454 54.0674C104.999 51.8673 107.241 48.654 110.078 45.6953C114.035 41.5685 117.849 36.4943 124.442 37.6542C124.764 37.7106 125.05 37.7866 125.322 37.8716C125.251 37.793 125.185 37.7145 125.109 37.6338C125.109 37.6338 109.886 26.9825 108.455 24.8788C107.025 22.7751 95.8817 15.4527 85.6001 16.7766C83.6332 17.0297 82.0267 17.0969 80.8409 17.0932C78.8035 17.086 76.7915 17.5866 75.0434 18.6329C72.321 20.2638 69.0167 23.0924 69.2639 27.1271C69.2639 27.1271 61.9356 35.6552 58.6514 37.2349C55.3684 38.814 47.2544 40.6251 43.3983 41.2698C39.5416 41.9134 30.2104 46.8252 27.5825 49.8166C24.9738 52.7854 10.6662 62.3926 8.00412 71.3772C8.03156 71.3684 8.05255 71.3541 8.07998 71.3453C13.3404 69.7208 18.7328 67.5571 24.337 67.8226C30.593 68.1175 36.1115 70.0901 42.4651 68.7284C42.8189 68.6528 43.1356 68.6497 43.4238 68.695C47.9011 67.7797 52.3447 66.5538 56.7895 65.5051C61.1067 64.4854 64.8155 65.1527 69.172 65.4052C78.4033 65.9409 87.637 62.1453 95.4735 57.6498C95.7171 57.5083 95.9619 57.4176 96.2029 57.3542Z" fill="#FAC64C"/>
<path opacity="0.55" d="M125.108 37.6336C125.108 37.6336 109.885 26.9822 108.454 24.8785C107.024 22.7748 95.8806 15.4525 85.599 16.7764C83.632 17.0294 82.0255 17.0967 80.8397 17.093C78.8023 17.0858 76.7904 17.5863 75.0422 18.6326C72.3199 20.2635 69.0156 23.0922 69.2627 27.1269C69.2627 27.1269 69.2315 27.163 69.2042 27.1952C72.8701 28.577 77.6949 29.7353 82.8888 30.3542C88.4744 31.0214 95.1179 33.0752 98.8817 35.5219C102.699 38.005 108.81 45.4033 109.421 46.4004C109.638 46.164 109.853 45.9278 110.077 45.6951C114.033 41.5683 117.848 36.4941 124.441 37.654C124.763 37.7103 125.049 37.7864 125.321 37.8714C125.251 37.792 125.184 37.7124 125.108 37.6336Z" fill="#C2664C"/>
<path d="M125.108 37.6354C125.108 37.6354 109.885 26.984 108.454 24.8803C107.024 22.7766 95.8807 15.4543 85.5991 16.7782C83.6321 17.0313 82.0256 17.0985 80.8398 17.0948C78.8024 17.0876 76.7905 17.5882 75.0423 18.6344C72.657 20.0641 69.8261 22.4119 69.328 25.6839C70.8913 26.2456 72.413 26.8622 74.1139 27.0562C76.745 27.3575 79.3906 27.5282 82.0113 27.9232C86.2399 28.5594 90.2553 29.3873 94.1978 31.0682C98.2776 32.808 102.202 34.0938 105.39 37.3034C107.652 39.5806 109.367 42.2913 110.491 45.258C114.303 41.221 118.078 36.5358 124.441 37.6558C124.763 37.7122 125.049 37.7882 125.321 37.8732C125.251 37.7938 125.184 37.7143 125.108 37.6354Z" fill="#F89945"/>
<path d="M110.654 33.1317C108.242 32.6285 105.841 32.2737 103.801 30.768C100.62 28.4204 97.9912 25.6257 94.1972 24.1794C90.5134 22.7757 86.8343 23.6659 83.0557 23.9748C78.3576 24.3589 74.8579 23.4415 71.533 21.4094C70.4397 22.5956 69.5819 24.0183 69.3291 25.6816C70.8924 26.2433 72.4141 26.8599 74.115 27.0539C76.7461 27.3552 79.3917 27.5259 82.0124 27.9209C86.241 28.5571 90.2564 29.385 94.1989 31.0659C98.2786 32.8057 102.203 34.0915 105.391 37.3011C107.653 39.5783 109.368 42.289 110.493 45.2558C112.314 43.3265 114.129 41.2558 116.22 39.7346C114.629 37.2348 113.56 33.7375 110.654 33.1317Z" fill="#E2762E"/>
<path opacity="0.55" d="M83.5537 21.971C84.3984 21.8912 85.4673 22.0703 86.4465 22.2431C87.6629 22.4594 88.8136 22.4078 90.0541 22.3112C90.2072 22.2496 90.4165 22.0977 90.4308 21.936C90.6942 21.7215 90.7442 21.2556 90.6187 20.9663C90.7694 19.4462 89.0413 18.7955 87.6012 18.5682C86.5907 18.4082 85.5874 18.3578 84.5257 18.3554C83.6993 18.3522 82.2961 18.3118 81.6465 18.801C81.2573 18.7591 80.2343 19.186 80.1246 19.5586C79.7242 19.7687 79.6125 20.7171 79.8208 21.1481C80.0743 21.669 80.7747 21.8094 81.31 21.9172C82.6567 22.1887 83.5537 21.971 83.5537 21.971Z" fill="#F89945"/>
<path opacity="0.55" d="M94.433 22.7908C95.0963 22.9241 96.3707 23.6969 96.9559 22.9859C97.5662 22.2441 96.5723 21.4807 95.9547 21.2604C95.3907 21.0591 93.7584 20.8265 93.5208 21.5906C93.2292 22.5232 93.7335 22.9324 94.433 22.7908Z" fill="#F89945"/>
<path opacity="0.55" d="M105.996 28.4703C106.646 28.6783 111.13 32.2199 111.18 29.9957C111.199 29.1286 110.015 28.2933 109.49 27.6923C108.79 26.891 107.967 26.3047 106.984 25.9005C106.233 25.5923 105.743 25.7269 105.015 25.9315C104.31 26.1292 103.383 26.0421 103.738 27.1165C104.234 28.6113 104.908 28.1232 105.996 28.4703Z" fill="#F89945"/>
<path d="M102.383 42.3565C101.648 42.0152 101.358 41.7334 101.136 41.0189C100.927 40.3477 101.203 39.5122 100.491 39.0648C100.45 37.3764 96.6309 35.991 95.1539 35.7595C93.0647 35.4325 91.4979 36.2423 89.5371 36.768C87.8758 37.2135 86.9742 36.7001 86.794 35.1184C86.717 35.1151 86.641 35.1082 86.5654 35.0994C86.6143 35.0307 86.6556 34.9572 86.6912 34.8794C86.6289 34.7767 86.5454 34.7961 86.479 34.7099C86.4712 34.1228 86.0226 33.1208 85.4695 32.8473C84.8362 31.3218 82.248 31.0164 80.7874 30.8764C79.7894 30.7807 78.581 30.8375 77.5812 31.0426C76.4123 31.2832 75.8464 32.2603 74.8203 32.6204C73.2591 33.1691 73.0772 29.8006 71.3566 29.1391C69.8023 28.5408 67.3229 28.8345 65.7809 29.3607C63.5494 30.1224 62.029 31.6395 60.8354 33.6283C59.6142 35.6618 57.7871 36.7606 55.4175 36.0744C53.3246 35.4685 51.8319 35.7259 50.3355 37.4189C48.8177 39.1359 47.2958 39.7545 44.9415 39.8349C43.0586 39.8996 41.1804 39.6039 39.25 39.6958C36.4257 39.8302 35.0361 40.6387 33.2351 42.7023C31.4319 44.7672 30.0225 47.1804 28.2555 49.2483C26.7049 51.0632 24.625 51.4363 22.453 51.8122C19.2733 52.362 17.411 53.704 15.6308 56.3811C14.8109 57.6138 14.7178 58.7914 14.3721 60.1831C13.9507 61.8721 14.2614 63.4449 13.2844 64.9182C12.9257 65.6011 10.5693 66.6383 9.23579 67.1942C8.5384 67.4861 7.814 67.8286 7.24954 68.3397C6.95386 68.6064 6.79622 68.8691 6.66013 69.2343C6.53739 69.5648 6.32652 69.8504 6.21388 70.1873C5.99763 70.8322 5.91228 71.8474 6.26566 72.5355C6.46512 72.9236 7.03981 73.0653 7.45106 73.1203C8.02704 73.1972 8.61388 73.0115 9.14454 72.8052C10.1453 72.4136 11.0956 71.8591 11.9764 71.2468C14.2982 69.6325 15.8179 67.9393 18.5984 66.9836C22.2068 65.7427 27.9551 65.8802 29.8921 69.7816C31.9044 73.8356 26.4689 78.7626 30.2377 82.3117C31.8778 83.8574 34.7105 83.0262 35.0044 80.6353C35.2977 78.2433 32.9095 77.1686 32.1653 75.195C31.4334 73.2547 31.6136 70.5784 33.5347 69.5443C35.4311 68.5237 37.2021 69.1421 39.1837 69.1784C41.6123 69.2231 44.3061 68.2403 46.674 67.6597C48.0587 67.3195 49.4565 66.9698 50.8277 66.5737C51.8431 66.2811 53.1439 65.6326 54.2172 65.7186C56.0606 65.8668 57.6308 68.3371 56.7306 70.076C55.7474 71.9793 53.732 73.5889 55.1509 75.9308C56.601 78.3241 61.6279 77.5297 61.8588 74.5947C62.0148 72.6123 59.0704 71.3722 58.6993 69.3238C58.2228 66.6976 61.2675 66.3139 63.2185 66.2096C65.1772 66.1052 67.1085 66.6404 68.57 68.0305C69.856 69.2522 71.3479 70.6177 70.9225 72.3106C70.4723 74.1015 68.3786 77.384 70.1168 78.8546C71.4638 79.9941 73.9451 79.4743 75.1104 78.2678C76.4751 76.8546 74.3517 73.6909 74.0322 72.0546C73.5752 69.7102 74.7026 68.9842 76.7565 67.5901C78.4212 66.4602 80.5765 66.2397 82.3778 65.2142C84.229 64.1601 85.4799 62.4614 87.4098 61.6016C89.2396 60.7852 90.94 59.5572 92.7446 58.828C94.3845 58.1644 97.0698 58.5061 96.9611 60.783C96.8855 62.3857 94.0818 65.3806 97.2177 65.4975C99.3095 65.5763 101.027 63.8227 99.8657 61.6304C98.9385 59.8803 97.8477 58.5402 98.6772 56.4788C99.4558 54.5419 100.98 53.9968 102.258 52.5864C103.054 51.7066 105.167 48.3889 106.458 50.8131C106.924 51.6892 106.074 52.6434 106.459 53.5046C106.888 54.4669 107.878 54.1535 108.595 53.5516C110.364 52.0681 109.176 50.2435 108.429 48.6171C108.052 47.7948 107.744 46.8214 107.747 45.8824C107.751 44.9105 108.136 44.093 107.1 43.4475C106.356 42.9835 105.225 43.1701 104.43 42.9745C103.729 42.8029 103.074 42.4965 102.372 42.2489C101.889 42.0752 102.904 42.5978 102.383 42.3565Z" fill="#FBDF6A"/>
<path opacity="0.55" d="M62.3107 47.4535C57.9119 44.7268 54.1082 41.2129 49.9968 38.162C48.544 40.5062 45.9303 41.5825 42.1817 41.1814C39.7486 40.9209 37.5886 40.8632 35.8358 42.7539C36.3112 42.9199 36.785 43.0885 37.2578 43.2811C47.2415 47.3327 56.073 52.3862 67.2896 51.5741C68.467 51.4892 69.5493 51.3121 70.5971 51.0934C67.6892 50.2636 64.8947 49.0544 62.3107 47.4535Z" fill="#ECBC49"/>
<path opacity="0.55" d="M95.3739 40.8087C92.2043 38.3248 89.8363 39.3582 86.1147 38.8705C84.3188 38.6358 82.9849 38.0894 81.6925 36.8029C78.8929 34.015 78.0059 32.8744 74.0882 34.509C72.1795 35.306 70.0137 34.9739 68.2009 34.1732C66.9947 33.6416 66.2845 32.0409 65.0876 31.6302C64.295 31.3583 63.4934 31.2543 62.6909 31.257C61.9843 31.9354 61.3736 32.7305 60.8353 33.6269C60.6234 33.9803 60.3858 34.2915 60.1358 34.5821C60.148 34.6434 60.1705 34.7063 60.1882 34.7689C61.7719 35.9897 64.0181 36.9616 65.1244 37.4804C68.634 39.1272 72.2243 40.4925 75.9699 41.509C82.9238 43.3948 89.4617 41.8761 96.3978 41.5367C96.0503 41.3087 95.7073 41.0702 95.3739 40.8087Z" fill="#ECBC49"/>
<path opacity="0.55" d="M31.0019 78.0562C30.2375 77.8797 29.6581 77.5191 29.1794 77.0569C28.7016 78.944 28.5917 80.7579 30.2369 82.3067C31.8771 83.8523 34.7097 83.0211 35.0037 80.6303C35.1681 79.2923 34.4928 78.3669 33.7349 77.465C32.9363 77.9993 32.0093 78.2884 31.0019 78.0562Z" fill="#ECBC49"/>
<path opacity="0.55" d="M57.9679 73.0236C57.0664 73.2003 56.1 72.7216 55.5047 72.0131C54.7544 73.1958 54.2285 74.4064 55.1489 75.9264C56.5989 78.3196 61.6259 77.5253 61.8568 74.5903C61.9464 73.4508 61.0118 72.5561 60.1301 71.6122C59.7137 72.3879 58.7805 72.8649 57.9679 73.0236Z" fill="#ECBC49"/>
<path opacity="0.55" d="M72.863 74.6985C71.9107 74.7889 71.0124 74.3376 70.4669 73.6082C69.7564 75.4023 68.7423 77.6897 70.115 78.8511C71.4619 79.9906 73.9432 79.4708 75.1086 78.2643C76.08 77.2582 75.2838 75.3662 74.6296 73.7675C74.1945 74.2781 73.5745 74.6307 72.863 74.6985Z" fill="#ECBC49"/>
<path opacity="0.55" d="M99.7509 61.4201C99.1685 62.0404 98.3254 62.3753 97.387 62.2106C97.1215 62.164 96.8698 62.0606 96.6317 61.9333C95.9689 63.5126 94.7402 65.4024 97.2176 65.494C99.3093 65.5728 101.028 63.8185 99.8655 61.627C99.8274 61.5564 99.7895 61.4888 99.7509 61.4201Z" fill="#ECBC49"/>
<path opacity="0.55" d="M40.6365 67.1705C39.068 67.0944 37.5855 67.3456 36.0988 67.5744C35.0443 67.9673 34.1848 68.5402 33.7526 69.3878C34.162 69.1488 34.5743 69.0409 34.9693 69.0433C36.3488 68.8 37.707 69.1472 39.1817 69.174C41.5413 69.2183 44.1489 68.2941 46.4678 67.7074C44.5116 67.5869 42.5893 67.2648 40.6365 67.1705Z" fill="#F2CC49"/>
<path opacity="0.55" d="M11.5438 70.3651C10.2846 70.4387 9.06535 70.143 8.26148 69.0957C8.00274 68.7592 7.83944 68.3664 7.75391 67.9576C7.57771 68.0739 7.40497 68.1958 7.24881 68.3374C6.95313 68.6042 6.79549 68.8669 6.6594 69.232C6.53666 69.5625 6.32579 69.8482 6.21315 70.185C5.9969 70.8299 5.91154 71.8451 6.26493 72.5333C6.46438 72.9213 7.03908 73.063 7.45033 73.1181C8.02631 73.195 8.61315 73.0092 9.14381 72.8029C10.1446 72.4114 11.0949 71.8569 11.9757 71.2445C12.5884 70.8182 13.1393 70.3904 13.6781 69.9684C12.9611 70.1815 12.2122 70.3266 11.5438 70.3651Z" fill="#ECBC49"/>
<path opacity="0.55" d="M30.9001 52.2122C27.7406 55.0248 19.6316 55.5338 18.2988 59.6821C17.7772 61.3038 17.4979 62.7536 16.8406 64.1875C19.2822 63.6153 21.7286 62.4485 24.1701 62.1824C26.0654 61.9759 27.8662 62.1312 29.7525 62.3862C32.1978 62.7158 34.2382 62.1075 36.6437 61.9288C40.8796 61.6143 45.0686 62.8366 49.274 62.3251C52.9195 61.8815 55.6219 59.5537 59.1581 58.8501C63.9068 57.906 68.4603 64.5611 72.9497 61.5805C76.8744 58.9767 80.7858 56.0265 85.1439 54.1577C89.2878 52.3812 96.3056 53.407 99.2429 49.4738C99.9345 48.5468 100.496 47.591 101.117 46.6728C98.2822 46.8165 95.4814 47.2161 92.7614 47.9525C87.5044 49.3766 83.3516 52.2531 78.4754 54.4674C74.1885 56.4149 69.4278 57.1024 64.7302 56.9569C54.5385 56.6399 46.7304 53.1424 37.5443 49.1956C36.1995 48.6184 34.8615 48.145 33.5268 47.7491C33.319 49.2523 32.5133 50.7762 30.9001 52.2122Z" fill="#ECBC49"/>
<path opacity="0.55" d="M84.9579 60.2599C81.9959 62.0002 75.0878 68.2295 75.1056 68.7918C75.5511 68.4091 76.0995 68.0312 76.7545 67.5871C78.4191 66.4572 80.5744 66.2366 82.3758 65.2112C84.2269 64.1571 85.4779 62.4584 87.4078 61.5985C89.2376 60.7822 90.938 59.5541 92.7426 58.825C93.4889 58.5237 94.4501 58.4326 95.2676 58.6347C95.2656 58.6031 95.2648 58.5708 95.2628 58.5393C95.2378 58.2406 88.1354 58.3935 84.9579 60.2599Z" fill="#F2CC49"/>
<path opacity="0.55" d="M107.004 50.9865C106.84 51.0017 106.678 50.997 106.52 50.9836C106.804 51.8104 106.1 52.6952 106.459 53.5015C106.888 54.4639 107.879 54.1505 108.596 53.5485C109.952 52.4103 109.568 51.0711 108.978 49.775C108.539 50.4322 107.825 50.9086 107.004 50.9865Z" fill="#ECBC49"/>
<path d="M21.7484 60.5349C21.7484 60.5349 15.7067 62.1508 14.7786 64.1784C13.8505 66.2059 15.962 68.0216 19.0083 65.9053C22.0545 63.7891 22.6012 60.2831 21.7484 60.5349Z" fill="#14B661"/>
<path d="M38.7319 44.4151L38.9131 46.3382L45.6827 46.893L46.157 44.0118C46.157 44.0118 40.3565 43.4406 38.7319 44.4151Z" fill="#14B661"/>
<path d="M63.4597 34.7112L64.9474 36.4742L69.8277 33.7905C69.8277 33.7905 69.016 31.6284 68.374 31.3526L63.4597 34.7112Z" fill="#FF3E4A"/>
<path d="M70.4063 47.5044L70.6231 49.7978C70.6231 49.7978 77.5251 49.7805 77.5135 49.6689C77.5027 49.5583 77.7934 45.9109 77.7934 45.9109L70.4063 47.5044Z" fill="#14B661"/>
<path d="M83.4493 35.4887L82.0998 37.4033C82.0998 37.4033 84.3797 40.202 85.6562 40.6847L87.6233 38.6015C87.6233 38.6015 83.4994 36.0063 83.4493 35.4887Z" fill="#FF3E4A"/>
<path d="M36.4071 62.0615L36.6546 64.6861L42.6433 64.6793L44.5352 60.4152C44.5352 60.4152 39.0214 61.2925 36.4071 62.0615Z" fill="#FF3E4A"/>
<path d="M79.5957 57.4937C79.5957 57.4937 76.6117 56.3197 73.6863 57.343C70.7603 58.3652 70.3496 57.1731 69.5735 58.0482C68.7973 58.9234 68.4269 62.5036 73.1092 61.5014C77.7914 60.4992 76.114 59.3478 77.6445 58.9442C79.1728 58.5419 80.5061 58.0423 79.5957 57.4937Z" fill="#14B661"/>
<path d="M97.4216 51.8541C97.4216 51.8541 98.8662 46.9994 102.431 46.0179C105.995 45.0364 106.246 48.4832 103.485 49.6769C100.724 50.8707 96.977 53.0107 97.4216 51.8541Z" fill="#14B661"/>
<path d="M79.2618 37.3761C78.0845 34.1865 73.849 34.2572 71.2438 34.8506C68.3702 35.5036 64.498 37.7461 64.383 41.0215C64.3065 43.2071 66.8463 44.4006 68.6826 44.6453C70.7552 44.9215 74.2329 45.0356 75.9994 43.8033C77.6596 42.6995 80.4404 40.5679 79.2618 37.3761Z" fill="#766974"/>
<path opacity="0.65" d="M79.2618 37.3761C78.0834 34.1872 73.8479 34.2579 71.2438 34.8506C68.3702 35.5036 64.498 37.7461 64.383 41.0215C64.3065 43.2071 66.8463 44.4006 68.6826 44.6453C70.7552 44.9215 74.2329 45.0356 75.9994 43.8033C77.6596 42.6995 80.4404 40.5679 79.2618 37.3761ZM74.8302 40.4262C73.6822 41.0101 72.7326 41.3238 70.5644 41.6286C69.12 41.8317 67.6148 41.4019 67.113 40.0777C66.5815 38.6762 67.3217 37.1936 68.6627 36.6269C70.4983 35.8508 72.3371 35.2914 74.3259 35.1C77.7615 34.7713 77.9047 38.8612 74.8302 40.4262Z" fill="#6C5F66"/>
<path d="M74.3861 36.8257C74.1454 36.725 73.8903 36.7033 73.6225 36.733C73.0889 36.7928 72.4814 37.027 72.0156 37.2939C71.6774 37.4881 71.2718 37.7512 71.1781 38.1579C71.0976 38.5065 71.233 38.8225 71.5592 38.9947C71.9981 39.2266 72.6147 39.1337 73.0804 39.0417C73.5091 38.9581 73.9141 38.8046 74.2799 38.5609C74.5355 38.3902 74.8301 38.1678 74.9776 37.891C75.0568 37.7461 74.9126 37.0451 74.3861 36.8257Z" fill="#AAA2A9"/>
<path d="M49.1221 46.5679C49.1221 46.5679 52.5969 41.0907 55.5161 39.993C58.4342 38.8961 61.9057 40.8815 59.7862 43.3209C57.6656 45.7611 48.004 48.1767 49.1221 46.5679Z" fill="#14B661"/>
<path d="M24.4471 60.2741L26.1717 62.7288L45.3621 54.162L45.3096 51.6299C45.3096 51.6299 40.2808 47.777 33.9291 50.0557C27.5774 52.3343 24.2081 56.5592 24.4471 60.2741Z" fill="#D12424"/>
<path d="M24.4471 60.2741L45.3096 51.6299C45.3096 51.6299 40.2808 47.777 33.9291 50.0557C27.5774 52.3343 24.2081 56.5592 24.4471 60.2741Z" fill="#EA3333"/>
<path d="M29.6625 56.4293C30.2914 56.3695 32.3444 56.7732 32.544 56.7161C32.7443 56.6602 30.9207 55.3398 30.9207 55.3398C30.9207 55.3398 32.4025 53.651 36.1017 53.3012C36.1017 53.3012 35.2323 54.7639 36.2573 54.9479C37.2816 55.1307 37.5218 53.13 37.4977 52.8714C37.4755 52.6366 40.0679 52.2666 41.2635 53.3058L45.3101 51.6289C45.3101 51.6289 40.2824 47.7754 33.9296 50.0547C27.5779 52.3333 24.2086 56.5583 24.4476 60.2732L28.5527 58.5717C28.7741 57.7989 29.2167 56.4717 29.6625 56.4293Z" fill="#C91D1D"/>
<path d="M32.2722 53.1058C35.5977 51.6274 39.5004 50.55 42.6239 52.7418L45.3107 51.6289C45.3107 51.6289 40.283 47.7754 33.9302 50.0547C27.5785 52.3333 24.2092 56.5583 24.4482 60.2732L26.3985 59.465C26.6331 56.1498 29.3971 54.3843 32.2722 53.1058Z" fill="#FF3333"/>
<path d="M30.5264 57.2886C30.5426 57.4568 30.3606 57.6125 30.121 57.6344C29.8802 57.6571 29.6729 57.5393 29.6579 57.3704C29.6417 57.2022 29.8237 57.0465 30.0633 57.0245C30.3029 57.0025 30.5103 57.1204 30.5264 57.2886Z" fill="#FF7E70"/>
<path d="M33.0799 55.285C33.0992 55.4841 32.9091 55.665 32.6564 55.6886C32.4038 55.7123 32.1838 55.5709 32.1645 55.3718C32.1452 55.1727 32.3353 54.9918 32.588 54.9682C32.8406 54.9445 33.0613 55.087 33.0799 55.285Z" fill="#FF7E70"/>
<path d="M34.8035 55.1632C34.824 55.385 34.6241 55.5858 34.3555 55.6114C34.0868 55.6369 33.8527 55.4776 33.8315 55.2547C33.811 55.0329 34.0108 54.832 34.2795 54.8065C34.5489 54.7821 34.7829 54.9415 34.8035 55.1632Z" fill="#FF7E70"/>
<path d="M38.9932 53.4381C39.0094 53.6063 38.8423 53.7607 38.6205 53.7813C38.3988 53.8018 38.2052 53.6834 38.1895 53.5134C38.1733 53.3452 38.3411 53.1919 38.5622 53.1702C38.7832 53.1486 38.9771 53.2699 38.9932 53.4381Z" fill="#FF7E70"/>
<path d="M98.0019 47.8507L96.5734 45.9846L96.5593 45.9666C96.5593 45.9666 91.4599 46.8346 89.8464 46.8748L94.9259 42.5322C94.9259 42.5322 87.1377 41.8504 83.4416 44.1953C80.0804 46.3277 80.8588 48.4039 80.8173 50.0654C80.8106 50.3427 80.8702 50.611 80.9843 50.8635L80.284 53.5008C80.0373 54.4327 80.4987 55.4098 81.3771 55.8076C81.6974 55.9522 82.0105 56.0589 82.2473 56.1121C82.653 56.2017 83.1599 56.2909 83.7548 56.3501C85.539 56.5295 88.1121 56.4443 91.1052 55.3191C92.1874 54.9125 93.1072 54.3952 93.8866 53.8241C94.146 53.634 94.3905 53.4373 94.6203 53.237C95.308 52.6356 95.8634 51.999 96.3094 51.3802C96.4579 51.1746 96.5946 50.9699 96.7202 50.7704C97.7202 49.1754 98.0019 47.8507 98.0019 47.8507Z" fill="#E7D1CA"/>
<path d="M79.6848 51.3584L80.8747 53.9844C81.1633 54.6197 81.7346 55.0726 82.416 55.223C84.0388 55.5815 87.2824 55.9298 91.274 54.43C97.0488 52.2608 98.1707 46.9616 98.1707 46.9616L96.7274 45.0764C96.7274 45.0764 91.628 45.9443 90.0134 45.9853L95.0929 41.6427C95.0929 41.6427 87.3047 40.9608 83.6086 43.3057C80.2473 45.4382 79.5578 48.8965 79.5163 50.558C79.5122 50.8369 79.5707 51.1059 79.6848 51.3584Z" fill="#E65126"/>
<path d="M96.7429 45.0969C96.6511 46.5906 96.1842 48.0012 94.9949 49.0911C93.0632 50.8592 90.8192 52.2234 88.2498 52.845C85.1183 53.603 81.3551 53.7572 79.6244 51.1766C79.6455 51.2372 79.6584 51.2997 79.6848 51.3586L80.8747 53.9846C81.1633 54.62 81.7346 55.0729 82.4167 55.2244C84.0388 55.5818 87.2831 55.9312 91.2747 54.4313C97.0495 52.2622 98.1714 46.963 98.1714 46.963L96.7429 45.0969Z" fill="#D93300"/>
<path d="M83.7905 48.0591C84.1232 48.5381 83.8713 49.2889 83.2268 49.7376C82.5824 50.1862 81.7908 50.1605 81.4569 49.6822C81.1242 49.2032 81.3762 48.4524 82.0206 48.0037C82.665 47.5551 83.4578 47.5801 83.7905 48.0591Z" fill="#EA8D70"/>
<path d="M88.0967 44.3238C88.3958 44.8247 88.092 45.557 87.4181 45.9596C86.7441 46.3621 85.9559 46.2828 85.6567 45.7819C85.3576 45.281 85.6614 44.5487 86.3353 44.1461C87.0093 43.7436 87.7975 43.8229 88.0967 44.3238Z" fill="#EA8D70"/>
<path d="M89.9581 48.9067C90.1853 49.4435 89.7854 50.1279 89.0622 50.4339C88.3397 50.7409 87.569 50.5541 87.3418 50.0174C87.1146 49.4806 87.5146 48.7962 88.2378 48.4902C88.9603 48.1832 89.7302 48.3688 89.9581 48.9067Z" fill="#EA8D70"/>
<path d="M94.6821 47.3601C94.9093 47.8968 94.5094 48.5813 93.7862 48.8872C93.0637 49.1943 92.293 49.0075 92.0658 48.4707C91.8375 47.9347 92.2385 47.2495 92.9606 46.9443C93.6831 46.6372 94.4538 46.8241 94.6821 47.3601Z" fill="#EA8D70"/>
<path d="M67.2902 56.5063C67.3312 56.3987 67.3636 56.2901 67.3858 56.1798C67.3943 56.1372 67.4053 56.0962 67.4108 56.0538C67.4289 55.9163 67.4367 55.7773 67.4271 55.6379C67.4242 55.5944 67.4146 55.5503 67.4086 55.507C67.3963 55.4068 67.3779 55.3071 67.3518 55.2074C67.3366 55.1463 67.3192 55.0866 67.2992 55.0254C67.2692 54.9373 67.2326 54.8487 67.193 54.7603C67.146 54.6545 67.0915 54.5517 67.0315 54.4476C66.9911 54.3784 66.9514 54.3104 66.9057 54.2428C66.8525 54.1627 66.7935 54.0861 66.7338 54.0083C66.6958 53.9611 66.6573 53.9157 66.6182 53.8692C66.3856 53.5964 66.1108 53.3415 65.8013 53.1093C65.7661 53.0822 65.7298 53.0558 65.6942 53.0305C65.5874 52.9548 65.4801 52.8809 65.366 52.8112C64.474 52.2623 63.3802 51.9108 62.2465 51.9286C58.4465 51.9912 57.3648 53.9792 57.4427 55.1889C57.5199 56.3975 55.6073 58.6709 54.3984 57.329C53.6848 56.5361 54.1534 56.0036 54.6568 55.6982C54.5463 55.987 54.519 56.408 55.3536 56.3811C56.6088 56.3396 57.3337 54.2292 55.0929 53.624C52.9679 53.0501 47.9892 55.7311 47.4879 58.8769C47.4588 59.0477 47.5348 59.2451 47.4423 59.3964C45.959 61.8498 47.8647 64.0572 55.159 64.692C57.404 64.887 59.3831 64.255 60.8643 63.6002C61.2882 63.4134 61.6709 63.2077 62.0097 62.9913C62.5173 62.6647 62.925 62.3097 63.2149 61.9433C63.602 61.454 63.7809 60.9458 63.714 60.457C63.6886 60.271 63.6548 60.0995 63.6186 59.9341C63.533 59.5254 63.4162 59.1731 63.2678 58.8743C63.4213 58.8468 63.5791 58.8135 63.7435 58.7731C64.4042 58.6113 65.155 58.3354 66.0148 57.853C66.2073 57.7456 66.3702 57.6281 66.5209 57.5085C66.562 57.4758 66.5994 57.4422 66.6386 57.409C66.7549 57.3073 66.8576 57.2012 66.9464 57.0927C66.966 57.0684 66.9899 57.0461 67.0077 57.0212C67.1066 56.8909 67.1843 56.7564 67.248 56.6194C67.264 56.5815 67.276 56.5446 67.2902 56.5063ZM59.8268 59.6061C60.1897 59.1876 60.6378 59.0845 61.2113 59.0442C61.3401 59.2565 61.3415 59.493 61.1876 59.7285C60.9899 59.6985 60.7825 59.6759 60.5906 59.6581L60.5888 59.6576C60.5688 59.6556 60.5489 59.6537 60.529 59.6517C60.1398 59.6176 59.8268 59.6061 59.8268 59.6061ZM51.6307 55.5694C51.6307 55.5694 51.6296 55.5701 51.6284 55.5708C51.5131 55.6329 51.4003 55.6967 51.2873 55.7652C51.2747 55.7728 51.264 55.7809 51.2515 55.7885C51.1499 55.8501 51.0515 55.9145 50.9538 55.98C50.9328 55.9943 50.9136 56.009 50.8927 56.0233C50.8048 56.0844 50.7188 56.146 50.6348 56.2109C50.6049 56.2337 50.5776 56.2581 50.5477 56.2809C50.4752 56.339 50.4015 56.3977 50.3315 56.4574C50.3169 56.4693 50.303 56.4825 50.2891 56.4956C50.8811 55.8008 51.8295 55.2974 52.7265 55.0952C52.3631 55.2142 51.9911 55.3758 51.6307 55.5694Z" fill="#E7D1CA"/>
<path d="M55.4159 53.5386C55.4159 53.5386 53.2381 54.1803 54.4596 55.6613C55.6811 57.1423 57.5756 54.6692 57.4864 53.343C57.399 52.0173 58.4628 49.848 62.2646 49.814C66.0682 49.7804 69.5131 54.2552 66.0898 56.3394C62.6676 58.4229 60.9377 56.9067 59.9136 58.2071C59.9136 58.2071 62.1909 58.3217 62.1751 58.7435C62.1427 59.586 59.452 61.0244 56.6329 60.8122C55.3152 60.712 53.3934 60.5864 50.9375 59.4746C45.4061 56.9711 53.5601 51.0839 55.4159 53.5386Z" fill="#EAC086"/>
<path d="M60.6804 58.2718C60.6586 58.2694 60.6387 58.2675 60.6181 58.2644C58.8709 59.6442 55.9549 59.7999 54.2428 58.5759C53.4405 58.0023 53.2221 56.9652 53.3132 56.0496C53.4366 54.8037 54.316 53.983 55.3746 53.4939C53.4473 51.1684 45.4448 56.9888 50.9406 59.4748C53.3965 60.5865 55.3184 60.7122 56.6361 60.8123C58.9856 60.9893 61.2415 60.0207 61.9469 59.2041C61.4688 59.0053 61.0428 58.6813 60.6804 58.2718Z" fill="#D59D63"/>
<path d="M65.3953 50.81C65.3786 50.8185 65.3682 50.8296 65.3515 50.8381C65.7909 51.524 65.8655 52.6561 65.4625 53.3253C64.6112 54.7379 63.5567 55.1027 61.9766 55.2444C59.2767 55.4861 59.6196 57.1737 58.9202 59.0532C59.6788 58.7258 59.9151 58.2093 59.9151 58.2093C60.9392 56.9089 62.6692 58.425 66.0913 56.3416C68.493 54.8771 67.5084 52.2421 65.3953 50.81Z" fill="#DA9F59"/>
<path d="M54.8329 53.5946C54.8329 53.5946 54.1514 54.6669 55.407 54.6313C56.6634 54.5969 57.3692 52.2904 55.1221 51.6079C52.8743 50.9242 46.8672 53.3951 46.9716 57.1635C47.076 60.932 50.1358 63.6933 55.2888 63.7375C60.4425 63.7828 64.0996 61.3195 63.8127 59.1732C63.5259 57.0269 62.7253 55.9542 61.1492 56.1591C61.1492 56.1591 60.2885 56.7249 61.0114 57.2732C61.7344 57.8215 61.5243 58.7546 59.8353 59.2498C58.1464 59.7449 53.0506 61.4272 50.441 58.0541C47.8314 54.6809 53.501 51.9291 54.8329 53.5946Z" fill="#F6E4CA"/>
<path d="M57.966 61.8171C54.9981 62.1885 52.2596 62.3896 49.7491 60.5006C48.221 59.3507 46.7303 58.1673 47.0407 56.3957C46.9922 56.6452 46.9628 56.9004 46.9704 57.1628C47.0748 60.9312 50.1346 63.6925 55.2876 63.7367C60.4413 63.7821 64.0984 61.3187 63.8115 59.1725C63.7621 58.8027 63.6919 58.4784 63.6101 58.1735C63.137 60.3155 60.3888 61.5124 57.966 61.8171Z" fill="#F6E4CA"/>
</svg>
