<svg width="186" height="68" viewBox="0 0 186 68" fill="none" xmlns="http://www.w3.org/2000/svg">
<path d="M45.2419 67.1366C47.3529 67.2252 46.2445 67.1205 46.6991 67.1048C49.2211 67.1875 47.8579 67.192 48.7096 67.2561C50.2879 67.295 51.5037 67.2806 52.6812 67.3118C52.7675 67.3246 52.9962 67.335 52.7258 67.341C54.3955 67.3393 57.7144 67.4302 59.6675 67.2758C59.8138 67.2778 59.8892 67.2799 59.9266 67.284C59.6015 67.2614 59.5469 67.2242 59.6061 67.1972C60.5578 67.1612 61.3514 67.0691 61.7226 67.0903C61.1443 67.1287 61.1002 67.1458 60.832 67.1771C61.1612 67.1515 61.491 67.128 61.8183 67.0957C62.7385 67.1068 60.4712 67.2096 60.4825 67.2486C62.4368 67.1428 64.6409 66.8573 66.0587 66.64C66.236 66.651 65.4041 66.7804 64.7681 66.8735C64.125 66.9556 63.6822 67.0119 64.6761 66.9255C63.9182 67.0118 63.1495 67.0743 62.3824 67.1288C64.1886 67.0906 60.9769 67.2324 62.645 67.216C64.1743 67.0993 65.0092 66.976 65.8254 66.8458C66.6447 66.7177 67.4459 66.5713 68.8495 66.2829C69.4225 66.1057 68.588 66.2793 69.1519 66.0976C71.0236 65.6078 71.7385 65.4041 72.3929 65.2631C73.0204 65.1094 73.5603 64.9962 74.6941 64.4926C75.2233 64.2042 75.3276 64.0519 76.9784 63.3692C76.8579 63.4743 76.7304 63.5775 76.5957 63.6783C77.6313 63.2096 77.8509 63.0458 78.0899 62.8821C78.3314 62.7182 78.6007 62.5568 79.6199 62.0448C79.353 62.2593 78.2045 62.8548 78.5083 62.7101C79.922 62.0772 79.3218 62.196 80.2582 61.661L80.6068 61.5997C82.4747 60.4813 84.1672 59.1622 85.9774 57.8756C85.9286 57.9609 85.6672 58.1943 86.1542 57.9116C88.3741 56.2753 91.239 54.515 94.2103 53.2741C94.5351 53.0949 94.847 52.9067 95.1845 52.7313C95.4542 52.6247 95.7431 52.5623 95.481 52.6905C96.7034 52.2482 95.4554 52.6246 95.9683 52.3733C96.6624 52.1153 96.9681 52.0796 96.5647 52.2593C97.5817 51.8379 99.164 51.2885 100.937 50.858C102.7 50.4212 104.643 50.1147 106.094 50.0085C105.914 50.0367 105.733 50.0631 105.558 50.0994C106.668 49.9885 107.271 49.8866 107.875 49.8054C108.474 49.7151 109.081 49.653 110.146 49.6792L109.741 49.6977C112.196 49.6789 114.88 49.8402 116.954 50.364C119.08 50.8651 120.548 51.6997 121.243 52.4335C121.398 52.4826 121.63 52.6213 121.804 52.8197C121.894 52.9182 121.995 53.0263 122.099 53.1387C122.169 53.2559 122.24 53.3775 122.312 53.4979C122.477 53.737 122.486 53.9802 122.601 54.1633C122.642 54.3488 122.704 54.4828 122.827 54.5172C122.692 55.1191 122.439 55.3074 122.209 55.552C121.941 55.783 121.702 56.1073 120.451 56.6661C120.123 56.8166 119.92 56.9529 119.656 57.0796C119.401 57.2075 119.099 57.3447 118.572 57.4418L118.461 57.3389C118.256 57.3966 118.026 57.4275 117.783 57.4603C117.539 57.506 117.3 57.512 117.048 57.5266C116.793 57.4786 116.587 57.3893 116.4 57.3217L115.97 57.2466L115.557 57.1316C115.849 57.2482 116.192 57.37 116.114 57.3856C115.363 57.2673 114.657 56.8898 114.315 56.5378C113.956 56.1868 113.862 55.8883 113.915 55.8712C113.372 55.2934 113.078 54.6435 112.994 54.0007C113.103 54.0432 113.143 54.3656 113.282 54.6152C113.046 54.1097 113.152 54.058 113.214 54.024C113.3 53.9797 113.349 53.9843 113.29 53.4842C113.209 53.6171 113.14 53.4071 113.09 53.3828C113.318 52.8848 113.52 51.7522 113.723 50.9203L113.865 51.0905C114.358 49.6051 114.993 47.9512 116.621 46.4626C115.968 46.9791 115.787 46.8042 116.234 46.3513L116.689 46.2315C116.834 45.9107 116.085 46.6706 116.531 46.0429C117.253 45.5022 117.287 45.752 116.985 46.0776C117.24 45.8565 117.45 45.6213 117.751 45.4107C117.88 45.395 117.702 45.5519 117.743 45.6147C117.96 45.3086 119.582 44.6381 120.073 44.2579L120.202 44.2547C121.472 43.679 122.52 43.3171 123.563 43.0199C124.085 42.8704 124.59 42.7253 125.17 42.6071C125.455 42.5443 125.746 42.4801 126.05 42.4134C126.368 42.3583 126.7 42.3014 127.05 42.2407C127.003 42.111 128.155 41.9762 128.988 41.7789C131.216 41.5669 133.75 41.5238 136.484 41.5539C138.418 41.5414 137.058 41.4677 137.94 41.4181C138.07 41.5195 140.803 41.6514 139.364 41.6562C141.003 41.7342 142.042 41.8224 143.185 41.9212C144.327 42.0234 145.577 42.1439 147.591 42.4126C147.203 42.2944 146.719 42.2144 147.003 42.2134C147.746 42.3038 148.6 42.5267 148.454 42.5546L148.257 42.5333C150.535 42.8325 152.949 43.4386 155.151 44.0684C157.362 44.6977 159.395 45.3487 161.14 45.7138L160.946 45.672L164.415 46.539C165.916 47.0041 163.394 46.339 164.436 46.7278C168.249 47.6272 170.079 48.4236 173.315 49.1253C174.319 49.5774 176.504 50.1193 178.91 50.5771C181.314 51.0413 183.92 51.4218 185.703 51.7468L185.541 51.6444C186.53 51.7014 186.668 51.8233 187.367 51.9252C187.298 51.8556 186.365 51.7412 186.983 51.7673C191.044 52.1891 195.428 52.3984 199.832 52.149C202.021 52.0217 204.216 51.7848 206.311 51.3607C208.367 50.9308 210.398 50.3203 211.734 49.3767C212.665 48.6786 212.475 48.3769 212.443 48.0857C212.389 47.9372 212.368 47.7822 212.313 47.5427C212.262 47.304 212.22 46.9778 211.909 46.5002C212.168 46.6572 212.397 46.8271 212.594 47.0107C212.118 46.2069 211.037 45.4866 209.421 45.0092C208.614 44.7746 207.651 44.611 206.651 44.5778C205.647 44.5454 204.685 44.613 203.758 44.7732C202.847 44.9471 202.05 45.2153 201.427 45.5316C200.821 45.8532 200.393 46.2117 200.075 46.5773C199.495 47.3142 199.365 48.0793 199.657 48.8022C199.538 48.6324 199.424 48.6302 199.408 48.3404C199.286 48.6543 199.445 49.2472 199.888 49.7316C200.362 50.1905 200.865 50.542 200.946 50.5284C201.462 50.9126 200.919 50.6527 201.172 50.9107C201.331 51.0488 201.54 51.1984 201.782 51.3422C202.054 51.4752 202.348 51.6065 202.625 51.7308C203.154 51.9909 203.737 52.165 203.915 52.3168C203.981 52.3663 203.58 52.2246 203.383 52.153C204.046 52.43 206.62 53.3162 206.081 52.9972C208.03 53.636 210.181 53.8953 211.969 54.1811C213.216 54.2203 216.026 54.5403 216.449 54.3206C216.357 54.4105 217.422 54.4786 218.705 54.3913C219.987 54.3258 221.439 54.0997 222.097 53.911C221.662 54.0534 223.403 53.7315 222.916 53.9068C223.714 53.7182 224.45 53.5031 224.903 53.3319C225.332 53.1418 225.532 53.021 225.343 53.0303C226.801 52.6575 227.733 52.0135 228.337 51.4336C228.939 50.8437 229.222 50.311 229.756 49.9539C230.647 47.6682 229.265 45.601 227.302 43.8669C227.518 43.8617 228.052 44.349 228.481 44.8426C228.928 45.3358 229.227 45.831 229.411 45.7654C228.76 44.8491 227.934 44.1944 227.141 43.5581C226.322 42.93 225.51 42.3067 224.481 41.5172C223.986 41.1031 224.937 41.7074 225.176 41.8309C222.943 40.2878 221.032 38.8428 219.399 37.4438C219.439 37.4411 219.619 37.5894 219.809 37.7282C219.495 37.4498 219.2 37.0653 219.071 37.125L219.385 37.3932C219.499 37.6402 219.076 37.3877 218.653 37.0532C218.216 36.7218 217.816 36.3029 217.73 36.2851C218.147 36.5068 217.91 36.1275 217.742 35.785C217.602 35.4377 217.501 35.135 218.026 35.5057C217.877 35.3149 217.698 35.0737 217.604 35.1282C217.511 34.8302 217.538 34.7343 217.795 35.0203C217.525 34.4906 217.436 34.3169 217.355 34.1551C217.268 33.9942 217.186 33.8444 217.195 33.3485C217.27 33.3528 217.314 33.5529 217.411 33.6532C217.246 33.1635 217.095 32.6347 217.659 31.8358C217.68 31.8901 217.785 31.8034 217.649 32.0417C218.01 31.3526 218.496 30.7781 219.235 30.2376C219.967 29.7123 221.054 29.2294 222.68 28.8811C221.919 29.2344 223.807 28.6708 224.118 28.7881C224.688 28.6711 225.284 28.5842 225.892 28.5051L225.118 28.5312C226.718 28.332 228.236 28.191 229.669 28.3105C229.257 28.2898 228.833 28.3224 228.423 28.3248C229.468 28.3154 230.497 28.3911 231.484 28.5217C230.937 28.4351 230.383 28.342 229.792 28.2985C230.648 28.3199 230.622 28.2914 230.657 28.2657C230.684 28.2495 230.805 28.2224 231.871 28.412C231.652 28.3766 232.048 28.453 232.588 28.5672C232.833 28.6424 233.112 28.7281 233.377 28.8096C233.622 28.9 233.812 29.0054 233.951 29.0796L233.947 29.0782C234.593 29.2979 235.265 29.5897 235.617 30.1261C235.643 30.2705 235.242 30.0638 235.257 30.1579C235.545 30.2952 235.748 30.7166 235.744 31.1534C235.743 31.5957 235.414 32.0336 235.349 32.2697C235.411 32.1141 235.283 32.0879 235.22 32.1304C235.206 32.2346 235.188 32.3397 235.135 32.4417C234.755 32.7472 234.656 32.7788 234.624 32.7076C234.009 33.1439 234.171 33.0948 234.299 33.0622C234.419 33.0255 234.552 33.0261 233.624 33.4989C233.76 33.4219 233.666 33.4474 233.922 33.2788C232.182 34.2493 229.864 34.9528 227.245 35.1289C226.84 35.1011 227.405 35.0629 227.933 34.9894C228.475 34.9322 228.959 34.8397 228.524 34.861C225.009 35.3867 220.715 35.2357 217.309 34.5982L217.944 34.7162C217.331 34.7808 215.428 34.2125 213.756 33.8501C214.166 33.9427 214.366 33.9118 214.24 33.9002C213.138 33.6272 212.065 33.3125 210.859 32.948C210.238 32.7766 209.629 32.569 208.982 32.3392C208.324 32.1156 207.623 31.8734 206.937 31.5745L207.332 31.6968C206.28 31.2282 204.599 30.4461 203.638 29.873C203.29 29.7249 202.74 29.3958 202.994 29.622C200.315 27.778 197.8 26.078 196.661 24.1726C196.83 24.394 197.117 24.6908 196.983 24.5156C196.563 23.9943 196.119 23.4755 195.795 22.9393C195.773 23.0785 195.865 23.1565 195.997 23.5043C195.81 23.3088 195.483 22.8593 195.235 22.4596C195.762 23.1752 195.366 22.4377 195.278 22.1157C195.274 22.1719 195.186 22.067 195.169 22.0968C194.944 21.2282 194.863 21.9758 194.491 20.7947L194.563 20.8529C194.395 20.4144 194.127 20.0164 194.049 19.5361C194.11 19.3325 194.205 20.0053 194.329 20.0289C194.136 19.3627 193.75 18.7174 193.804 18.103C193.856 18.3885 193.927 18.7992 194.041 19.0824C193.988 18.418 193.997 18.3411 193.939 17.8489L193.942 17.8974C193.895 17.5183 193.893 17.1389 193.915 16.7593L193.889 17.0492C193.614 16.2071 193.839 15.3321 193.915 14.1951C193.851 15.302 193.964 14.3801 194.047 14.4677C194.127 14.1793 194.236 13.7418 194.24 13.8682C194.273 13.3308 194.506 12.9808 194.618 12.224C194.658 12.1924 194.818 11.6565 194.846 11.781C195.062 11.0898 194.743 11.9406 194.727 11.8804C194.985 10.8079 195.8 9.39508 196.546 7.88145C197.256 6.58191 197.358 6.33701 198.138 5.14334C198.439 4.74595 197.977 5.48029 197.977 5.48029C198.437 4.83204 198.778 4.35104 199.209 3.74172C199.129 3.86607 199.235 3.74142 199.389 3.5587C199.75 3.07316 199.583 3.22666 200.089 2.59056C200.014 2.70614 199.916 2.85807 199.772 3.08212C200.182 2.50733 200.614 1.94323 201.07 1.35288C201.21 1.19919 200.81 1.71176 200.663 1.92183C201.178 1.26484 201.976 0.246591 202.17 1.99064e-05L201.813 0.421403C202.008 0.180954 201.93 0.300641 201.791 0.478623C201.352 1.04766 201.122 1.29342 201.086 1.32428L201.421 0.905216C201.013 1.32551 200.066 2.5873 199.443 3.43805L199.655 3.07616L199.045 3.95333C198.897 4.13689 198.767 4.25891 199.065 3.83738C198.589 4.44354 198.697 4.38158 198.279 4.90133C198.231 4.95829 198.247 4.93198 198.283 4.87795L197.887 5.47966C197.952 5.36012 197.768 5.57279 198.029 5.20536C197.232 6.27503 196.937 6.95427 196.615 7.35445L196.668 7.26332C195.807 8.7771 196.64 7.41644 196.073 8.55929L195.496 9.30903L195.495 9.46575C195.413 9.62246 195.25 9.93296 195.248 9.87255C195.036 10.4651 195.323 9.77507 195.223 10.1211C194.784 10.8734 194.423 12.227 194.223 12.3908C194.198 12.6699 194.531 11.6617 194.3 12.4827C194.096 12.7089 194.02 13.4314 193.836 14.1339C193.79 13.9141 193.969 13.2465 193.752 13.9502C193.783 14.1662 193.708 14.5092 193.614 14.8741C193.552 15.2395 193.469 15.6264 193.452 15.9254C193.505 15.94 193.501 16.2654 193.513 16.7121C193.494 17.1594 193.539 17.7281 193.633 18.2284C193.52 18.168 193.899 20.1151 194.245 21.0403L194.21 21.0151C194.443 21.1803 194.808 22.1322 195.274 22.8042C195.167 22.7881 195.041 22.6718 194.795 22.306C194.905 22.521 195.049 22.733 195.174 22.9466C195.322 23.0905 195.452 23.2891 195.749 23.6973C195.67 23.6503 195.588 23.6028 195.517 23.5542C195.82 23.9745 196.176 24.3908 196.546 24.8368C196.987 25.2715 197.367 25.7497 197.885 26.2695C198.062 26.3016 197.332 25.3971 198.571 26.4565C198.551 26.509 198.488 26.5714 198.159 26.2939C198.266 26.3852 198.566 26.6129 198.738 26.8052L198.17 26.3956C198.624 26.8715 198.519 26.6211 198.909 26.9947C198.801 27.0098 199.168 27.279 199.035 27.2428C198.899 27.1548 198.702 26.9141 198.514 26.7786C198.916 27.2098 199.549 27.7006 199.666 27.8858C199.671 27.8375 199.785 27.856 200.171 28.1518C201.246 28.8957 200.432 28.4354 201.017 28.8836C201.324 29.0515 201.99 29.5353 202.156 29.5006C202.507 29.7079 202.512 29.7659 202.613 29.8575C203.218 30.2317 205.767 31.4869 205.104 31.0538L204.938 30.9618C204.972 30.978 205.012 30.9961 205.054 31.0158C205.048 31.0133 205.054 31.0158 205.048 31.0133L205.054 31.0158C207.448 32.0727 210.13 33.1836 213.047 33.9529L213.01 33.9742C214.767 34.4166 217.037 34.8758 218.463 35.0064C219.023 35.0951 219.786 35.2291 219.516 35.2339C221.043 35.373 221.207 35.3916 223.445 35.5234C221.868 35.5082 223.975 35.6037 221.832 35.483C222.835 35.5618 223.462 35.5931 224.111 35.6068C224.759 35.6166 225.434 35.6034 226.517 35.5099C225.788 35.6312 228.097 35.513 229.024 35.3337C228.548 35.3907 228.065 35.4113 227.591 35.4473C228.647 35.3253 229.601 35.214 230.48 35.0136L230.09 35.2066C232.142 34.8663 233.64 34.2441 234.648 33.5874C235.669 32.9238 236.313 32.2483 236.809 31.5331C236.77 31.2694 236.732 31.5379 236.54 31.7918C236.4 32.0535 236.117 32.2943 236.202 32.0735C236.483 31.6637 236.753 31.2268 236.763 30.8417C236.814 30.4605 236.713 30.1387 236.592 30.0046C236.185 29.387 235.609 29.1752 235.126 28.9714C234.608 28.7756 234.062 28.5893 232.834 28.2572C232.984 28.3071 233.082 28.3882 232.933 28.3852C232.781 28.3869 232.355 28.324 231.382 28.1943C230.479 28.0562 229.9 28.0035 229.715 27.9391C229.528 27.8817 229.731 27.8489 230.36 27.8767C230.836 27.9 231.045 27.9614 231.019 27.9656C231.651 28.0187 232.466 28.1431 231.746 27.9812L231.466 27.9866C231.007 27.8928 230.085 27.802 229.357 27.7588C228.629 27.7309 228.097 27.7061 228.424 27.679C227.661 27.6999 227.507 27.7328 227.675 27.7393C227.843 27.7468 228.337 27.7454 228.894 27.775C227.617 27.7119 226.618 27.7827 225.634 27.8618C224.663 27.9711 223.682 28.0857 222.486 28.3297C222.888 28.2706 223.274 28.2435 222.902 28.3207C221.155 28.6627 220.874 28.8299 220.696 28.915C220.541 29.0192 220.437 29.0425 219.549 29.4493C218.971 29.6489 219.033 29.6013 218.972 29.5826C218.948 29.5744 218.762 29.6102 218.079 30.1012C217.149 30.6715 217.675 30.1728 217.96 29.9103C216.767 30.8352 215.893 31.6874 215.626 32.2927L215.827 31.7335C215.693 32.0684 215.562 32.3382 215.49 32.617L215.782 32.3129C215.645 32.6339 215.563 32.9087 215.496 32.9C215.577 33.2366 215.856 32.6611 215.941 33.3164C215.79 33.7433 216.162 34.5941 215.973 34.7511C215.766 33.4178 215.692 34.9166 215.481 33.7769C215.517 33.9988 215.559 34.2657 215.612 34.5902C215.597 34.6397 215.544 34.5476 215.505 34.4605C215.555 35.1131 215.74 35.2522 215.892 35.3947C216.077 35.5349 216.242 35.6818 216.658 36.3141C216.402 36.1717 216.579 36.6454 216.78 36.8452C216.399 36.3364 216.829 36.5727 217.302 37.0107C217.875 37.8148 218.174 37.8394 218.573 38.2352C218.432 38.0813 218.278 37.9309 218.148 37.7741C218.439 37.9021 218.817 38.2804 219.461 38.7813C219.404 38.8501 218.85 38.3318 219.014 38.5257C219.904 39.0412 220.317 39.8592 221.501 40.5823C221.886 40.958 221.296 40.6814 221.651 41.0072C222.968 41.8128 222.714 41.9723 224 42.8289C223.851 42.5273 223.765 42.4891 224.727 43.0809C224.083 42.5952 223.396 42.1182 222.699 41.6406L224.204 42.5167C223.639 42.0697 222.859 41.6096 222.533 41.336C223.283 41.7461 223.175 41.712 223.042 41.4609C223.582 42.1362 224.81 42.6233 225.464 43.3883L224.97 43.4718C225.955 44.5866 227.365 45.3424 227.857 46.8742L227.738 46.3826C228.048 46.5656 228.176 47.3152 228.298 47.8089C228.122 47.7672 228.063 48.077 227.961 48.2846C228.034 48.2721 228.006 48.5479 227.985 48.8432C227.95 49.1387 227.885 49.4522 228.02 49.5346C227.864 49.7525 227.622 49.9566 227.421 50.1606C226.943 50.7211 226.671 51.0416 226.396 51.3634C226.095 51.6771 225.774 52.0122 224.756 52.4064C224.993 52.2581 224.855 52.2629 224.816 52.2334C224.784 52.2074 224.836 52.1401 225.354 51.8325C224.806 52.1316 224.175 52.3301 224.25 52.3768C223.851 52.4986 222.466 53.1202 221.59 53.1621C221.271 53.2443 221.261 53.3862 220.274 53.4949C220.156 53.4906 220.252 53.4553 220.252 53.4553C220.28 53.4934 218.74 53.6819 219.652 53.6725C218.218 53.6911 216.279 53.7706 214.37 53.6398C212.477 53.5285 210.64 53.2805 209.662 52.9401C207.836 52.6158 205.802 52.036 204.572 51.4619C204.697 51.4788 204.644 51.4347 204.876 51.5423C204.063 51.1396 203.796 51.0266 203.393 50.9268C203.193 50.8763 203.031 50.8067 202.812 50.6866C202.616 50.5612 202.288 50.3996 202.042 50.1044C201.889 49.7843 202.082 49.9297 202.273 50.1006C202.459 50.2747 202.77 50.4531 202.569 50.2782C202.703 50.1463 202.395 49.8178 201.946 49.4266C201.574 49.0361 201.34 48.509 201.554 48.1148C201.553 48.1782 201.579 48.2418 201.594 48.3048C201.69 48.006 201.666 47.6426 201.828 47.2359C201.984 46.8365 202.302 46.3715 203.054 46.0327C203.054 46.0327 203.024 46.0808 203.116 46.0649C203.453 45.7804 204.295 45.4508 205.465 45.3444C206.616 45.2104 207.945 45.3712 208.831 45.6675C208.128 45.5776 207.942 45.4833 208.147 45.6665C208.545 45.7642 208.545 45.7179 208.647 45.693C208.732 45.6781 208.994 45.6556 209.702 45.981C210.081 46.232 210.557 46.8333 210.31 46.9443C210.136 46.6978 209.844 46.4702 209.509 46.262C209.754 46.6454 210.555 47.1439 210.493 47.563L210.339 47.5167C210.399 48.0671 210.201 48.3495 209.979 48.6611C209.725 48.9574 209.408 49.2894 208.245 49.7488L208.562 49.6899C208.065 50.0122 207.707 50.0875 207.379 50.1578C207.042 50.228 206.709 50.2873 206.022 50.5318L205.376 50.4863C204.895 50.616 204.026 50.8362 202.982 51.0244C201.93 51.2039 200.731 51.3757 199.698 51.4625C200.826 51.2596 203.154 50.9435 204.407 50.6075C203.409 50.8168 200.798 51.1412 200.233 51.2451C200.682 51.1969 201.222 51.103 201.671 51.0712C200.405 51.3599 198.561 51.5789 196.244 51.5997C196.435 51.433 194.947 51.4405 193.211 51.3645C191.472 51.3079 189.494 51.1243 188.754 50.9246C184.753 50.6465 181.107 49.8589 176.932 48.9039C178.142 49.4768 175.701 48.6268 175.672 48.9129C174.679 48.691 174.319 48.5893 174.254 48.5522C173.342 48.2568 172.448 47.9514 171.559 47.6439C170.977 47.3912 172.526 47.8435 172.513 47.7662C170.476 47.1804 171.786 47.4323 170.515 46.9933C170.676 47.1518 169.634 46.9049 168.517 46.536L170.004 47.1117C166.966 46.4051 167.82 46.2116 164.76 45.4831L165.778 45.6816C164.252 45.2851 160.276 44.0815 158.501 43.8709C158.267 43.7725 157.991 43.6147 158.69 43.7795C155.041 42.7591 150.038 41.9479 146.881 41.4041L147.242 41.3891C146.452 41.2922 145.814 41.3095 144.866 41.1372C144.931 41.1177 145.22 41.1141 144.857 41.067C144.427 41.0309 142.694 40.9479 141.647 40.8359C141.96 40.8349 142.275 40.8304 142.587 40.8386C140.501 40.6271 138.841 40.5785 137.283 40.6131C135.723 40.6302 134.265 40.7294 132.499 40.8146C132.483 40.7233 131.637 40.7132 130.57 40.7375C129.511 40.7873 128.243 40.8889 127.416 40.9965L127.456 40.9643C125.004 41.285 123.059 41.7652 121.377 42.3366C119.688 42.9101 118.304 43.6007 116.985 44.4398C115.954 44.8919 114.616 45.8208 113.679 46.9135C112.701 48.0017 112.108 49.228 111.644 50.2067C111.817 49.9098 111.929 50.278 111.85 50.6285C111.619 51.087 111.777 51.9169 111.446 51.8279L111.488 51.6632C111.054 51.9978 110.97 52.9515 110.88 53.6996L111.336 53.8378C110.973 54.8459 111.46 56.243 113.297 57.2945C113.734 57.5598 114.339 57.7767 114.955 57.9517C115.61 58.107 116.308 58.2119 116.964 58.2275C118.267 58.2727 119.318 58.1271 120.006 58.0266C121.07 57.7232 122.081 57.2637 122.66 56.8153L122.816 56.8977C123.826 56.3111 124.192 55.7596 124.422 55.1881C124.645 54.609 124.566 53.9687 124.014 53.1352L124.396 53.4606C124.245 53.2207 124.078 53.0304 123.907 52.8691C123.704 52.7136 123.49 52.5881 123.284 52.4666C123.091 52.3427 122.853 52.2338 122.618 52.1071C122.379 51.9813 122.171 51.8294 121.869 51.6579L121.798 51.3581C120.66 50.689 119.232 50.0937 117.519 49.685C115.789 49.2733 113.882 49.0881 112.026 49.0843C112.09 49.0689 112.21 49.0215 112.821 49.0492C111.94 48.9987 110.207 48.9299 108.802 49.0125C107.394 49.0766 106.331 49.216 106.688 49.2754C106.647 49.2273 105.687 49.2931 104.562 49.4806C103.42 49.6481 102.142 49.9415 101.275 50.1486L101.469 50.0134C100.085 50.445 100.056 50.4664 98.1523 51.041C97.684 51.1655 97.6655 51.1015 98.2988 50.9413C97.5045 51.1426 97.2452 51.2538 96.9521 51.3775C96.6517 51.4983 96.3186 51.631 95.4435 51.9274L95.9991 51.6545C94.5361 52.1747 94.7283 52.1747 94.0683 52.5242C93.2636 52.8992 91.6285 53.645 91.3267 53.694C91.2466 53.8093 90.6947 54.1889 90.0041 54.5616C89.8646 54.5965 90.0753 54.4468 90.1812 54.3713C88.2038 55.4319 87.6701 56.0752 86.369 56.8166C86.2962 56.819 86.1983 56.864 86.0882 56.925C87.3989 56.0117 88.5576 55.2997 88.4606 55.3702C88.3244 55.3274 87.1675 56.0455 87.8807 55.412C87.0665 56.0262 85.8241 57.0997 84.7467 57.8032C84.6848 57.8343 84.624 57.8649 84.5655 57.8857L84.6563 57.8071C84.408 57.9696 84.2108 58.122 84.0353 58.2686C83.6885 58.4921 83.4676 58.6338 83.153 58.8527C82.9239 58.9078 81.8958 59.6787 81.346 60.0345C81.5295 60.0446 80.7999 60.5099 81.5756 60.1014C81.479 60.1555 81.6629 60.0287 82.0135 59.787C82.0875 59.7308 82.1756 59.6654 82.2253 59.6276C82.2187 59.6359 82.2098 59.6454 82.2013 59.6561C82.5446 59.4159 82.9929 59.1019 83.5012 58.7457C83.1613 59.0552 82.7882 59.3752 82.12 59.7539C81.9375 59.966 81.7175 60.1954 81.5881 60.323C80.6606 60.7642 79.0338 61.6459 78.7011 61.7306C76.983 62.805 74.1532 64.0669 72.8221 64.6555C72.1783 64.9 72.0125 64.8974 71.7278 64.9613C72.1114 64.8291 72.5549 64.6636 72.7398 64.5804C72.1064 64.8254 71.1173 65.1649 70.1989 65.4229C69.293 65.6887 68.4842 65.8938 68.343 65.9672C66.3807 66.3398 69.3591 65.6856 66.7133 66.232L67.0566 66.1439C64.3743 66.5866 62.1155 66.8388 59.6966 66.9795C57.2821 67.1171 54.7355 67.1326 51.5183 66.9828C51.9649 67.0021 52.1881 67.0112 52.2781 67.0237C44.9212 66.7948 37.0996 66.5334 29.9199 65.9807C27.8757 65.8376 27.6484 65.8367 26.3938 65.7661L25.962 65.7048L23.8203 65.5727C20.7964 65.3512 18.6299 65.0887 14.8203 64.7638L15.3031 64.8235C13.9421 64.6927 10.9955 64.3996 11.2302 64.4086C11.0911 64.3959 10.7809 64.3713 10.2529 64.3113L10.2149 64.3004C9.10118 64.191 7.9966 64.0641 6.88793 63.9453C4.3217 63.6474 7.29942 63.9767 3.55289 63.5442C2.24569 63.3856 0.627116 63.1894 0.121902 63.1281C0.658576 63.1955 1.40006 63.2889 1.59139 63.3128L0.325287 63.1536C0.0944213 63.1268 -0.873529 62.9951 2.22179 63.4056C2.94076 63.5013 3.6643 63.5906 4.38831 63.677L5.08394 63.7679L3.25911 63.5407C4.31307 63.671 4.94438 63.7491 5.68666 63.8407C5.90101 63.8684 6.1865 63.9057 6.5925 63.9583L8.73763 64.1959C8.99217 64.2332 7.77218 64.0952 9.20354 64.2684C10.2109 64.3759 8.24958 64.145 9.91409 64.3262C10.9556 64.4493 10.6453 64.4241 11.8775 64.5507C12.047 64.5752 11.7845 64.5503 11.2975 64.4987C12.3906 64.6172 14.1955 64.8064 14.7683 64.8515C15.8518 64.9858 18.4833 65.2106 18.3581 65.2328C18.7255 65.2633 20.3228 65.395 21.3256 65.4778C19.4513 65.3603 25.1248 65.8112 24.6164 65.8146C26.0078 65.89 29.6005 66.1919 32.062 66.3282C31.9228 66.3241 31.6506 66.3149 31.4363 66.2963C32.8137 66.3945 33.2111 66.4351 34.0942 66.5054C34.285 66.4738 36.4427 66.5897 37.6145 66.6236C39.2968 66.7727 36.5676 66.6246 37.0867 66.7027C37.0114 66.661 40.0488 66.8264 39.4805 66.7568C40.7721 66.8569 40.597 66.831 41.2551 66.9126C41.5002 66.8549 42.4703 66.9582 43.5591 66.9638C45.435 67.0863 44.0291 67.0593 46.1053 67.1209C47.0912 67.1854 45.2419 67.1366 45.2419 67.1366ZM85.9318 57.8606L85.9347 57.8616C85.7109 58.0199 85.5205 58.1555 85.3985 58.242C85.5096 58.1623 85.6635 58.052 85.9318 57.8606ZM88.1788 56.3359C87.8891 56.5161 87.5499 56.7481 87.1856 56.9912C87.055 57.0301 87.0868 56.9571 87.3175 56.8052C87.2309 56.8982 87.7896 56.5465 88.1788 56.3359ZM82.4648 59.3004C82.7928 59.052 82.9364 58.9778 83.0142 58.9526C82.8542 59.0684 82.6666 59.2043 82.4214 59.3825C82.415 59.3914 82.4039 59.4067 82.3976 59.4161C82.4042 59.3852 82.4164 59.3517 82.4648 59.3004Z" fill="#F1C40F"/>
</svg>
