<svg width="12" height="15" viewBox="0 0 12 15" fill="none" xmlns="http://www.w3.org/2000/svg">
<path d="M6 8C7.10457 8 8 7.10457 8 6C8 4.89543 7.10457 4 6 4C4.89543 4 4 4.89543 4 6C4 7.10457 4.89543 8 6 8Z" stroke="#FF9924" stroke-width="1.33333" stroke-linecap="round" stroke-linejoin="round"/>
<path d="M6.00008 0.666687C4.58559 0.666687 3.22904 1.22859 2.22885 2.22878C1.22865 3.22898 0.666748 4.58553 0.666748 6.00002C0.666748 7.26135 0.934748 8.08669 1.66675 9.00002L6.00008 14L10.3334 9.00002C11.0654 8.08669 11.3334 7.26135 11.3334 6.00002C11.3334 4.58553 10.7715 3.22898 9.77132 2.22878C8.77112 1.22859 7.41457 0.666687 6.00008 0.666687Z" stroke="#FF9924" stroke-width="1.33333" stroke-linecap="round" stroke-linejoin="round"/>
</svg>
