<svg width="14" height="14" viewBox="0 0 14 14" fill="none" xmlns="http://www.w3.org/2000/svg">
<path fill-rule="evenodd" clip-rule="evenodd" d="M13.3333 6.66667C13.3333 10.3487 10.3487 13.3333 6.66667 13.3333C2.98467 13.3333 0 10.3487 0 6.66667C0 2.98467 2.98467 0 6.66667 0C10.3487 0 13.3333 2.98467 13.3333 6.66667ZM6.66667 12C8.08115 12 9.43771 11.4381 10.4379 10.4379C11.4381 9.43771 12 8.08115 12 6.66667C12 5.25218 11.4381 3.89562 10.4379 2.89543C9.43771 1.89524 8.08115 1.33333 6.66667 1.33333C5.25218 1.33333 3.89562 1.89524 2.89543 2.89543C1.89524 3.89562 1.33333 5.25218 1.33333 6.66667C1.33333 8.08115 1.89524 9.43771 2.89543 10.4379C3.89562 11.4381 5.25218 12 6.66667 12Z" fill="#FF9924"/>
<path fill-rule="evenodd" clip-rule="evenodd" d="M6.66667 2.66669C6.84348 2.66669 7.01305 2.73693 7.13807 2.86195C7.2631 2.98697 7.33333 3.15654 7.33333 3.33335V6.26202L9.18667 7.22469C9.26437 7.26505 9.33335 7.32031 9.38969 7.38734C9.44603 7.45436 9.48862 7.53182 9.51502 7.6153C9.54143 7.69878 9.55113 7.78664 9.54357 7.87387C9.53602 7.9611 9.51136 8.04599 9.471 8.12369C9.43064 8.20139 9.37537 8.27037 9.30835 8.32671C9.24133 8.38305 9.16387 8.42564 9.08039 8.45204C8.91179 8.50537 8.72892 8.48953 8.572 8.40802L6.64667 7.40802C6.45166 7.30668 6.28823 7.15374 6.17419 6.96588C6.06016 6.77802 5.9999 6.56245 6 6.34269V3.33335C6 3.15654 6.07024 2.98697 6.19526 2.86195C6.32029 2.73693 6.48986 2.66669 6.66667 2.66669Z" fill="#FF9924"/>
</svg>
