<svg width="11" height="11" viewBox="0 0 11 11" fill="none" xmlns="http://www.w3.org/2000/svg">
<path d="M6.92453 5.3333C6.92453 6.2133 6.21342 6.92441 5.33342 6.92441C4.45342 6.92441 3.74231 6.2133 3.74231 5.3333C3.74231 4.4533 4.45342 3.74219 5.33342 3.74219C6.21342 3.74219 6.92453 4.4533 6.92453 5.3333Z" stroke="#072F25" stroke-width="0.666667" stroke-linecap="round" stroke-linejoin="round"/>
<path d="M5.33339 9.00888C6.90227 9.00888 8.3645 8.08443 9.38228 6.48443C9.78228 5.85776 9.78228 4.80443 9.38228 4.17776C8.3645 2.57776 6.90227 1.65332 5.33339 1.65332C3.7645 1.65332 2.30227 2.57776 1.2845 4.17776C0.884497 4.80443 0.884497 5.85776 1.2845 6.48443C2.30227 8.08443 3.7645 9.00888 5.33339 9.00888Z" stroke="#072F25" stroke-width="0.666667" stroke-linecap="round" stroke-linejoin="round"/>
</svg>
