<svg width="22" height="22" viewBox="0 0 22 22" fill="none" xmlns="http://www.w3.org/2000/svg">
<path d="M16.2348 3.66183C15.9836 3.66183 15.7381 3.73631 15.5292 3.87586C15.3204 4.01541 15.1576 4.21376 15.0615 4.44582C14.9654 4.67788 14.9402 4.93323 14.9892 5.17959C15.0382 5.42594 15.1592 5.65224 15.3368 5.82985C15.5144 6.00746 15.7407 6.12842 15.987 6.17742C16.2334 6.22642 16.4887 6.20127 16.7208 6.10515C16.9529 6.00903 17.1512 5.84625 17.2908 5.6374C17.4303 5.42855 17.5048 5.18301 17.5048 4.93182C17.5048 4.595 17.371 4.27197 17.1328 4.0338C16.8947 3.79563 16.5716 3.66183 16.2348 3.66183ZM21.1031 6.22299C21.0825 5.34489 20.9181 4.47611 20.6163 3.65124C20.3472 2.94548 19.9284 2.3064 19.3886 1.778C18.8646 1.23552 18.224 0.819335 17.5154 0.560916C16.6927 0.249936 15.823 0.0817138 14.9436 0.0634998C13.8218 -5.91389e-08 13.462 0 10.5833 0C7.70465 0 7.34482 -5.91389e-08 6.22299 0.0634998C5.34368 0.0817138 4.47393 0.249936 3.65124 0.560916C2.94393 0.821951 2.30392 1.23778 1.778 1.778C1.23552 2.30206 0.819335 2.94263 0.560916 3.65124C0.249936 4.47393 0.0817138 5.34368 0.0634998 6.22299C-5.91389e-08 7.34482 0 7.70465 0 10.5833C0 13.462 -5.91389e-08 13.8218 0.0634998 14.9436C0.0817138 15.823 0.249936 16.6927 0.560916 17.5154C0.819335 18.224 1.23552 18.8646 1.778 19.3886C2.30392 19.9288 2.94393 20.3447 3.65124 20.6057C4.47393 20.9167 5.34368 21.0849 6.22299 21.1031C7.34482 21.1666 7.70465 21.1666 10.5833 21.1666C13.462 21.1666 13.8218 21.1666 14.9436 21.1031C15.823 21.0849 16.6927 20.9167 17.5154 20.6057C18.224 20.3473 18.8646 19.9311 19.3886 19.3886C19.9307 18.8622 20.3499 18.2226 20.6163 17.5154C20.9181 16.6905 21.0825 15.8217 21.1031 14.9436C21.1031 13.8218 21.1666 13.462 21.1666 10.5833C21.1666 7.70465 21.1666 7.34482 21.1031 6.22299ZM19.1981 14.8166C19.1904 15.4884 19.0688 16.1541 18.8383 16.7851C18.6693 17.2457 18.3979 17.6619 18.0445 18.0022C17.7013 18.352 17.286 18.6229 16.8275 18.796C16.1964 19.0264 15.5308 19.1481 14.859 19.1558C13.8006 19.2087 13.4091 19.2193 10.6256 19.2193C7.84223 19.2193 7.45065 19.2193 6.39232 19.1558C5.69476 19.1689 5.00019 19.0614 4.33916 18.8383C3.90078 18.6563 3.50451 18.3862 3.17499 18.0445C2.82372 17.7046 2.5557 17.288 2.39183 16.8275C2.13344 16.1873 1.99013 15.5066 1.9685 14.8166C1.9685 13.7583 1.905 13.3667 1.905 10.5833C1.905 7.7999 1.905 7.40832 1.9685 6.34999C1.97324 5.66319 2.09862 4.98257 2.33891 4.33916C2.52523 3.89245 2.81121 3.49425 3.17499 3.17499C3.49653 2.81111 3.89391 2.5221 4.33916 2.32833C4.98426 2.09554 5.66419 1.97387 6.34999 1.9685C7.40832 1.9685 7.7999 1.905 10.5833 1.905C13.3667 1.905 13.7583 1.905 14.8166 1.9685C15.4884 1.9762 16.1541 2.09787 16.7851 2.32833C17.2661 2.50682 17.6977 2.79701 18.0445 3.17499C18.3914 3.50009 18.6624 3.89755 18.8383 4.33916C19.0735 4.98361 19.1953 5.66396 19.1981 6.34999C19.251 7.40832 19.2616 7.7999 19.2616 10.5833C19.2616 13.3667 19.251 13.7583 19.1981 14.8166ZM10.5833 5.15407C9.50996 5.15617 8.46132 5.47636 7.56988 6.07421C6.67844 6.67205 5.98421 7.52071 5.5749 8.51296C5.1656 9.5052 5.05959 10.5965 5.27027 11.649C5.48095 12.7014 5.99887 13.6679 6.75858 14.4261C7.5183 15.1843 8.48571 15.7004 9.53859 15.909C10.5915 16.1176 11.6826 16.0095 12.674 15.5983C13.6655 15.187 14.5128 14.4911 15.1089 13.5985C15.705 12.7059 16.0231 11.6567 16.0231 10.5833C16.0245 9.86905 15.8847 9.16156 15.6117 8.50153C15.3387 7.8415 14.9379 7.24196 14.4323 6.73739C13.9268 6.23282 13.3265 5.83318 12.6659 5.56146C12.0053 5.28973 11.2976 5.15128 10.5833 5.15407ZM10.5833 14.1076C9.88628 14.1076 9.20491 13.9009 8.62535 13.5136C8.04579 13.1264 7.59408 12.576 7.32734 11.932C7.06059 11.288 6.9908 10.5794 7.12679 9.89577C7.26277 9.21213 7.59842 8.58417 8.0913 8.0913C8.58417 7.59842 9.21213 7.26277 9.89577 7.12679C10.5794 6.9908 11.288 7.06059 11.932 7.32734C12.576 7.59408 13.1264 8.04579 13.5136 8.62535C13.9009 9.20491 14.1076 9.88628 14.1076 10.5833C14.1076 11.0461 14.0164 11.5044 13.8393 11.932C13.6622 12.3596 13.4026 12.7481 13.0753 13.0753C12.7481 13.4026 12.3596 13.6622 11.932 13.8393C11.5044 14.0164 11.0461 14.1076 10.5833 14.1076Z" fill="white"/>
</svg>
