<svg width="13" height="11" viewBox="0 0 13 11" fill="none" xmlns="http://www.w3.org/2000/svg">
<path fill-rule="evenodd" clip-rule="evenodd" d="M0 1.37755C0 0.616748 0.616751 0 1.37755 0H11.4796C12.2404 0 12.8571 0.616748 12.8571 1.37755V1.69159L6.78067 5.74329C6.69497 5.79839 6.57057 5.83772 6.42856 5.83772C6.28656 5.83772 6.16216 5.79839 6.07646 5.74329L0 1.6916V1.37755ZM0 3.07134V9.18367C0 9.94445 0.616751 10.5612 1.37755 10.5612H11.4796C12.2404 10.5612 12.8571 9.94445 12.8571 9.18367V3.07133L7.41435 6.70051L7.40906 6.70404C7.12009 6.89213 6.77308 6.98568 6.42856 6.98568C6.08405 6.98568 5.73706 6.8921 5.44809 6.70401L5.44277 6.70054L0 3.07134Z" fill="#FF9924"/>
</svg>
