<svg width="12" height="15" viewBox="0 0 12 15" fill="none" xmlns="http://www.w3.org/2000/svg">
<path d="M9.18 0H2.82C0.75 0 0 0.75 0 2.8575V12.1425C0 14.25 0.75 15 2.82 15H9.1725C11.25 15 12 14.25 12 12.1425V2.8575C12 0.75 11.25 0 9.18 0ZM6 12.975C5.28 12.975 4.6875 12.3825 4.6875 11.6625C4.6875 10.9425 5.28 10.35 6 10.35C6.72 10.35 7.3125 10.9425 7.3125 11.6625C7.3125 12.3825 6.72 12.975 6 12.975ZM7.5 3.1875H4.5C4.1925 3.1875 3.9375 2.9325 3.9375 2.625C3.9375 2.3175 4.1925 2.0625 4.5 2.0625H7.5C7.8075 2.0625 8.0625 2.3175 8.0625 2.625C8.0625 2.9325 7.8075 3.1875 7.5 3.1875Z" fill="#FF9924"/>
</svg>
